<svg width="181" height="181" viewBox="0 0 181 181" fill="none" xmlns="http://www.w3.org/2000/svg">
<circle cx="3.22558" cy="3.22558" r="3.22558" fill="#DEE8FF"/>
<circle cx="22.6201" cy="3.22558" r="3.22558" fill="#DEE8FF"/>
<circle cx="42.0127" cy="3.22558" r="3.22558" fill="#DEE8FF"/>
<circle cx="61.4072" cy="3.22558" r="3.22558" fill="#DEE8FF"/>
<circle cx="80.8018" cy="3.22558" r="3.22558" fill="#DEE8FF"/>
<circle cx="100.194" cy="3.22558" r="3.22558" fill="#DEE8FF"/>
<circle cx="119.589" cy="3.22558" r="3.22558" fill="#DEE8FF"/>
<circle cx="138.983" cy="3.22558" r="3.22558" fill="#DEE8FF"/>
<circle cx="158.378" cy="3.22558" r="3.22558" fill="#DEE8FF"/>
<circle cx="177.77" cy="3.22558" r="3.22558" fill="#DEE8FF"/>
<circle cx="3.22558" cy="22.6201" r="3.22558" fill="#DEE8FF"/>
<circle cx="22.6201" cy="22.6201" r="3.22558" fill="#DEE8FF"/>
<circle cx="42.0127" cy="22.6201" r="3.22558" fill="#DEE8FF"/>
<circle cx="61.4072" cy="22.6201" r="3.22558" fill="#DEE8FF"/>
<circle cx="80.8018" cy="22.6201" r="3.22558" fill="#DEE8FF"/>
<circle cx="100.194" cy="22.6201" r="3.22558" fill="#DEE8FF"/>
<circle cx="119.589" cy="22.6201" r="3.22558" fill="#DEE8FF"/>
<circle cx="138.983" cy="22.6201" r="3.22558" fill="#DEE8FF"/>
<circle cx="158.378" cy="22.6201" r="3.22558" fill="#DEE8FF"/>
<circle cx="177.77" cy="22.6201" r="3.22558" fill="#DEE8FF"/>
<circle cx="3.22558" cy="42.0146" r="3.22558" fill="#DEE8FF"/>
<circle cx="22.6201" cy="42.0146" r="3.22558" fill="#DEE8FF"/>
<circle cx="42.0127" cy="42.0146" r="3.22558" fill="#DEE8FF"/>
<circle cx="61.4072" cy="42.0146" r="3.22558" fill="#DEE8FF"/>
<circle cx="80.8018" cy="42.0146" r="3.22558" fill="#DEE8FF"/>
<circle cx="100.194" cy="42.0146" r="3.22558" fill="#DEE8FF"/>
<circle cx="119.589" cy="42.0146" r="3.22558" fill="#DEE8FF"/>
<circle cx="138.983" cy="42.0146" r="3.22558" fill="#DEE8FF"/>
<circle cx="158.378" cy="42.0146" r="3.22558" fill="#DEE8FF"/>
<circle cx="177.77" cy="42.0146" r="3.22558" fill="#DEE8FF"/>
<circle cx="3.22558" cy="61.4092" r="3.22558" fill="#DEE8FF"/>
<circle cx="22.6201" cy="61.4092" r="3.22558" fill="#DEE8FF"/>
<circle cx="42.0127" cy="61.4092" r="3.22558" fill="#DEE8FF"/>
<circle cx="61.4072" cy="61.4092" r="3.22558" fill="#DEE8FF"/>
<circle cx="80.8018" cy="61.4092" r="3.22558" fill="#DEE8FF"/>
<circle cx="100.194" cy="61.4092" r="3.22558" fill="#DEE8FF"/>
<circle cx="119.589" cy="61.4092" r="3.22558" fill="#DEE8FF"/>
<circle cx="138.983" cy="61.4092" r="3.22558" fill="#DEE8FF"/>
<circle cx="158.378" cy="61.4092" r="3.22558" fill="#DEE8FF"/>
<circle cx="177.77" cy="61.4092" r="3.22558" fill="#DEE8FF"/>
<circle cx="3.22558" cy="80.8037" r="3.22558" fill="#DEE8FF"/>
<circle cx="22.6201" cy="80.8037" r="3.22558" fill="#DEE8FF"/>
<circle cx="42.0127" cy="80.8037" r="3.22558" fill="#DEE8FF"/>
<circle cx="61.4072" cy="80.8037" r="3.22558" fill="#DEE8FF"/>
<circle cx="80.8018" cy="80.8037" r="3.22558" fill="#DEE8FF"/>
<circle cx="100.194" cy="80.8037" r="3.22558" fill="#DEE8FF"/>
<circle cx="119.589" cy="80.8037" r="3.22558" fill="#DEE8FF"/>
<circle cx="138.983" cy="80.8037" r="3.22558" fill="#DEE8FF"/>
<circle cx="158.378" cy="80.8037" r="3.22558" fill="#DEE8FF"/>
<circle cx="177.77" cy="80.8037" r="3.22558" fill="#DEE8FF"/>
<circle cx="3.22558" cy="100.196" r="3.22558" fill="#DEE8FF"/>
<circle cx="22.6201" cy="100.196" r="3.22558" fill="#DEE8FF"/>
<circle cx="42.0127" cy="100.196" r="3.22558" fill="#DEE8FF"/>
<circle cx="61.4072" cy="100.196" r="3.22558" fill="#DEE8FF"/>
<circle cx="80.8018" cy="100.196" r="3.22558" fill="#DEE8FF"/>
<circle cx="100.194" cy="100.196" r="3.22558" fill="#DEE8FF"/>
<circle cx="119.589" cy="100.196" r="3.22558" fill="#DEE8FF"/>
<circle cx="138.983" cy="100.196" r="3.22558" fill="#DEE8FF"/>
<circle cx="158.378" cy="100.196" r="3.22558" fill="#DEE8FF"/>
<circle cx="177.77" cy="100.196" r="3.22558" fill="#DEE8FF"/>
<circle cx="3.22558" cy="119.591" r="3.22558" fill="#DEE8FF"/>
<circle cx="22.6201" cy="119.593" r="3.22558" fill="#DEE8FF"/>
<circle cx="42.0127" cy="119.593" r="3.22558" fill="#DEE8FF"/>
<circle cx="61.4072" cy="119.591" r="3.22558" fill="#DEE8FF"/>
<circle cx="80.8018" cy="119.593" r="3.22558" fill="#DEE8FF"/>
<circle cx="100.194" cy="119.593" r="3.22558" fill="#DEE8FF"/>
<circle cx="119.589" cy="119.593" r="3.22558" fill="#DEE8FF"/>
<circle cx="138.983" cy="119.593" r="3.22558" fill="#DEE8FF"/>
<circle cx="158.378" cy="119.593" r="3.22558" fill="#DEE8FF"/>
<circle cx="177.77" cy="119.593" r="3.22558" fill="#DEE8FF"/>
<circle cx="3.22558" cy="138.985" r="3.22558" fill="#DEE8FF"/>
<circle cx="22.6201" cy="138.985" r="3.22558" fill="#DEE8FF"/>
<circle cx="42.0127" cy="138.985" r="3.22558" fill="#DEE8FF"/>
<circle cx="61.4072" cy="138.985" r="3.22558" fill="#DEE8FF"/>
<circle cx="80.8018" cy="138.985" r="3.22558" fill="#DEE8FF"/>
<circle cx="100.194" cy="138.985" r="3.22558" fill="#DEE8FF"/>
<circle cx="119.589" cy="138.985" r="3.22558" fill="#DEE8FF"/>
<circle cx="138.983" cy="138.985" r="3.22558" fill="#DEE8FF"/>
<circle cx="158.378" cy="138.985" r="3.22558" fill="#DEE8FF"/>
<circle cx="177.77" cy="138.985" r="3.22558" fill="#DEE8FF"/>
<circle cx="3.22558" cy="158.38" r="3.22558" fill="#DEE8FF"/>
<circle cx="22.6201" cy="158.38" r="3.22558" fill="#DEE8FF"/>
<circle cx="42.0127" cy="158.38" r="3.22558" fill="#DEE8FF"/>
<circle cx="61.4072" cy="158.38" r="3.22558" fill="#DEE8FF"/>
<circle cx="80.8018" cy="158.38" r="3.22558" fill="#DEE8FF"/>
<circle cx="100.194" cy="158.38" r="3.22558" fill="#DEE8FF"/>
<circle cx="119.589" cy="158.38" r="3.22558" fill="#DEE8FF"/>
<circle cx="138.983" cy="158.38" r="3.22558" fill="#DEE8FF"/>
<circle cx="158.378" cy="158.38" r="3.22558" fill="#DEE8FF"/>
<circle cx="177.77" cy="158.38" r="3.22558" fill="#DEE8FF"/>
<circle cx="3.22558" cy="177.774" r="3.22558" fill="#DEE8FF"/>
<circle cx="22.6201" cy="177.774" r="3.22558" fill="#DEE8FF"/>
<circle cx="42.0127" cy="177.774" r="3.22558" fill="#DEE8FF"/>
<circle cx="61.4072" cy="177.774" r="3.22558" fill="#DEE8FF"/>
<circle cx="80.8018" cy="177.774" r="3.22558" fill="#DEE8FF"/>
<circle cx="100.194" cy="177.774" r="3.22558" fill="#DEE8FF"/>
<circle cx="119.589" cy="177.774" r="3.22558" fill="#DEE8FF"/>
<circle cx="138.983" cy="177.774" r="3.22558" fill="#DEE8FF"/>
<circle cx="158.378" cy="177.774" r="3.22558" fill="#DEE8FF"/>
<circle cx="177.77" cy="177.774" r="3.22558" fill="#DEE8FF"/>
</svg>
