<svg width="142" height="108" viewBox="0 0 142 108" fill="none" xmlns="http://www.w3.org/2000/svg">
<g opacity="0.2">
<path d="M-32.5488 -69.7744C-32.5488 -67.993 -33.993 -66.5488 -35.7744 -66.5488C-37.5559 -66.5488 -39 -67.993 -39 -69.7744C-39 -71.5559 -37.5559 -73 -35.7744 -73C-33.993 -73 -32.5488 -71.5559 -32.5488 -69.7744Z" fill="url(#paint0_linear_253_2125)"/>
<path d="M-13.1543 -69.7744C-13.1543 -67.993 -14.5985 -66.5488 -16.3799 -66.5488C-18.1613 -66.5488 -19.6055 -67.993 -19.6055 -69.7744C-19.6055 -71.5559 -18.1613 -73 -16.3799 -73C-14.5985 -73 -13.1543 -71.5559 -13.1543 -69.7744Z" fill="url(#paint1_linear_253_2125)"/>
<path d="M6.23826 -69.7744C6.23826 -67.993 4.79412 -66.5488 3.01268 -66.5488C1.23125 -66.5488 -0.212891 -67.993 -0.212891 -69.7744C-0.212891 -71.5559 1.23125 -73 3.01268 -73C4.79412 -73 6.23826 -71.5559 6.23826 -69.7744Z" fill="url(#paint2_linear_253_2125)"/>
<path d="M25.633 -69.7744C25.633 -67.993 24.1888 -66.5488 22.4074 -66.5488C20.6259 -66.5488 19.1818 -67.993 19.1818 -69.7744C19.1818 -71.5559 20.6259 -73 22.4074 -73C24.1888 -73 25.633 -71.5559 25.633 -69.7744Z" fill="url(#paint3_linear_253_2125)"/>
<path d="M45.0273 -69.7744C45.0273 -67.993 43.5832 -66.5488 41.8018 -66.5488C40.0203 -66.5488 38.5762 -67.993 38.5762 -69.7744C38.5762 -71.5559 40.0203 -73 41.8018 -73C43.5832 -73 45.0273 -71.5559 45.0273 -69.7744Z" fill="url(#paint4_linear_253_2125)"/>
<path d="M64.4199 -69.7744C64.4199 -67.993 62.9758 -66.5488 61.1943 -66.5488C59.4129 -66.5488 57.9688 -67.993 57.9688 -69.7744C57.9688 -71.5559 59.4129 -73 61.1943 -73C62.9758 -73 64.4199 -71.5559 64.4199 -69.7744Z" fill="url(#paint5_linear_253_2125)"/>
<path d="M83.8144 -69.7744C83.8144 -67.993 82.3703 -66.5488 80.5889 -66.5488C78.8074 -66.5488 77.3633 -67.993 77.3633 -69.7744C77.3633 -71.5559 78.8074 -73 80.5889 -73C82.3703 -73 83.8144 -71.5559 83.8144 -69.7744Z" fill="url(#paint6_linear_253_2125)"/>
<path d="M103.209 -69.7744C103.209 -67.993 101.765 -66.5488 99.9834 -66.5488C98.202 -66.5488 96.7578 -67.993 96.7578 -69.7744C96.7578 -71.5559 98.202 -73 99.9834 -73C101.765 -73 103.209 -71.5559 103.209 -69.7744Z" fill="url(#paint7_linear_253_2125)"/>
<path d="M122.604 -69.7744C122.604 -67.993 121.159 -66.5488 119.378 -66.5488C117.596 -66.5488 116.152 -67.993 116.152 -69.7744C116.152 -71.5559 117.596 -73 119.378 -73C121.159 -73 122.604 -71.5559 122.604 -69.7744Z" fill="url(#paint8_linear_253_2125)"/>
<path d="M141.996 -69.7744C141.996 -67.993 140.552 -66.5488 138.77 -66.5488C136.989 -66.5488 135.545 -67.993 135.545 -69.7744C135.545 -71.5559 136.989 -73 138.77 -73C140.552 -73 141.996 -71.5559 141.996 -69.7744Z" fill="url(#paint9_linear_253_2125)"/>
<path d="M-32.5488 -50.3801C-32.5488 -48.5987 -33.993 -47.1545 -35.7744 -47.1545C-37.5559 -47.1545 -39 -48.5987 -39 -50.3801C-39 -52.1615 -37.5559 -53.6057 -35.7744 -53.6057C-33.993 -53.6057 -32.5488 -52.1615 -32.5488 -50.3801Z" fill="url(#paint10_linear_253_2125)"/>
<path d="M-13.1543 -50.3801C-13.1543 -48.5987 -14.5985 -47.1545 -16.3799 -47.1545C-18.1613 -47.1545 -19.6055 -48.5987 -19.6055 -50.3801C-19.6055 -52.1615 -18.1613 -53.6057 -16.3799 -53.6057C-14.5985 -53.6057 -13.1543 -52.1615 -13.1543 -50.3801Z" fill="url(#paint11_linear_253_2125)"/>
<path d="M6.23826 -50.3801C6.23826 -48.5987 4.79412 -47.1545 3.01268 -47.1545C1.23125 -47.1545 -0.212891 -48.5987 -0.212891 -50.3801C-0.212891 -52.1615 1.23125 -53.6057 3.01268 -53.6057C4.79412 -53.6057 6.23826 -52.1615 6.23826 -50.3801Z" fill="url(#paint12_linear_253_2125)"/>
<path d="M25.633 -50.3801C25.633 -48.5987 24.1888 -47.1545 22.4074 -47.1545C20.6259 -47.1545 19.1818 -48.5987 19.1818 -50.3801C19.1818 -52.1615 20.6259 -53.6057 22.4074 -53.6057C24.1888 -53.6057 25.633 -52.1615 25.633 -50.3801Z" fill="url(#paint13_linear_253_2125)"/>
<path d="M45.0273 -50.3801C45.0273 -48.5987 43.5832 -47.1545 41.8018 -47.1545C40.0203 -47.1545 38.5762 -48.5987 38.5762 -50.3801C38.5762 -52.1615 40.0203 -53.6057 41.8018 -53.6057C43.5832 -53.6057 45.0273 -52.1615 45.0273 -50.3801Z" fill="url(#paint14_linear_253_2125)"/>
<path d="M64.4199 -50.3801C64.4199 -48.5987 62.9758 -47.1545 61.1943 -47.1545C59.4129 -47.1545 57.9688 -48.5987 57.9688 -50.3801C57.9688 -52.1615 59.4129 -53.6057 61.1943 -53.6057C62.9758 -53.6057 64.4199 -52.1615 64.4199 -50.3801Z" fill="url(#paint15_linear_253_2125)"/>
<path d="M83.8144 -50.3801C83.8144 -48.5987 82.3703 -47.1545 80.5889 -47.1545C78.8074 -47.1545 77.3633 -48.5987 77.3633 -50.3801C77.3633 -52.1615 78.8074 -53.6057 80.5889 -53.6057C82.3703 -53.6057 83.8144 -52.1615 83.8144 -50.3801Z" fill="url(#paint16_linear_253_2125)"/>
<path d="M103.209 -50.3801C103.209 -48.5987 101.765 -47.1545 99.9834 -47.1545C98.202 -47.1545 96.7578 -48.5987 96.7578 -50.3801C96.7578 -52.1615 98.202 -53.6057 99.9834 -53.6057C101.765 -53.6057 103.209 -52.1615 103.209 -50.3801Z" fill="url(#paint17_linear_253_2125)"/>
<path d="M122.604 -50.3801C122.604 -48.5987 121.159 -47.1545 119.378 -47.1545C117.596 -47.1545 116.152 -48.5987 116.152 -50.3801C116.152 -52.1615 117.596 -53.6057 119.378 -53.6057C121.159 -53.6057 122.604 -52.1615 122.604 -50.3801Z" fill="url(#paint18_linear_253_2125)"/>
<path d="M141.996 -50.3801C141.996 -48.5987 140.552 -47.1545 138.77 -47.1545C136.989 -47.1545 135.545 -48.5987 135.545 -50.3801C135.545 -52.1615 136.989 -53.6057 138.77 -53.6057C140.552 -53.6057 141.996 -52.1615 141.996 -50.3801Z" fill="url(#paint19_linear_253_2125)"/>
<path d="M-32.5488 -30.9858C-32.5488 -29.2043 -33.993 -27.7602 -35.7744 -27.7602C-37.5559 -27.7602 -39 -29.2043 -39 -30.9858C-39 -32.7672 -37.5559 -34.2113 -35.7744 -34.2113C-33.993 -34.2113 -32.5488 -32.7672 -32.5488 -30.9858Z" fill="url(#paint20_linear_253_2125)"/>
<path d="M-13.1543 -30.9858C-13.1543 -29.2043 -14.5985 -27.7602 -16.3799 -27.7602C-18.1613 -27.7602 -19.6055 -29.2043 -19.6055 -30.9858C-19.6055 -32.7672 -18.1613 -34.2113 -16.3799 -34.2113C-14.5985 -34.2113 -13.1543 -32.7672 -13.1543 -30.9858Z" fill="url(#paint21_linear_253_2125)"/>
<path d="M6.23826 -30.9858C6.23826 -29.2043 4.79412 -27.7602 3.01268 -27.7602C1.23125 -27.7602 -0.212891 -29.2043 -0.212891 -30.9858C-0.212891 -32.7672 1.23125 -34.2113 3.01268 -34.2113C4.79412 -34.2113 6.23826 -32.7672 6.23826 -30.9858Z" fill="url(#paint22_linear_253_2125)"/>
<path d="M25.633 -30.9858C25.633 -29.2043 24.1888 -27.7602 22.4074 -27.7602C20.6259 -27.7602 19.1818 -29.2043 19.1818 -30.9858C19.1818 -32.7672 20.6259 -34.2113 22.4074 -34.2113C24.1888 -34.2113 25.633 -32.7672 25.633 -30.9858Z" fill="url(#paint23_linear_253_2125)"/>
<path d="M45.0273 -30.9858C45.0273 -29.2043 43.5832 -27.7602 41.8018 -27.7602C40.0203 -27.7602 38.5762 -29.2043 38.5762 -30.9858C38.5762 -32.7672 40.0203 -34.2113 41.8018 -34.2113C43.5832 -34.2113 45.0273 -32.7672 45.0273 -30.9858Z" fill="url(#paint24_linear_253_2125)"/>
<path d="M64.4199 -30.9858C64.4199 -29.2043 62.9758 -27.7602 61.1943 -27.7602C59.4129 -27.7602 57.9688 -29.2043 57.9688 -30.9858C57.9688 -32.7672 59.4129 -34.2113 61.1943 -34.2113C62.9758 -34.2113 64.4199 -32.7672 64.4199 -30.9858Z" fill="url(#paint25_linear_253_2125)"/>
<path d="M83.8144 -30.9858C83.8144 -29.2043 82.3703 -27.7602 80.5889 -27.7602C78.8074 -27.7602 77.3633 -29.2043 77.3633 -30.9858C77.3633 -32.7672 78.8074 -34.2113 80.5889 -34.2113C82.3703 -34.2113 83.8144 -32.7672 83.8144 -30.9858Z" fill="url(#paint26_linear_253_2125)"/>
<path d="M103.209 -30.9858C103.209 -29.2043 101.765 -27.7602 99.9834 -27.7602C98.202 -27.7602 96.7578 -29.2043 96.7578 -30.9858C96.7578 -32.7672 98.202 -34.2113 99.9834 -34.2113C101.765 -34.2113 103.209 -32.7672 103.209 -30.9858Z" fill="url(#paint27_linear_253_2125)"/>
<path d="M122.604 -30.9858C122.604 -29.2043 121.159 -27.7602 119.378 -27.7602C117.596 -27.7602 116.152 -29.2043 116.152 -30.9858C116.152 -32.7672 117.596 -34.2113 119.378 -34.2113C121.159 -34.2113 122.604 -32.7672 122.604 -30.9858Z" fill="url(#paint28_linear_253_2125)"/>
<path d="M141.996 -30.9858C141.996 -29.2043 140.552 -27.7602 138.77 -27.7602C136.989 -27.7602 135.545 -29.2043 135.545 -30.9858C135.545 -32.7672 136.989 -34.2113 138.77 -34.2113C140.552 -34.2113 141.996 -32.7672 141.996 -30.9858Z" fill="url(#paint29_linear_253_2125)"/>
<path d="M-32.5488 -11.5914C-32.5488 -9.81 -33.993 -8.36586 -35.7744 -8.36586C-37.5559 -8.36586 -39 -9.81 -39 -11.5914C-39 -13.3729 -37.5559 -14.817 -35.7744 -14.817C-33.993 -14.817 -32.5488 -13.3729 -32.5488 -11.5914Z" fill="url(#paint30_linear_253_2125)"/>
<path d="M-13.1543 -11.5914C-13.1543 -9.81001 -14.5985 -8.36587 -16.3799 -8.36587C-18.1613 -8.36587 -19.6055 -9.81001 -19.6055 -11.5914C-19.6055 -13.3729 -18.1613 -14.817 -16.3799 -14.817C-14.5985 -14.817 -13.1543 -13.3729 -13.1543 -11.5914Z" fill="url(#paint31_linear_253_2125)"/>
<path d="M6.23826 -11.5914C6.23826 -9.81001 4.79412 -8.36587 3.01268 -8.36587C1.23125 -8.36587 -0.212891 -9.81001 -0.212891 -11.5914C-0.212891 -13.3729 1.23125 -14.817 3.01268 -14.817C4.79412 -14.817 6.23826 -13.3729 6.23826 -11.5914Z" fill="url(#paint32_linear_253_2125)"/>
<path d="M25.633 -11.5914C25.633 -9.81 24.1888 -8.36586 22.4074 -8.36586C20.6259 -8.36586 19.1818 -9.81 19.1818 -11.5914C19.1818 -13.3729 20.6259 -14.817 22.4074 -14.817C24.1888 -14.817 25.633 -13.3729 25.633 -11.5914Z" fill="url(#paint33_linear_253_2125)"/>
<path d="M45.0273 -11.5914C45.0273 -9.81001 43.5832 -8.36587 41.8018 -8.36587C40.0203 -8.36587 38.5762 -9.81001 38.5762 -11.5914C38.5762 -13.3729 40.0203 -14.817 41.8018 -14.817C43.5832 -14.817 45.0273 -13.3729 45.0273 -11.5914Z" fill="url(#paint34_linear_253_2125)"/>
<path d="M64.4199 -11.5914C64.4199 -9.81001 62.9758 -8.36587 61.1943 -8.36587C59.4129 -8.36587 57.9688 -9.81001 57.9688 -11.5914C57.9688 -13.3729 59.4129 -14.817 61.1943 -14.817C62.9758 -14.817 64.4199 -13.3729 64.4199 -11.5914Z" fill="url(#paint35_linear_253_2125)"/>
<path d="M83.8144 -11.5914C83.8144 -9.81001 82.3703 -8.36587 80.5889 -8.36587C78.8074 -8.36587 77.3633 -9.81001 77.3633 -11.5914C77.3633 -13.3729 78.8074 -14.817 80.5889 -14.817C82.3703 -14.817 83.8144 -13.3729 83.8144 -11.5914Z" fill="url(#paint36_linear_253_2125)"/>
<path d="M103.209 -11.5914C103.209 -9.81001 101.765 -8.36587 99.9834 -8.36587C98.202 -8.36587 96.7578 -9.81001 96.7578 -11.5914C96.7578 -13.3729 98.202 -14.817 99.9834 -14.817C101.765 -14.817 103.209 -13.3729 103.209 -11.5914Z" fill="url(#paint37_linear_253_2125)"/>
<path d="M122.604 -11.5914C122.604 -9.81001 121.159 -8.36587 119.378 -8.36587C117.596 -8.36587 116.152 -9.81001 116.152 -11.5914C116.152 -13.3729 117.596 -14.817 119.378 -14.817C121.159 -14.817 122.604 -13.3729 122.604 -11.5914Z" fill="url(#paint38_linear_253_2125)"/>
<path d="M141.996 -11.5914C141.996 -9.81001 140.552 -8.36587 138.77 -8.36587C136.989 -8.36587 135.545 -9.81001 135.545 -11.5914C135.545 -13.3729 136.989 -14.817 138.77 -14.817C140.552 -14.817 141.996 -13.3729 141.996 -11.5914Z" fill="url(#paint39_linear_253_2125)"/>
<path d="M-32.5488 7.8029C-32.5488 9.58434 -33.993 11.0285 -35.7744 11.0285C-37.5559 11.0285 -39 9.58434 -39 7.8029C-39 6.02147 -37.5559 4.57732 -35.7744 4.57732C-33.993 4.57732 -32.5488 6.02147 -32.5488 7.8029Z" fill="url(#paint40_linear_253_2125)"/>
<path d="M-13.1543 7.80291C-13.1543 9.58434 -14.5985 11.0285 -16.3799 11.0285C-18.1613 11.0285 -19.6055 9.58434 -19.6055 7.80291C-19.6055 6.02148 -18.1613 4.57733 -16.3799 4.57733C-14.5985 4.57733 -13.1543 6.02148 -13.1543 7.80291Z" fill="url(#paint41_linear_253_2125)"/>
<path d="M6.23826 7.80291C6.23826 9.58434 4.79412 11.0285 3.01268 11.0285C1.23125 11.0285 -0.212891 9.58434 -0.212891 7.80291C-0.212891 6.02148 1.23125 4.57733 3.01268 4.57733C4.79412 4.57733 6.23826 6.02148 6.23826 7.80291Z" fill="url(#paint42_linear_253_2125)"/>
<path d="M25.633 7.8029C25.633 9.58434 24.1888 11.0285 22.4074 11.0285C20.6259 11.0285 19.1818 9.58434 19.1818 7.8029C19.1818 6.02147 20.6259 4.57732 22.4074 4.57732C24.1888 4.57732 25.633 6.02147 25.633 7.8029Z" fill="url(#paint43_linear_253_2125)"/>
<path d="M45.0273 7.80291C45.0273 9.58434 43.5832 11.0285 41.8018 11.0285C40.0203 11.0285 38.5762 9.58434 38.5762 7.80291C38.5762 6.02148 40.0203 4.57733 41.8018 4.57733C43.5832 4.57733 45.0273 6.02148 45.0273 7.80291Z" fill="url(#paint44_linear_253_2125)"/>
<path d="M64.4199 7.80291C64.4199 9.58434 62.9758 11.0285 61.1943 11.0285C59.4129 11.0285 57.9688 9.58434 57.9688 7.80291C57.9688 6.02148 59.4129 4.57733 61.1943 4.57733C62.9758 4.57733 64.4199 6.02148 64.4199 7.80291Z" fill="url(#paint45_linear_253_2125)"/>
<path d="M83.8144 7.80291C83.8144 9.58434 82.3703 11.0285 80.5889 11.0285C78.8074 11.0285 77.3633 9.58434 77.3633 7.80291C77.3633 6.02148 78.8074 4.57733 80.5889 4.57733C82.3703 4.57733 83.8144 6.02148 83.8144 7.80291Z" fill="url(#paint46_linear_253_2125)"/>
<path d="M103.209 7.80291C103.209 9.58434 101.765 11.0285 99.9834 11.0285C98.202 11.0285 96.7578 9.58434 96.7578 7.80291C96.7578 6.02148 98.202 4.57733 99.9834 4.57733C101.765 4.57733 103.209 6.02148 103.209 7.80291Z" fill="url(#paint47_linear_253_2125)"/>
<path d="M122.604 7.80291C122.604 9.58434 121.159 11.0285 119.378 11.0285C117.596 11.0285 116.152 9.58434 116.152 7.80291C116.152 6.02148 117.596 4.57733 119.378 4.57733C121.159 4.57733 122.604 6.02148 122.604 7.80291Z" fill="url(#paint48_linear_253_2125)"/>
<path d="M141.996 7.80291C141.996 9.58434 140.552 11.0285 138.77 11.0285C136.989 11.0285 135.545 9.58434 135.545 7.80291C135.545 6.02148 136.989 4.57733 138.77 4.57733C140.552 4.57733 141.996 6.02148 141.996 7.80291Z" fill="url(#paint49_linear_253_2125)"/>
<path d="M-32.5488 27.1972C-32.5488 28.9787 -33.993 30.4228 -35.7744 30.4228C-37.5559 30.4228 -39 28.9787 -39 27.1972C-39 25.4158 -37.5559 23.9716 -35.7744 23.9716C-33.993 23.9716 -32.5488 25.4158 -32.5488 27.1972Z" fill="url(#paint50_linear_253_2125)"/>
<path d="M-13.1543 27.1972C-13.1543 28.9787 -14.5985 30.4228 -16.3799 30.4228C-18.1613 30.4228 -19.6055 28.9787 -19.6055 27.1972C-19.6055 25.4158 -18.1613 23.9716 -16.3799 23.9716C-14.5985 23.9716 -13.1543 25.4158 -13.1543 27.1972Z" fill="url(#paint51_linear_253_2125)"/>
<path d="M6.23826 27.1972C6.23826 28.9787 4.79412 30.4228 3.01268 30.4228C1.23125 30.4228 -0.212891 28.9787 -0.212891 27.1972C-0.212891 25.4158 1.23125 23.9716 3.01268 23.9716C4.79412 23.9716 6.23826 25.4158 6.23826 27.1972Z" fill="url(#paint52_linear_253_2125)"/>
<path d="M25.633 27.1972C25.633 28.9787 24.1888 30.4228 22.4074 30.4228C20.6259 30.4228 19.1818 28.9787 19.1818 27.1972C19.1818 25.4158 20.6259 23.9716 22.4074 23.9716C24.1888 23.9716 25.633 25.4158 25.633 27.1972Z" fill="url(#paint53_linear_253_2125)"/>
<path d="M45.0273 27.1972C45.0273 28.9787 43.5832 30.4228 41.8018 30.4228C40.0203 30.4228 38.5762 28.9787 38.5762 27.1972C38.5762 25.4158 40.0203 23.9716 41.8018 23.9716C43.5832 23.9716 45.0273 25.4158 45.0273 27.1972Z" fill="url(#paint54_linear_253_2125)"/>
<path d="M64.4199 27.1972C64.4199 28.9787 62.9758 30.4228 61.1943 30.4228C59.4129 30.4228 57.9688 28.9787 57.9688 27.1972C57.9688 25.4158 59.4129 23.9716 61.1943 23.9716C62.9758 23.9716 64.4199 25.4158 64.4199 27.1972Z" fill="url(#paint55_linear_253_2125)"/>
<path d="M83.8144 27.1972C83.8144 28.9787 82.3703 30.4228 80.5889 30.4228C78.8074 30.4228 77.3633 28.9787 77.3633 27.1972C77.3633 25.4158 78.8074 23.9716 80.5889 23.9716C82.3703 23.9716 83.8144 25.4158 83.8144 27.1972Z" fill="url(#paint56_linear_253_2125)"/>
<path d="M103.209 27.1972C103.209 28.9787 101.765 30.4228 99.9834 30.4228C98.202 30.4228 96.7578 28.9787 96.7578 27.1972C96.7578 25.4158 98.202 23.9716 99.9834 23.9716C101.765 23.9716 103.209 25.4158 103.209 27.1972Z" fill="url(#paint57_linear_253_2125)"/>
<path d="M122.604 27.1972C122.604 28.9787 121.159 30.4228 119.378 30.4228C117.596 30.4228 116.152 28.9787 116.152 27.1972C116.152 25.4158 117.596 23.9716 119.378 23.9716C121.159 23.9716 122.604 25.4158 122.604 27.1972Z" fill="url(#paint58_linear_253_2125)"/>
<path d="M141.996 27.1972C141.996 28.9787 140.552 30.4228 138.77 30.4228C136.989 30.4228 135.545 28.9787 135.545 27.1972C135.545 25.4158 136.989 23.9716 138.77 23.9716C140.552 23.9716 141.996 25.4158 141.996 27.1972Z" fill="url(#paint59_linear_253_2125)"/>
<path d="M-32.5488 46.5916C-32.5488 48.373 -33.993 49.8171 -35.7744 49.8171C-37.5559 49.8171 -39 48.373 -39 46.5916C-39 44.8101 -37.5559 43.366 -35.7744 43.366C-33.993 43.366 -32.5488 44.8101 -32.5488 46.5916Z" fill="url(#paint60_linear_253_2125)"/>
<path d="M-13.1543 46.5915C-13.1543 48.373 -14.5985 49.8171 -16.3799 49.8171C-18.1613 49.8171 -19.6055 48.373 -19.6055 46.5915C-19.6055 44.8101 -18.1613 43.366 -16.3799 43.366C-14.5985 43.366 -13.1543 44.8101 -13.1543 46.5915Z" fill="url(#paint61_linear_253_2125)"/>
<path d="M6.23826 46.5915C6.23826 48.373 4.79412 49.8171 3.01268 49.8171C1.23125 49.8171 -0.212891 48.373 -0.212891 46.5915C-0.212891 44.8101 1.23125 43.366 3.01268 43.366C4.79412 43.366 6.23826 44.8101 6.23826 46.5915Z" fill="url(#paint62_linear_253_2125)"/>
<path d="M25.633 46.5916C25.633 48.373 24.1888 49.8171 22.4074 49.8171C20.6259 49.8171 19.1818 48.373 19.1818 46.5916C19.1818 44.8101 20.6259 43.366 22.4074 43.366C24.1888 43.366 25.633 44.8101 25.633 46.5916Z" fill="url(#paint63_linear_253_2125)"/>
<path d="M45.0273 46.5915C45.0273 48.373 43.5832 49.8171 41.8018 49.8171C40.0203 49.8171 38.5762 48.373 38.5762 46.5915C38.5762 44.8101 40.0203 43.366 41.8018 43.366C43.5832 43.366 45.0273 44.8101 45.0273 46.5915Z" fill="url(#paint64_linear_253_2125)"/>
<path d="M64.4199 46.5915C64.4199 48.373 62.9758 49.8171 61.1943 49.8171C59.4129 49.8171 57.9688 48.373 57.9688 46.5915C57.9688 44.8101 59.4129 43.366 61.1943 43.366C62.9758 43.366 64.4199 44.8101 64.4199 46.5915Z" fill="url(#paint65_linear_253_2125)"/>
<path d="M83.8144 46.5915C83.8144 48.373 82.3703 49.8171 80.5889 49.8171C78.8074 49.8171 77.3633 48.373 77.3633 46.5915C77.3633 44.8101 78.8074 43.366 80.5889 43.366C82.3703 43.366 83.8144 44.8101 83.8144 46.5915Z" fill="url(#paint66_linear_253_2125)"/>
<path d="M-32.5488 65.9859C-32.5488 67.7673 -33.993 69.2115 -35.7744 69.2115C-37.5559 69.2115 -39 67.7673 -39 65.9859C-39 64.2045 -37.5559 62.7603 -35.7744 62.7603C-33.993 62.7603 -32.5488 64.2045 -32.5488 65.9859Z" fill="url(#paint67_linear_253_2125)"/>
<path d="M-13.1543 65.9859C-13.1543 67.7673 -14.5985 69.2115 -16.3799 69.2115C-18.1613 69.2115 -19.6055 67.7673 -19.6055 65.9859C-19.6055 64.2045 -18.1613 62.7603 -16.3799 62.7603C-14.5985 62.7603 -13.1543 64.2045 -13.1543 65.9859Z" fill="url(#paint68_linear_253_2125)"/>
<path d="M6.23826 65.9859C6.23826 67.7673 4.79412 69.2115 3.01268 69.2115C1.23125 69.2115 -0.212891 67.7673 -0.212891 65.9859C-0.212891 64.2045 1.23125 62.7603 3.01268 62.7603C4.79412 62.7603 6.23826 64.2045 6.23826 65.9859Z" fill="url(#paint69_linear_253_2125)"/>
<path d="M25.633 65.9859C25.633 67.7673 24.1888 69.2115 22.4074 69.2115C20.6259 69.2115 19.1818 67.7673 19.1818 65.9859C19.1818 64.2045 20.6259 62.7603 22.4074 62.7603C24.1888 62.7603 25.633 64.2045 25.633 65.9859Z" fill="url(#paint70_linear_253_2125)"/>
<path d="M45.0273 65.9859C45.0273 67.7673 43.5832 69.2115 41.8018 69.2115C40.0203 69.2115 38.5762 67.7673 38.5762 65.9859C38.5762 64.2045 40.0203 62.7603 41.8018 62.7603C43.5832 62.7603 45.0273 64.2045 45.0273 65.9859Z" fill="url(#paint71_linear_253_2125)"/>
<path d="M64.4199 65.9859C64.4199 67.7673 62.9758 69.2115 61.1943 69.2115C59.4129 69.2115 57.9688 67.7673 57.9688 65.9859C57.9688 64.2045 59.4129 62.7603 61.1943 62.7603C62.9758 62.7603 64.4199 64.2045 64.4199 65.9859Z" fill="url(#paint72_linear_253_2125)"/>
<path d="M83.8144 65.9859C83.8144 67.7673 82.3703 69.2115 80.5889 69.2115C78.8074 69.2115 77.3633 67.7673 77.3633 65.9859C77.3633 64.2045 78.8074 62.7603 80.5889 62.7603C82.3703 62.7603 83.8144 64.2045 83.8144 65.9859Z" fill="url(#paint73_linear_253_2125)"/>
<path d="M-32.5488 85.3802C-32.5488 87.1617 -33.993 88.6058 -35.7744 88.6058C-37.5559 88.6058 -39 87.1617 -39 85.3802C-39 83.5988 -37.5559 82.1546 -35.7744 82.1546C-33.993 82.1546 -32.5488 83.5988 -32.5488 85.3802Z" fill="url(#paint74_linear_253_2125)"/>
<path d="M-13.1543 85.3802C-13.1543 87.1617 -14.5985 88.6058 -16.3799 88.6058C-18.1613 88.6058 -19.6055 87.1617 -19.6055 85.3802C-19.6055 83.5988 -18.1613 82.1547 -16.3799 82.1547C-14.5985 82.1547 -13.1543 83.5988 -13.1543 85.3802Z" fill="url(#paint75_linear_253_2125)"/>
<path d="M6.23826 85.3802C6.23826 87.1617 4.79412 88.6058 3.01268 88.6058C1.23125 88.6058 -0.212891 87.1617 -0.212891 85.3802C-0.212891 83.5988 1.23125 82.1547 3.01268 82.1547C4.79412 82.1547 6.23826 83.5988 6.23826 85.3802Z" fill="url(#paint76_linear_253_2125)"/>
<path d="M25.633 85.3802C25.633 87.1617 24.1888 88.6058 22.4074 88.6058C20.6259 88.6058 19.1818 87.1617 19.1818 85.3802C19.1818 83.5988 20.6259 82.1546 22.4074 82.1546C24.1888 82.1546 25.633 83.5988 25.633 85.3802Z" fill="url(#paint77_linear_253_2125)"/>
<path d="M45.0273 85.3802C45.0273 87.1617 43.5832 88.6058 41.8018 88.6058C40.0203 88.6058 38.5762 87.1617 38.5762 85.3802C38.5762 83.5988 40.0203 82.1547 41.8018 82.1547C43.5832 82.1547 45.0273 83.5988 45.0273 85.3802Z" fill="url(#paint78_linear_253_2125)"/>
<path d="M64.4199 85.3802C64.4199 87.1617 62.9758 88.6058 61.1943 88.6058C59.4129 88.6058 57.9688 87.1617 57.9688 85.3802C57.9688 83.5988 59.4129 82.1547 61.1943 82.1547C62.9758 82.1547 64.4199 83.5988 64.4199 85.3802Z" fill="url(#paint79_linear_253_2125)"/>
<path d="M-32.5488 104.775C-32.5488 106.556 -33.993 108 -35.7744 108C-37.5559 108 -39 106.556 -39 104.775C-39 102.993 -37.5559 101.549 -35.7744 101.549C-33.993 101.549 -32.5488 102.993 -32.5488 104.775Z" fill="url(#paint80_linear_253_2125)"/>
<path d="M-13.1543 104.775C-13.1543 106.556 -14.5985 108 -16.3799 108C-18.1613 108 -19.6055 106.556 -19.6055 104.775C-19.6055 102.993 -18.1613 101.549 -16.3799 101.549C-14.5985 101.549 -13.1543 102.993 -13.1543 104.775Z" fill="url(#paint81_linear_253_2125)"/>
<path d="M6.23826 104.775C6.23826 106.556 4.79412 108 3.01268 108C1.23125 108 -0.212891 106.556 -0.212891 104.775C-0.212891 102.993 1.23125 101.549 3.01268 101.549C4.79412 101.549 6.23826 102.993 6.23826 104.775Z" fill="url(#paint82_linear_253_2125)"/>
<path d="M25.633 104.775C25.633 106.556 24.1888 108 22.4074 108C20.6259 108 19.1818 106.556 19.1818 104.775C19.1818 102.993 20.6259 101.549 22.4074 101.549C24.1888 101.549 25.633 102.993 25.633 104.775Z" fill="url(#paint83_linear_253_2125)"/>
</g>
<defs>
<linearGradient id="paint0_linear_253_2125" x1="-39" y1="-73" x2="142" y2="108" gradientUnits="userSpaceOnUse">
<stop stop-color="#445E9C" stop-opacity="0"/>
<stop offset="1" stop-color="#445E9C"/>
</linearGradient>
<linearGradient id="paint1_linear_253_2125" x1="-39" y1="-73" x2="142" y2="108" gradientUnits="userSpaceOnUse">
<stop stop-color="#445E9C" stop-opacity="0"/>
<stop offset="1" stop-color="#445E9C"/>
</linearGradient>
<linearGradient id="paint2_linear_253_2125" x1="-39" y1="-73" x2="142" y2="108" gradientUnits="userSpaceOnUse">
<stop stop-color="#445E9C" stop-opacity="0"/>
<stop offset="1" stop-color="#445E9C"/>
</linearGradient>
<linearGradient id="paint3_linear_253_2125" x1="-39" y1="-73" x2="142" y2="108" gradientUnits="userSpaceOnUse">
<stop stop-color="#445E9C" stop-opacity="0"/>
<stop offset="1" stop-color="#445E9C"/>
</linearGradient>
<linearGradient id="paint4_linear_253_2125" x1="-39" y1="-73" x2="142" y2="108" gradientUnits="userSpaceOnUse">
<stop stop-color="#445E9C" stop-opacity="0"/>
<stop offset="1" stop-color="#445E9C"/>
</linearGradient>
<linearGradient id="paint5_linear_253_2125" x1="-39" y1="-73" x2="142" y2="108" gradientUnits="userSpaceOnUse">
<stop stop-color="#445E9C" stop-opacity="0"/>
<stop offset="1" stop-color="#445E9C"/>
</linearGradient>
<linearGradient id="paint6_linear_253_2125" x1="-39" y1="-73" x2="142" y2="108" gradientUnits="userSpaceOnUse">
<stop stop-color="#445E9C" stop-opacity="0"/>
<stop offset="1" stop-color="#445E9C"/>
</linearGradient>
<linearGradient id="paint7_linear_253_2125" x1="-39" y1="-73" x2="142" y2="108" gradientUnits="userSpaceOnUse">
<stop stop-color="#445E9C" stop-opacity="0"/>
<stop offset="1" stop-color="#445E9C"/>
</linearGradient>
<linearGradient id="paint8_linear_253_2125" x1="-39" y1="-73" x2="142" y2="108" gradientUnits="userSpaceOnUse">
<stop stop-color="#445E9C" stop-opacity="0"/>
<stop offset="1" stop-color="#445E9C"/>
</linearGradient>
<linearGradient id="paint9_linear_253_2125" x1="-39" y1="-73" x2="142" y2="108" gradientUnits="userSpaceOnUse">
<stop stop-color="#445E9C" stop-opacity="0"/>
<stop offset="1" stop-color="#445E9C"/>
</linearGradient>
<linearGradient id="paint10_linear_253_2125" x1="-39" y1="-73" x2="142" y2="108" gradientUnits="userSpaceOnUse">
<stop stop-color="#445E9C" stop-opacity="0"/>
<stop offset="1" stop-color="#445E9C"/>
</linearGradient>
<linearGradient id="paint11_linear_253_2125" x1="-39" y1="-73" x2="142" y2="108" gradientUnits="userSpaceOnUse">
<stop stop-color="#445E9C" stop-opacity="0"/>
<stop offset="1" stop-color="#445E9C"/>
</linearGradient>
<linearGradient id="paint12_linear_253_2125" x1="-39" y1="-73" x2="142" y2="108" gradientUnits="userSpaceOnUse">
<stop stop-color="#445E9C" stop-opacity="0"/>
<stop offset="1" stop-color="#445E9C"/>
</linearGradient>
<linearGradient id="paint13_linear_253_2125" x1="-39" y1="-73" x2="142" y2="108" gradientUnits="userSpaceOnUse">
<stop stop-color="#445E9C" stop-opacity="0"/>
<stop offset="1" stop-color="#445E9C"/>
</linearGradient>
<linearGradient id="paint14_linear_253_2125" x1="-39" y1="-73" x2="142" y2="108" gradientUnits="userSpaceOnUse">
<stop stop-color="#445E9C" stop-opacity="0"/>
<stop offset="1" stop-color="#445E9C"/>
</linearGradient>
<linearGradient id="paint15_linear_253_2125" x1="-39" y1="-73" x2="142" y2="108" gradientUnits="userSpaceOnUse">
<stop stop-color="#445E9C" stop-opacity="0"/>
<stop offset="1" stop-color="#445E9C"/>
</linearGradient>
<linearGradient id="paint16_linear_253_2125" x1="-39" y1="-73" x2="142" y2="108" gradientUnits="userSpaceOnUse">
<stop stop-color="#445E9C" stop-opacity="0"/>
<stop offset="1" stop-color="#445E9C"/>
</linearGradient>
<linearGradient id="paint17_linear_253_2125" x1="-39" y1="-73" x2="142" y2="108" gradientUnits="userSpaceOnUse">
<stop stop-color="#445E9C" stop-opacity="0"/>
<stop offset="1" stop-color="#445E9C"/>
</linearGradient>
<linearGradient id="paint18_linear_253_2125" x1="-39" y1="-73" x2="142" y2="108" gradientUnits="userSpaceOnUse">
<stop stop-color="#445E9C" stop-opacity="0"/>
<stop offset="1" stop-color="#445E9C"/>
</linearGradient>
<linearGradient id="paint19_linear_253_2125" x1="-39" y1="-73" x2="142" y2="108" gradientUnits="userSpaceOnUse">
<stop stop-color="#445E9C" stop-opacity="0"/>
<stop offset="1" stop-color="#445E9C"/>
</linearGradient>
<linearGradient id="paint20_linear_253_2125" x1="-39" y1="-73" x2="142" y2="108" gradientUnits="userSpaceOnUse">
<stop stop-color="#445E9C" stop-opacity="0"/>
<stop offset="1" stop-color="#445E9C"/>
</linearGradient>
<linearGradient id="paint21_linear_253_2125" x1="-39" y1="-73" x2="142" y2="108" gradientUnits="userSpaceOnUse">
<stop stop-color="#445E9C" stop-opacity="0"/>
<stop offset="1" stop-color="#445E9C"/>
</linearGradient>
<linearGradient id="paint22_linear_253_2125" x1="-39" y1="-73" x2="142" y2="108" gradientUnits="userSpaceOnUse">
<stop stop-color="#445E9C" stop-opacity="0"/>
<stop offset="1" stop-color="#445E9C"/>
</linearGradient>
<linearGradient id="paint23_linear_253_2125" x1="-39" y1="-73" x2="142" y2="108" gradientUnits="userSpaceOnUse">
<stop stop-color="#445E9C" stop-opacity="0"/>
<stop offset="1" stop-color="#445E9C"/>
</linearGradient>
<linearGradient id="paint24_linear_253_2125" x1="-39" y1="-73" x2="142" y2="108" gradientUnits="userSpaceOnUse">
<stop stop-color="#445E9C" stop-opacity="0"/>
<stop offset="1" stop-color="#445E9C"/>
</linearGradient>
<linearGradient id="paint25_linear_253_2125" x1="-39" y1="-73" x2="142" y2="108" gradientUnits="userSpaceOnUse">
<stop stop-color="#445E9C" stop-opacity="0"/>
<stop offset="1" stop-color="#445E9C"/>
</linearGradient>
<linearGradient id="paint26_linear_253_2125" x1="-39" y1="-73" x2="142" y2="108" gradientUnits="userSpaceOnUse">
<stop stop-color="#445E9C" stop-opacity="0"/>
<stop offset="1" stop-color="#445E9C"/>
</linearGradient>
<linearGradient id="paint27_linear_253_2125" x1="-39" y1="-73" x2="142" y2="108" gradientUnits="userSpaceOnUse">
<stop stop-color="#445E9C" stop-opacity="0"/>
<stop offset="1" stop-color="#445E9C"/>
</linearGradient>
<linearGradient id="paint28_linear_253_2125" x1="-39" y1="-73" x2="142" y2="108" gradientUnits="userSpaceOnUse">
<stop stop-color="#445E9C" stop-opacity="0"/>
<stop offset="1" stop-color="#445E9C"/>
</linearGradient>
<linearGradient id="paint29_linear_253_2125" x1="-39" y1="-73" x2="142" y2="108" gradientUnits="userSpaceOnUse">
<stop stop-color="#445E9C" stop-opacity="0"/>
<stop offset="1" stop-color="#445E9C"/>
</linearGradient>
<linearGradient id="paint30_linear_253_2125" x1="-39" y1="-73" x2="142" y2="108" gradientUnits="userSpaceOnUse">
<stop stop-color="#445E9C" stop-opacity="0"/>
<stop offset="1" stop-color="#445E9C"/>
</linearGradient>
<linearGradient id="paint31_linear_253_2125" x1="-39" y1="-73" x2="142" y2="108" gradientUnits="userSpaceOnUse">
<stop stop-color="#445E9C" stop-opacity="0"/>
<stop offset="1" stop-color="#445E9C"/>
</linearGradient>
<linearGradient id="paint32_linear_253_2125" x1="-39" y1="-73" x2="142" y2="108" gradientUnits="userSpaceOnUse">
<stop stop-color="#445E9C" stop-opacity="0"/>
<stop offset="1" stop-color="#445E9C"/>
</linearGradient>
<linearGradient id="paint33_linear_253_2125" x1="-39" y1="-73" x2="142" y2="108" gradientUnits="userSpaceOnUse">
<stop stop-color="#445E9C" stop-opacity="0"/>
<stop offset="1" stop-color="#445E9C"/>
</linearGradient>
<linearGradient id="paint34_linear_253_2125" x1="-39" y1="-73" x2="142" y2="108" gradientUnits="userSpaceOnUse">
<stop stop-color="#445E9C" stop-opacity="0"/>
<stop offset="1" stop-color="#445E9C"/>
</linearGradient>
<linearGradient id="paint35_linear_253_2125" x1="-39" y1="-73" x2="142" y2="108" gradientUnits="userSpaceOnUse">
<stop stop-color="#445E9C" stop-opacity="0"/>
<stop offset="1" stop-color="#445E9C"/>
</linearGradient>
<linearGradient id="paint36_linear_253_2125" x1="-39" y1="-73" x2="142" y2="108" gradientUnits="userSpaceOnUse">
<stop stop-color="#445E9C" stop-opacity="0"/>
<stop offset="1" stop-color="#445E9C"/>
</linearGradient>
<linearGradient id="paint37_linear_253_2125" x1="-39" y1="-73" x2="142" y2="108" gradientUnits="userSpaceOnUse">
<stop stop-color="#445E9C" stop-opacity="0"/>
<stop offset="1" stop-color="#445E9C"/>
</linearGradient>
<linearGradient id="paint38_linear_253_2125" x1="-39" y1="-73" x2="142" y2="108" gradientUnits="userSpaceOnUse">
<stop stop-color="#445E9C" stop-opacity="0"/>
<stop offset="1" stop-color="#445E9C"/>
</linearGradient>
<linearGradient id="paint39_linear_253_2125" x1="-39" y1="-73" x2="142" y2="108" gradientUnits="userSpaceOnUse">
<stop stop-color="#445E9C" stop-opacity="0"/>
<stop offset="1" stop-color="#445E9C"/>
</linearGradient>
<linearGradient id="paint40_linear_253_2125" x1="-39" y1="-73" x2="142" y2="108" gradientUnits="userSpaceOnUse">
<stop stop-color="#445E9C" stop-opacity="0"/>
<stop offset="1" stop-color="#445E9C"/>
</linearGradient>
<linearGradient id="paint41_linear_253_2125" x1="-39" y1="-73" x2="142" y2="108" gradientUnits="userSpaceOnUse">
<stop stop-color="#445E9C" stop-opacity="0"/>
<stop offset="1" stop-color="#445E9C"/>
</linearGradient>
<linearGradient id="paint42_linear_253_2125" x1="-39" y1="-73" x2="142" y2="108" gradientUnits="userSpaceOnUse">
<stop stop-color="#445E9C" stop-opacity="0"/>
<stop offset="1" stop-color="#445E9C"/>
</linearGradient>
<linearGradient id="paint43_linear_253_2125" x1="-39" y1="-73" x2="142" y2="108" gradientUnits="userSpaceOnUse">
<stop stop-color="#445E9C" stop-opacity="0"/>
<stop offset="1" stop-color="#445E9C"/>
</linearGradient>
<linearGradient id="paint44_linear_253_2125" x1="-39" y1="-73" x2="142" y2="108" gradientUnits="userSpaceOnUse">
<stop stop-color="#445E9C" stop-opacity="0"/>
<stop offset="1" stop-color="#445E9C"/>
</linearGradient>
<linearGradient id="paint45_linear_253_2125" x1="-39" y1="-73" x2="142" y2="108" gradientUnits="userSpaceOnUse">
<stop stop-color="#445E9C" stop-opacity="0"/>
<stop offset="1" stop-color="#445E9C"/>
</linearGradient>
<linearGradient id="paint46_linear_253_2125" x1="-39" y1="-73" x2="142" y2="108" gradientUnits="userSpaceOnUse">
<stop stop-color="#445E9C" stop-opacity="0"/>
<stop offset="1" stop-color="#445E9C"/>
</linearGradient>
<linearGradient id="paint47_linear_253_2125" x1="-39" y1="-73" x2="142" y2="108" gradientUnits="userSpaceOnUse">
<stop stop-color="#445E9C" stop-opacity="0"/>
<stop offset="1" stop-color="#445E9C"/>
</linearGradient>
<linearGradient id="paint48_linear_253_2125" x1="-39" y1="-73" x2="142" y2="108" gradientUnits="userSpaceOnUse">
<stop stop-color="#445E9C" stop-opacity="0"/>
<stop offset="1" stop-color="#445E9C"/>
</linearGradient>
<linearGradient id="paint49_linear_253_2125" x1="-39" y1="-73" x2="142" y2="108" gradientUnits="userSpaceOnUse">
<stop stop-color="#445E9C" stop-opacity="0"/>
<stop offset="1" stop-color="#445E9C"/>
</linearGradient>
<linearGradient id="paint50_linear_253_2125" x1="-39" y1="-73" x2="142" y2="108" gradientUnits="userSpaceOnUse">
<stop stop-color="#445E9C" stop-opacity="0"/>
<stop offset="1" stop-color="#445E9C"/>
</linearGradient>
<linearGradient id="paint51_linear_253_2125" x1="-39" y1="-73" x2="142" y2="108" gradientUnits="userSpaceOnUse">
<stop stop-color="#445E9C" stop-opacity="0"/>
<stop offset="1" stop-color="#445E9C"/>
</linearGradient>
<linearGradient id="paint52_linear_253_2125" x1="-39" y1="-73" x2="142" y2="108" gradientUnits="userSpaceOnUse">
<stop stop-color="#445E9C" stop-opacity="0"/>
<stop offset="1" stop-color="#445E9C"/>
</linearGradient>
<linearGradient id="paint53_linear_253_2125" x1="-39" y1="-73" x2="142" y2="108" gradientUnits="userSpaceOnUse">
<stop stop-color="#445E9C" stop-opacity="0"/>
<stop offset="1" stop-color="#445E9C"/>
</linearGradient>
<linearGradient id="paint54_linear_253_2125" x1="-39" y1="-73" x2="142" y2="108" gradientUnits="userSpaceOnUse">
<stop stop-color="#445E9C" stop-opacity="0"/>
<stop offset="1" stop-color="#445E9C"/>
</linearGradient>
<linearGradient id="paint55_linear_253_2125" x1="-39" y1="-73" x2="142" y2="108" gradientUnits="userSpaceOnUse">
<stop stop-color="#445E9C" stop-opacity="0"/>
<stop offset="1" stop-color="#445E9C"/>
</linearGradient>
<linearGradient id="paint56_linear_253_2125" x1="-39" y1="-73" x2="142" y2="108" gradientUnits="userSpaceOnUse">
<stop stop-color="#445E9C" stop-opacity="0"/>
<stop offset="1" stop-color="#445E9C"/>
</linearGradient>
<linearGradient id="paint57_linear_253_2125" x1="-39" y1="-73" x2="142" y2="108" gradientUnits="userSpaceOnUse">
<stop stop-color="#445E9C" stop-opacity="0"/>
<stop offset="1" stop-color="#445E9C"/>
</linearGradient>
<linearGradient id="paint58_linear_253_2125" x1="-39" y1="-73" x2="142" y2="108" gradientUnits="userSpaceOnUse">
<stop stop-color="#445E9C" stop-opacity="0"/>
<stop offset="1" stop-color="#445E9C"/>
</linearGradient>
<linearGradient id="paint59_linear_253_2125" x1="-39" y1="-73" x2="142" y2="108" gradientUnits="userSpaceOnUse">
<stop stop-color="#445E9C" stop-opacity="0"/>
<stop offset="1" stop-color="#445E9C"/>
</linearGradient>
<linearGradient id="paint60_linear_253_2125" x1="-39" y1="-73" x2="142" y2="108" gradientUnits="userSpaceOnUse">
<stop stop-color="#445E9C" stop-opacity="0"/>
<stop offset="1" stop-color="#445E9C"/>
</linearGradient>
<linearGradient id="paint61_linear_253_2125" x1="-39" y1="-73" x2="142" y2="108" gradientUnits="userSpaceOnUse">
<stop stop-color="#445E9C" stop-opacity="0"/>
<stop offset="1" stop-color="#445E9C"/>
</linearGradient>
<linearGradient id="paint62_linear_253_2125" x1="-39" y1="-73" x2="142" y2="108" gradientUnits="userSpaceOnUse">
<stop stop-color="#445E9C" stop-opacity="0"/>
<stop offset="1" stop-color="#445E9C"/>
</linearGradient>
<linearGradient id="paint63_linear_253_2125" x1="-39" y1="-73" x2="142" y2="108" gradientUnits="userSpaceOnUse">
<stop stop-color="#445E9C" stop-opacity="0"/>
<stop offset="1" stop-color="#445E9C"/>
</linearGradient>
<linearGradient id="paint64_linear_253_2125" x1="-39" y1="-73" x2="142" y2="108" gradientUnits="userSpaceOnUse">
<stop stop-color="#445E9C" stop-opacity="0"/>
<stop offset="1" stop-color="#445E9C"/>
</linearGradient>
<linearGradient id="paint65_linear_253_2125" x1="-39" y1="-73" x2="142" y2="108" gradientUnits="userSpaceOnUse">
<stop stop-color="#445E9C" stop-opacity="0"/>
<stop offset="1" stop-color="#445E9C"/>
</linearGradient>
<linearGradient id="paint66_linear_253_2125" x1="-39" y1="-73" x2="142" y2="108" gradientUnits="userSpaceOnUse">
<stop stop-color="#445E9C" stop-opacity="0"/>
<stop offset="1" stop-color="#445E9C"/>
</linearGradient>
<linearGradient id="paint67_linear_253_2125" x1="-39" y1="-73" x2="142" y2="108" gradientUnits="userSpaceOnUse">
<stop stop-color="#445E9C" stop-opacity="0"/>
<stop offset="1" stop-color="#445E9C"/>
</linearGradient>
<linearGradient id="paint68_linear_253_2125" x1="-39" y1="-73" x2="142" y2="108" gradientUnits="userSpaceOnUse">
<stop stop-color="#445E9C" stop-opacity="0"/>
<stop offset="1" stop-color="#445E9C"/>
</linearGradient>
<linearGradient id="paint69_linear_253_2125" x1="-39" y1="-73" x2="142" y2="108" gradientUnits="userSpaceOnUse">
<stop stop-color="#445E9C" stop-opacity="0"/>
<stop offset="1" stop-color="#445E9C"/>
</linearGradient>
<linearGradient id="paint70_linear_253_2125" x1="-39" y1="-73" x2="142" y2="108" gradientUnits="userSpaceOnUse">
<stop stop-color="#445E9C" stop-opacity="0"/>
<stop offset="1" stop-color="#445E9C"/>
</linearGradient>
<linearGradient id="paint71_linear_253_2125" x1="-39" y1="-73" x2="142" y2="108" gradientUnits="userSpaceOnUse">
<stop stop-color="#445E9C" stop-opacity="0"/>
<stop offset="1" stop-color="#445E9C"/>
</linearGradient>
<linearGradient id="paint72_linear_253_2125" x1="-39" y1="-73" x2="142" y2="108" gradientUnits="userSpaceOnUse">
<stop stop-color="#445E9C" stop-opacity="0"/>
<stop offset="1" stop-color="#445E9C"/>
</linearGradient>
<linearGradient id="paint73_linear_253_2125" x1="-39" y1="-73" x2="142" y2="108" gradientUnits="userSpaceOnUse">
<stop stop-color="#445E9C" stop-opacity="0"/>
<stop offset="1" stop-color="#445E9C"/>
</linearGradient>
<linearGradient id="paint74_linear_253_2125" x1="-39" y1="-73" x2="142" y2="108" gradientUnits="userSpaceOnUse">
<stop stop-color="#445E9C" stop-opacity="0"/>
<stop offset="1" stop-color="#445E9C"/>
</linearGradient>
<linearGradient id="paint75_linear_253_2125" x1="-39" y1="-73" x2="142" y2="108" gradientUnits="userSpaceOnUse">
<stop stop-color="#445E9C" stop-opacity="0"/>
<stop offset="1" stop-color="#445E9C"/>
</linearGradient>
<linearGradient id="paint76_linear_253_2125" x1="-39" y1="-73" x2="142" y2="108" gradientUnits="userSpaceOnUse">
<stop stop-color="#445E9C" stop-opacity="0"/>
<stop offset="1" stop-color="#445E9C"/>
</linearGradient>
<linearGradient id="paint77_linear_253_2125" x1="-39" y1="-73" x2="142" y2="108" gradientUnits="userSpaceOnUse">
<stop stop-color="#445E9C" stop-opacity="0"/>
<stop offset="1" stop-color="#445E9C"/>
</linearGradient>
<linearGradient id="paint78_linear_253_2125" x1="-39" y1="-73" x2="142" y2="108" gradientUnits="userSpaceOnUse">
<stop stop-color="#445E9C" stop-opacity="0"/>
<stop offset="1" stop-color="#445E9C"/>
</linearGradient>
<linearGradient id="paint79_linear_253_2125" x1="-39" y1="-73" x2="142" y2="108" gradientUnits="userSpaceOnUse">
<stop stop-color="#445E9C" stop-opacity="0"/>
<stop offset="1" stop-color="#445E9C"/>
</linearGradient>
<linearGradient id="paint80_linear_253_2125" x1="-39" y1="-73" x2="142" y2="108" gradientUnits="userSpaceOnUse">
<stop stop-color="#445E9C" stop-opacity="0"/>
<stop offset="1" stop-color="#445E9C"/>
</linearGradient>
<linearGradient id="paint81_linear_253_2125" x1="-39" y1="-73" x2="142" y2="108" gradientUnits="userSpaceOnUse">
<stop stop-color="#445E9C" stop-opacity="0"/>
<stop offset="1" stop-color="#445E9C"/>
</linearGradient>
<linearGradient id="paint82_linear_253_2125" x1="-39" y1="-73" x2="142" y2="108" gradientUnits="userSpaceOnUse">
<stop stop-color="#445E9C" stop-opacity="0"/>
<stop offset="1" stop-color="#445E9C"/>
</linearGradient>
<linearGradient id="paint83_linear_253_2125" x1="-39" y1="-73" x2="142" y2="108" gradientUnits="userSpaceOnUse">
<stop stop-color="#445E9C" stop-opacity="0"/>
<stop offset="1" stop-color="#445E9C"/>
</linearGradient>
</defs>
</svg>
