<svg width="87" height="109" viewBox="0 0 87 109" fill="none" xmlns="http://www.w3.org/2000/svg">
<path d="M85.5 1H60.5C53.8726 1 48.5 6.37258 48.5 13V96C48.5 102.627 53.8726 108 60.5 108H85.5" stroke="#BFBFBF" stroke-linecap="round" stroke-dasharray="20 20"/>
<path d="M0.792893 54.3437C0.402369 54.7342 0.402369 55.3674 0.792893 55.7579L7.15685 62.1218C7.54738 62.5124 8.18054 62.5124 8.57107 62.1218C8.96159 61.7313 8.96159 61.0982 8.57107 60.7076L2.91421 55.0508L8.57107 49.3939C8.96159 49.0034 8.96159 48.3702 8.57107 47.9797C8.18054 47.5892 7.54738 47.5892 7.15685 47.9797L0.792893 54.3437ZM7.375 56.0508C7.92728 56.0508 8.375 55.6031 8.375 55.0508C8.375 54.4985 7.92728 54.0508 7.375 54.0508V56.0508ZM19.125 54.0508C18.5727 54.0508 18.125 54.4985 18.125 55.0508C18.125 55.6031 18.5727 56.0508 19.125 56.0508V54.0508ZM30.875 56.0508C31.4273 56.0508 31.875 55.6031 31.875 55.0508C31.875 54.4985 31.4273 54.0508 30.875 54.0508V56.0508ZM42.625 54.0508C42.0727 54.0508 41.625 54.4985 41.625 55.0508C41.625 55.6031 42.0727 56.0508 42.625 56.0508V54.0508ZM1.5 56.0508H7.375V54.0508H1.5V56.0508ZM19.125 56.0508H30.875V54.0508H19.125V56.0508ZM42.625 56.0508H48.5V54.0508H42.625V56.0508Z" fill="#BFBFBF"/>
</svg>
