<svg width="87" height="380" viewBox="0 0 87 380" fill="none" xmlns="http://www.w3.org/2000/svg">
<path d="M1.5 1H26.5C33.1274 1 38.5 6.37258 38.5 13V367C38.5 373.627 33.1274 379 26.5 379H1.5" stroke="#BFBFBF" stroke-linecap="round" stroke-dasharray="20 20"/>
<path d="M86.2071 191.289C86.5976 190.899 86.5976 190.265 86.2071 189.875L79.8431 183.511C79.4526 183.12 78.8195 183.12 78.4289 183.511C78.0384 183.901 78.0384 184.535 78.4289 184.925L84.0858 190.582L78.4289 196.239C78.0384 196.629 78.0384 197.263 78.4289 197.653C78.8195 198.044 79.4526 198.044 79.8431 197.653L86.2071 191.289ZM44.375 191.582C44.9273 191.582 45.375 191.134 45.375 190.582C45.375 190.03 44.9273 189.582 44.375 189.582V191.582ZM56.125 189.582C55.5727 189.582 55.125 190.03 55.125 190.582C55.125 191.134 55.5727 191.582 56.125 191.582V189.582ZM67.875 191.582C68.4273 191.582 68.875 191.134 68.875 190.582C68.875 190.03 68.4273 189.582 67.875 189.582V191.582ZM79.625 189.582C79.0727 189.582 78.625 190.03 78.625 190.582C78.625 191.134 79.0727 191.582 79.625 191.582V189.582ZM38.5 191.582H44.375V189.582H38.5V191.582ZM56.125 191.582H67.875V189.582H56.125V191.582ZM79.625 191.582H85.5V189.582H79.625V191.582Z" fill="#BFBFBF"/>
</svg>
