<svg width="24" height="24" viewBox="0 0 24 24" fill="none" xmlns="http://www.w3.org/2000/svg">
<g clip-path="url(#clip0_360_3757)">
<path d="M19.5 17.5V3.91842C19.5 3.78047 19.4458 3.64809 19.3491 3.54975L16.3575 0.508594C16.2587 0.408141 16.1237 0.351562 15.9828 0.351562H5.48841C4.9425 0.351562 4.5 0.794062 4.5 1.33992V17.5H19.5Z" fill="white"/>
<path d="M19.3491 3.54956L18.0938 2.27344V13.7202C18.0938 14.7462 17.262 15.578 16.236 15.578H4.5V17.4998H19.5V3.91823C19.5 3.78028 19.4458 3.64791 19.3491 3.54956Z" fill="#F7F7F7"/>
<path d="M19.5004 3.95269V3.91842C19.5004 3.78047 19.4462 3.64809 19.3494 3.54975L16.3579 0.508594C16.259 0.408141 16.124 0.351562 15.9831 0.351562H15.9102V3.2062C15.9102 3.61847 16.2444 3.95269 16.6566 3.95269H19.5004Z" fill="#BFBFBF"/>
<path d="M21.5442 15.5H18.5311C18.2378 15.5 18 15.7378 18 16.0311V16.6925C18 16.9443 17.7959 17.1485 17.5442 17.1485H6.45594C6.20417 17.1485 6.00008 16.9444 6.00008 16.6925V16.0311C6.00008 15.7378 5.76228 15.5 5.46898 15.5H2.45591C2.20414 15.5 2 15.7041 2 15.9559V23.1926C2 23.4443 2.20409 23.6485 2.45591 23.6485H21.5442C21.7959 23.6485 22.0001 23.4444 22.0001 23.1926V15.9559C22 15.7041 21.7959 15.5 21.5442 15.5Z" fill="#7A99E0"/>
<path d="M21.5441 15.5H20.5937V21.7863C20.5937 22.0381 20.3896 22.2422 20.1378 22.2422H2V23.1926C2 23.4443 2.20409 23.6485 2.45591 23.6485H21.5442C21.7959 23.6485 22 23.4444 22 23.1926V15.9559C22 15.7041 21.7959 15.5 21.5441 15.5Z" fill="#5D7ABE"/>
<path d="M7 20.3984C7 20.9507 7.4477 21.3984 7.99998 21.3984H16C16.5523 21.3984 17 20.9507 17 20.3984C17 19.8461 16.5523 19.3984 16 19.3984H8.00003C7.44775 19.3984 7 19.8461 7 20.3984Z" fill="#445E9C"/>
<path d="M13.0945 9.17647V4.93555C13.0945 4.67666 12.8847 4.4668 12.6258 4.4668H11.3727C11.1138 4.4668 10.904 4.67666 10.904 4.93555V9.17647C10.904 9.43536 10.6941 9.64522 10.4352 9.64522H10.0985C9.71445 9.64522 9.49334 10.0818 9.72064 10.3913L11.6214 12.9808C11.8087 13.236 12.1899 13.236 12.3772 12.9808L14.2779 10.3913C14.5052 10.0817 14.2841 9.64522 13.9001 9.64522H13.5633C13.3044 9.64522 13.0945 9.43531 13.0945 9.17647Z" fill="#7A99E0"/>
<path d="M18.75 23.2965H2.45591C2.39839 23.2965 2.35156 23.2497 2.35156 23.1922V19.4102C2.35156 19.216 2.19416 19.0586 2 19.0586C1.80584 19.0586 1.64844 19.216 1.64844 19.4102V23.1922C1.64844 23.6374 2.01064 23.9996 2.45591 23.9996H18.75C18.9442 23.9996 19.1016 23.8422 19.1016 23.6481C19.1016 23.4539 18.9442 23.2965 18.75 23.2965Z" fill="#404040"/>
<path d="M21.5442 15.1485H19.8516V3.91842C19.8516 3.68681 19.7622 3.46833 19.5997 3.30323L16.6082 0.262031C16.4443 0.0955313 16.2164 0 15.9828 0H8.00005C7.80589 0 7.64848 0.157406 7.64848 0.351562C7.64848 0.545719 7.80589 0.703125 8.00005 0.703125H15.5V3.09478C15.5 3.76191 16.0428 4.30467 16.7099 4.30467H17.6758C17.87 4.30467 18.0274 4.14727 18.0274 3.95311C18.0274 3.75895 17.87 3.60155 17.6758 3.60155H16.7099C16.4305 3.60155 16.2031 3.3742 16.2031 3.09478V0.852937L19.0985 3.79631C19.1307 3.82908 19.1485 3.87244 19.1485 3.91842V15.1485H18.5311C18.0444 15.1485 17.6485 15.5444 17.6485 16.0311V16.6926C17.6485 16.7501 17.6017 16.7969 17.5441 16.7969H6.45589C6.39838 16.7969 6.35159 16.7501 6.35159 16.6926V16.0311C6.35159 15.5444 5.95564 15.1485 5.46889 15.1485H4.85159V1.33992C4.85159 0.988781 5.13725 0.703125 5.48839 0.703125H6.50005C6.6942 0.703125 6.85161 0.545719 6.85161 0.351562C6.85161 0.157406 6.6942 0 6.50005 0H5.48839C4.74955 0 4.14847 0.601078 4.14847 1.33992V15.1484H2.45591C2.01069 15.1484 1.64844 15.5107 1.64844 15.9559V18.0041C1.64844 18.1983 1.80584 18.3557 2 18.3557C2.19416 18.3557 2.35156 18.1983 2.35156 18.0041V15.9559C2.35156 15.8984 2.39834 15.8515 2.45591 15.8515H5.46889C5.56789 15.8515 5.64847 15.9321 5.64847 16.0311V16.6925C5.64847 17.1377 6.01067 17.5 6.45589 17.5H17.5441C17.9893 17.5 18.3516 17.1377 18.3516 16.6925V16.0311C18.3516 15.9321 18.4321 15.8515 18.5311 15.8515H21.5441C21.6016 15.8515 21.6485 15.8984 21.6485 15.9559V23.1925C21.6485 23.25 21.6016 23.2969 21.5441 23.2969H20.1564C19.9622 23.2969 19.8048 23.4543 19.8048 23.6484C19.8048 23.8426 19.9622 24 20.1564 24H21.5441C21.9893 24 22.3516 23.6377 22.3516 23.1925V15.9559C22.3516 15.5107 21.9894 15.1485 21.5442 15.1485Z" fill="#404040"/>
<path d="M16 21.75C16.7453 21.75 17.3516 21.1436 17.3516 20.3984C17.3516 19.6532 16.7453 19.0469 16 19.0469H8.00003C7.25477 19.0469 6.64844 19.6532 6.64844 20.3984C6.64844 21.1437 7.25477 21.75 8.00003 21.75H16ZM7.35156 20.3984C7.35156 20.0409 7.64247 19.75 8.00003 19.75H16C16.3576 19.75 16.6485 20.0409 16.6485 20.3984C16.6485 20.756 16.3576 21.0468 16 21.0468H8.00003C7.64247 21.0468 7.35156 20.7559 7.35156 20.3984Z" fill="#404040"/>
<path d="M8.37109 13.266C8.37109 13.4601 8.5285 13.6175 8.72266 13.6175H15.2753C15.4695 13.6175 15.6269 13.4601 15.6269 13.266C15.6269 13.0718 15.4695 12.9144 15.2753 12.9144H12.8617L14.561 10.5994C14.745 10.3488 14.772 10.0208 14.6316 9.74337C14.4911 9.46597 14.2107 9.29366 13.8998 9.29366H13.563C13.4984 9.29366 13.4458 9.24106 13.4458 9.17647V4.93555C13.4458 4.48325 13.0778 4.11523 12.6255 4.11523H11.3725C10.9202 4.11523 10.5521 4.48325 10.5521 4.93555V9.17647C10.5521 9.24106 10.4995 9.29366 10.435 9.29366H10.0982C9.78728 9.29366 9.50688 9.46597 9.36639 9.74333C9.22591 10.0207 9.25295 10.3487 9.43694 10.5994L11.1362 12.9144H8.72261C8.5285 12.9144 8.37109 13.0718 8.37109 13.266ZM9.99367 10.061C10.0058 10.037 10.0356 9.99678 10.0982 9.99678H10.435C10.8873 9.99678 11.2553 9.62877 11.2553 9.17647V4.93555C11.2553 4.87095 11.3079 4.81836 11.3725 4.81836H12.6255C12.6901 4.81836 12.7427 4.87095 12.7427 4.93555V9.17647C12.7427 9.62877 13.1107 9.99678 13.563 9.99678H13.8998C13.9624 9.99678 13.9922 10.037 14.0043 10.061C14.0164 10.085 14.0313 10.1329 13.9942 10.1833L12.0934 12.7728C12.0629 12.8144 12.0212 12.8207 11.999 12.8207C11.9768 12.8207 11.9351 12.8144 11.9045 12.7728L10.0038 10.1833C9.96667 10.1328 9.98153 10.085 9.99367 10.061Z" fill="#404040"/>
</g>
<defs>
<clipPath id="clip0_360_3757">
<rect width="24" height="24" fill="white"/>
</clipPath>
</defs>
</svg>
