<svg width="48" height="48" viewBox="0 0 48 48" fill="none" xmlns="http://www.w3.org/2000/svg">
<path d="M38.7641 16.361V7.2901H27.4694V16.361C22.6082 18.5256 19.2188 23.3981 19.2188 29.0629C19.2188 36.7386 25.4411 42.9609 33.1168 42.9609C40.7925 42.9609 47.0149 36.7386 47.0149 29.0629C47.0149 23.3981 43.6253 18.5256 38.7641 16.361Z" fill="#99B8FF"/>
<path d="M44.2022 29.0634C44.2022 35.1759 39.2297 40.1484 33.1163 40.1484C31.1053 40.1484 29.2181 39.6103 27.5907 38.67C24.27 36.7538 22.0312 33.165 22.0312 29.0634C22.0312 25.9969 23.3016 23.1272 25.4372 21.0713H40.7962C42.9319 23.1272 44.2022 25.9969 44.2022 29.0634Z" fill="#F7C421"/>
<path d="M30.0084 16.3602V13.85C30.0084 12.49 31.1108 11.3876 32.4708 11.3876H38.7641V8.69552H30.0084V8.69524H27.4697V8.69552V11.3876V16.3602C22.6078 18.5249 19.2188 23.3971 19.2188 29.0624C19.2188 36.7049 25.3875 42.9065 33.0187 42.959C28.8393 42.8624 25.468 36.6777 25.468 29.0624C25.468 23.3971 27.3337 18.5249 30.0084 16.3602Z" fill="#5D7ABE"/>
<path d="M27.5906 38.6699C24.2699 36.7537 22.0312 33.1649 22.0312 29.0634C22.0312 25.9968 23.3016 23.1271 25.4371 21.0712H26.8593C25.9828 23.3315 25.468 26.0877 25.468 29.0634C25.468 32.7899 26.2753 36.1734 27.5906 38.6699Z" fill="#E5AE13"/>
<path d="M28.3468 36.9174L19.3211 21.2844V13.1963H10.7433V21.2844L1.71766 36.9174C0.166937 39.6035 2.10531 42.9609 5.20684 42.9609H24.8575C27.959 42.9609 29.8975 39.6035 28.3468 36.9174Z" fill="#E6E6E6"/>
<path d="M19.3215 13.1963H13.0852H10.7434V21.2842L1.71804 36.9178C0.166573 39.6037 2.10523 42.9609 5.20648 42.9609H10.5709C9.16282 42.9609 8.28242 39.6037 8.98648 36.9178L13.0852 21.2842V17.1319C13.0852 16.2786 13.777 15.5869 14.6303 15.5869H19.3215V13.1963Z" fill="#CCCCCC"/>
<path fill-rule="evenodd" clip-rule="evenodd" d="M2.32763 37.269C2.32763 37.269 2.32763 37.269 2.32763 37.269L11.3533 21.636C11.415 21.5291 11.4475 21.4079 11.4475 21.2844V13.8994H18.619V21.2844C18.619 21.4079 18.6515 21.5291 18.7132 21.636L27.7389 37.269C29.019 39.4863 27.4188 42.2578 24.8585 42.2578H20.0614C19.6731 42.2578 19.3583 42.5726 19.3583 42.9609C19.3583 43.3493 19.6731 43.6641 20.0614 43.6641H24.8585C28.5013 43.6641 30.7781 39.7207 28.9568 36.5659L20.0253 21.096V13.1963C20.0253 12.8079 19.7105 12.4931 19.3221 12.4931H10.7444C10.3561 12.4931 10.0413 12.8079 10.0413 13.1963V21.096L1.10977 36.5659C-0.71156 39.7206 1.56508 43.6641 5.20798 43.6641H17.2488C17.6371 43.6641 17.9519 43.3493 17.9519 42.9609C17.9519 42.5726 17.6371 42.2578 17.2488 42.2578H5.20798C2.64763 42.2578 1.04753 39.4863 2.32763 37.269Z" fill="#404040"/>
<path fill-rule="evenodd" clip-rule="evenodd" d="M20.1799 23.9183C20.533 24.0801 20.9503 23.925 21.112 23.572C22.4489 20.6545 24.8188 18.3093 27.7526 17.0027C28.0063 16.8897 28.1697 16.638 28.1697 16.3604V9.3985H38.0575V11.6954C38.0575 12.0837 38.3723 12.3985 38.7606 12.3985C39.149 12.3985 39.4638 12.0837 39.4638 11.6954V8.69538C39.4638 8.30705 39.149 7.99225 38.7606 7.99225H27.4666C27.0783 7.99225 26.7635 8.30705 26.7635 8.69538V15.9118C23.7099 17.3891 21.2491 19.897 19.8336 22.9862C19.6718 23.3393 19.8269 23.7566 20.1799 23.9183Z" fill="#404040"/>
<path fill-rule="evenodd" clip-rule="evenodd" d="M33.1161 42.2578C31.2716 42.2578 29.5179 41.8794 27.9255 41.1971C27.5686 41.0442 27.1553 41.2096 27.0023 41.5665C26.8494 41.9234 27.0147 42.3368 27.3717 42.4897C29.1356 43.2456 31.0775 43.6641 33.1161 43.6641C41.1807 43.6641 47.7177 37.1271 47.7177 29.0634C47.7177 23.2739 44.3488 18.2741 39.4668 15.9126V14.5089C39.4668 14.1206 39.152 13.8058 38.7637 13.8058C38.3754 13.8058 38.0606 14.1206 38.0606 14.5089V16.3612C38.0606 16.6389 38.224 16.8906 38.4777 17.0036C43.0951 19.0595 46.3114 23.6859 46.3114 29.0634C46.3114 36.3504 40.4041 42.2578 33.1161 42.2578Z" fill="#404040"/>
<path d="M22.4303 11.3672C22.4303 12.3769 21.6119 13.1953 20.6022 13.1953H9.46094C8.95656 13.1953 8.49906 12.9909 8.16812 12.66C7.83719 12.3291 7.63281 11.8716 7.63281 11.3672C7.63281 10.3575 8.45125 9.53906 9.46094 9.53906H20.6022C21.1066 9.53906 21.5641 9.74344 21.895 10.0744C22.2259 10.4053 22.4303 10.8628 22.4303 11.3672Z" fill="#CCCCCC"/>
<path d="M22.4305 11.3672C22.4305 12.3769 21.612 13.1953 20.6023 13.1953H13.8945C13.3892 13.1953 12.9327 12.9909 12.6017 12.66C12.2708 12.3291 12.0664 11.8716 12.0664 11.3672C12.0664 10.3575 12.8848 9.53906 13.8945 9.53906H20.6023C21.1067 9.53906 21.5642 9.74344 21.8952 10.0744C22.2261 10.4053 22.4305 10.8628 22.4305 11.3672Z" fill="#E6E6E6"/>
<path fill-rule="evenodd" clip-rule="evenodd" d="M9.46084 12.4922C8.83958 12.4922 8.33594 11.9885 8.33594 11.3673C8.33594 10.746 8.83958 10.2424 9.46084 10.2424H20.6019C21.2232 10.2424 21.7268 10.746 21.7268 11.3673C21.7268 11.9886 21.2232 12.4922 20.6019 12.4922H9.46084ZM6.92969 11.3673C6.92969 12.7652 8.06293 13.8984 9.46084 13.8984H20.6019C21.9998 13.8984 23.1331 12.7652 23.1331 11.3673C23.1331 9.96936 21.9998 8.83613 20.6019 8.83613H9.46084C8.06293 8.83613 6.92969 9.96936 6.92969 11.3673Z" fill="#404040"/>
<path d="M41.9111 6.86719C41.9111 7.87688 41.0927 8.69531 40.083 8.69531H26.3008C25.7955 8.69531 25.3389 8.49094 25.008 8.16C24.677 7.82906 24.4727 7.37156 24.4727 6.86719C24.4727 5.8575 25.2911 5.03906 26.3008 5.03906H40.083C40.5873 5.03906 41.0448 5.24344 41.3758 5.57437C41.7067 5.90531 41.9111 6.36281 41.9111 6.86719Z" fill="#5D7ABE"/>
<path d="M41.9123 6.86719C41.9123 7.87688 41.0939 8.69531 40.0842 8.69531H30.5742C30.0698 8.69531 29.6123 8.49094 29.2814 8.16C28.9505 7.82906 28.7461 7.37156 28.7461 6.86719C28.7461 5.8575 29.5645 5.03906 30.5742 5.03906H40.0842C40.5886 5.03906 41.0461 5.24344 41.377 5.57437C41.708 5.90531 41.9123 6.36281 41.9123 6.86719Z" fill="#99B8FF"/>
<path fill-rule="evenodd" clip-rule="evenodd" d="M26.3006 7.99414C25.6794 7.99414 25.1758 7.49053 25.1758 6.86923C25.1758 6.24794 25.6794 5.74433 26.3006 5.74433H34.404C34.7923 5.74433 35.1071 5.42953 35.1071 5.0412C35.1071 4.65288 34.7923 4.33808 34.404 4.33808H26.3006C24.9027 4.33808 23.7695 5.47134 23.7695 6.86923C23.7695 8.26713 24.9027 9.40039 26.3006 9.40039H40.0831C41.481 9.40039 42.6142 8.26715 42.6142 6.86923C42.6142 5.47132 41.481 4.33808 40.0831 4.33808H37.2167C36.8283 4.33808 36.5135 4.65288 36.5135 5.0412C36.5135 5.42953 36.8283 5.74433 37.2167 5.74433H40.0831C40.7043 5.74433 41.208 6.24797 41.208 6.86923C41.208 7.4905 40.7043 7.99414 40.0831 7.99414H26.3006Z" fill="#404040"/>
<path fill-rule="evenodd" clip-rule="evenodd" d="M33.1153 39.4453C31.7089 39.4453 30.3689 39.1643 29.1461 38.6555C28.7875 38.5063 28.376 38.676 28.2268 39.0346C28.0776 39.3931 28.2473 39.8047 28.6058 39.9539C29.9966 40.5325 31.5199 40.8516 33.1153 40.8516C39.617 40.8516 44.9044 35.5643 44.9044 29.0634C44.9044 25.8014 43.5531 22.7501 41.283 20.5647C41.152 20.4386 40.9772 20.3681 40.7953 20.3681H25.4363C25.2544 20.3681 25.0797 20.4386 24.9487 20.5647C23.327 22.1255 22.1747 24.1289 21.6483 26.3343C21.5581 26.712 21.7912 27.0913 22.1689 27.1814C22.5467 27.2716 22.9259 27.0385 23.0161 26.6607C23.4579 24.8099 24.4007 23.1196 25.7251 21.7744H40.5065C42.3873 23.685 43.4981 26.2888 43.4981 29.0634C43.4981 34.7876 38.8405 39.4453 33.1153 39.4453Z" fill="#404040"/>
<path d="M25.9118 39.54C25.7806 39.7678 25.4693 40.1484 24.8591 40.1484H5.20803C4.59678 40.1484 4.28553 39.7678 4.15428 39.54C4.02303 39.3131 3.84866 38.8528 4.15428 38.3241L10.7871 26.8359H19.2799L25.9118 38.3241C26.2174 38.8528 26.043 39.3131 25.9118 39.54Z" fill="#FC5F61"/>
<path d="M8.9871 36.9178C8.71053 37.9725 8.67866 39.1303 8.82678 40.1484H5.20803C4.59678 40.1484 4.28553 39.7678 4.15428 39.54C4.02303 39.3131 3.84866 38.8528 4.15428 38.3241L10.7871 26.8359H11.6299L8.9871 36.9178Z" fill="#E83842"/>
<path fill-rule="evenodd" clip-rule="evenodd" d="M4.91433 39.3602C4.84674 39.3112 4.79653 39.2453 4.76383 39.1886L4.76376 39.1885C4.73105 39.1319 4.69908 39.0554 4.69044 38.9724C4.68296 38.9005 4.68988 38.8032 4.76377 38.6752C4.76377 38.6752 4.76377 38.6753 4.76377 38.6752L11.1931 27.5393H18.8743L25.3037 38.6751C25.3776 38.8031 25.3845 38.9004 25.377 38.9724C25.3684 39.0554 25.3364 39.1319 25.3037 39.1885L25.3035 39.1888C25.2709 39.2453 25.2207 39.3112 25.1531 39.3602C25.0946 39.4027 25.0068 39.4453 24.8591 39.4453H5.20841C5.06058 39.4453 4.97285 39.4026 4.91433 39.3602ZM3.54593 39.8917C3.74173 40.2309 4.2442 40.8516 5.20841 40.8516H24.8591C25.823 40.8516 26.3256 40.2311 26.5214 39.8918C26.7173 39.5527 27.0037 38.8071 26.5216 37.972L19.8892 26.4846C19.7636 26.267 19.5315 26.133 19.2803 26.133H10.7872C10.536 26.133 10.3039 26.267 10.1783 26.4846L3.54592 37.9721C3.06389 38.8071 3.35012 39.5525 3.54587 39.8916" fill="#404040"/>
</svg>
