<svg width="64" height="64" viewBox="0 0 64 64" fill="none" xmlns="http://www.w3.org/2000/svg">
<rect width="64" height="64" rx="32" fill="#F5F8FF"/>
<g clip-path="url(#clip0_383_4136)">
<path d="M44.8793 18.7412V14.9531L40.3336 18.7412V14.9531L35.7878 18.7412V14.9531L31.2422 18.7412V31.9996H49.4251V14.9531L44.8793 18.7412Z" fill="#B4AAAA"/>
<path d="M47.1523 16.8472V31.9996H49.4252V14.9531L47.1523 16.8472Z" fill="#9B9595"/>
<path d="M8.70312 32H55.2969V35.2199H8.70312V32Z" fill="#8B818E"/>
<path d="M8.70312 35.2197H55.2969V49.6146H8.70312V35.2197Z" fill="#C38959"/>
<path d="M8.70312 49.6143H55.2969V55.2964H8.70312V49.6143Z" fill="#E4989D"/>
<path d="M52.457 32H55.2981V35.2199H52.457V32Z" fill="#665E66"/>
<path d="M52.457 35.2197H55.2981V49.6146H52.457V35.2197Z" fill="#B17A4A"/>
<path d="M52.457 49.6143H55.2981V55.2964H52.457V49.6143Z" fill="#DD636E"/>
<path d="M33.1359 32L29.8213 8.70312H17.8887L14.5742 32H33.1359Z" fill="#F6F9F9"/>
<path d="M29.8226 8.70312H27.2656L30.5803 32H33.1372L29.8226 8.70312Z" fill="#E7ECF6"/>
<path d="M27.6426 20.9198H23.8545V16.4688L20.0664 24.3291H23.8545V28.7801L27.6426 20.9198Z" fill="#FFE07D"/>
<path d="M28.238 20.5459C28.1093 20.341 27.8845 20.2167 27.6426 20.2167H24.5576V16.4689C24.5576 16.1409 24.3308 15.8565 24.011 15.7834C23.6913 15.7103 23.3635 15.868 23.2211 16.1636L19.433 24.024C19.328 24.2419 19.3423 24.4985 19.471 24.7032C19.5997 24.9081 19.8245 25.0324 20.0664 25.0324H23.1513V28.7803C23.1513 29.1083 23.3781 29.3927 23.6979 29.4658C23.7502 29.4778 23.8027 29.4835 23.8546 29.4835C24.1199 29.4835 24.3688 29.3328 24.4878 29.0856L28.276 21.2252C28.381 21.0072 28.3666 20.7507 28.238 20.5459ZM24.5576 25.7017V24.3292C24.5576 23.9408 24.2428 23.626 23.8544 23.626H21.1858L23.1513 19.5474V20.9199C23.1513 21.3083 23.4661 21.623 23.8544 21.623H26.5232L24.5576 25.7017Z" fill="#404040"/>
<path d="M46.2042 22.2998H35.2188C34.8304 22.2998 34.5156 22.6145 34.5156 23.0029C34.5156 23.3913 34.8304 23.7061 35.2188 23.7061H46.2043C46.5926 23.7061 46.9074 23.3913 46.9074 23.0029C46.9074 22.6145 46.5926 22.2998 46.2042 22.2998Z" fill="#404040"/>
<path d="M46.2042 25.3301H35.2188C34.8304 25.3301 34.5156 25.6448 34.5156 26.0332C34.5156 26.4216 34.8304 26.7363 35.2188 26.7363H46.2043C46.5926 26.7363 46.9074 26.4216 46.9074 26.0332C46.9074 25.6448 46.5926 25.3301 46.2042 25.3301Z" fill="#404040"/>
<path d="M55.2969 31.2969H50.1284V23.3643C50.1284 22.9793 49.8318 22.6436 49.447 22.632C49.0488 22.62 48.7222 22.9393 48.7222 23.3349V31.2969H33.7466L32.0006 19.0251L35.085 16.4547V18.7204C35.085 18.9394 35.1761 19.1534 35.3474 19.2898C35.6164 19.5039 35.9866 19.4915 36.2383 19.2819L39.6308 16.4548V18.7209C39.6308 18.94 39.722 19.1539 39.8936 19.2902C40.1626 19.504 40.5325 19.4915 40.7841 19.2819L44.1766 16.4548V18.7212C44.1766 18.9403 44.2679 19.1543 44.4396 19.2904C44.7087 19.5039 45.0784 19.4914 45.3298 19.2819L48.7224 16.4548V20.0197C48.7224 20.4047 49.019 20.7404 49.4038 20.752C49.802 20.764 50.1286 20.4448 50.1286 20.0491V14.9737C50.1286 14.7549 50.0374 14.541 49.8659 14.405C49.5969 14.1914 49.2269 14.2036 48.9753 14.4133L45.5828 17.2404V14.9737C45.5828 14.7549 45.4916 14.541 45.3201 14.405C45.051 14.1914 44.6811 14.2036 44.4295 14.4133L41.0369 17.2404V14.974C41.0369 14.7552 40.9458 14.5414 40.7745 14.4052C40.5056 14.1914 40.1353 14.2035 39.8837 14.4133L36.4912 17.2404V14.9739C36.4912 14.7551 36.4001 14.5412 36.2287 14.4051C35.9597 14.1914 35.5897 14.2035 35.338 14.4133L31.7677 17.3886L30.5178 8.60412C30.4685 8.25753 30.1718 8 29.8217 8H17.8891C17.5391 8 17.2423 8.25753 17.193 8.60412L13.9645 31.2969H8.70312C8.31481 31.2969 8 31.6117 8 32V55.2674C8 55.6525 8.29663 55.9882 8.68147 55.9997C9.07972 56.0116 9.40625 55.6924 9.40625 55.2969V50.3179H18.8781C18.8439 50.6307 18.7427 50.8097 18.6034 51.0558C18.3963 51.4214 18.1392 51.8755 18.1333 52.7112C18.1308 53.0723 18.3861 53.3917 18.7443 53.4372C19.1737 53.4916 19.5395 53.1585 19.5395 52.7398C19.5395 52.2564 19.6539 52.0543 19.8269 51.7488C20.0146 51.4175 20.2427 51.0126 20.2884 50.3178H27.6539C27.6197 50.6306 27.5186 50.8096 27.3792 51.0557C27.1721 51.4213 26.9149 51.8754 26.9091 52.7111C26.9066 53.0722 27.1618 53.3916 27.5201 53.4371C27.9494 53.4915 28.3152 53.1584 28.3152 52.7397C28.3152 52.2563 28.4296 52.0543 28.6027 51.7487C28.7904 51.4174 29.0186 51.0125 29.0641 50.3177H36.4296C36.3954 50.6305 36.2942 50.8095 36.1548 51.0556C35.9477 51.4213 35.6906 51.8753 35.6847 52.711C35.6822 53.0721 35.9375 53.3915 36.2957 53.437C36.7251 53.4914 37.0909 53.1583 37.0909 52.7397C37.0909 52.2562 37.2053 52.0543 37.3783 51.7486C37.566 51.4173 37.7942 51.0124 37.8398 50.3176H45.2052C45.171 50.6304 45.0699 50.8094 44.9305 51.0555C44.7234 51.4212 44.4662 51.8752 44.4604 52.7109C44.4579 53.072 44.7132 53.3914 45.0714 53.4369C45.5008 53.4913 45.8666 53.1582 45.8666 52.7396C45.8666 52.2561 45.9809 52.0542 46.154 51.7485C46.3417 51.4172 46.5699 51.0123 46.6154 50.3175H48.5562C48.9412 50.3175 49.2769 50.0208 49.2884 49.636C49.3003 49.2378 48.9811 48.9113 48.5856 48.9113H46.4194C46.337 48.7042 46.2411 48.534 46.1539 48.3802C45.9808 48.0746 45.8665 47.8726 45.8665 47.3893C45.8665 46.9057 45.9808 46.7037 46.154 46.398C46.3634 46.0282 46.6242 45.568 46.6242 44.7137C46.6242 43.8595 46.3635 43.3993 46.154 43.0294C45.9808 42.7237 45.8665 42.5218 45.8665 42.0382H46.8543C47.1489 42.0382 47.3284 41.7142 47.1723 41.4644L45.4813 38.7589C45.3344 38.5239 44.9922 38.5239 44.8453 38.7589L43.1544 41.4644C42.9983 41.7142 43.1778 42.0382 43.4724 42.0382H44.4602C44.4602 42.8923 44.7209 43.3526 44.9304 43.7225C45.1035 44.0282 45.2179 44.2302 45.2179 44.7137C45.2179 45.1973 45.1035 45.3993 44.9304 45.7049C44.7209 46.0748 44.4602 46.535 44.4602 47.3893C44.4602 48.1236 44.653 48.5665 44.8401 48.9113H37.6436C37.5612 48.7042 37.4652 48.534 37.3781 48.3802C37.2049 48.0746 37.0906 47.8726 37.0906 47.3893C37.0906 46.9057 37.205 46.7037 37.3782 46.398C37.5876 46.0282 37.8483 45.568 37.8483 44.7137C37.8483 43.8595 37.5877 43.3993 37.3782 43.0294C37.205 42.7237 37.0906 42.5218 37.0906 42.0382H38.0785C38.373 42.0382 38.5526 41.7142 38.3965 41.4644L36.7055 38.7589C36.5586 38.5239 36.2164 38.5239 36.0695 38.7589L34.3785 41.4644C34.2224 41.7142 34.402 42.0382 34.6965 42.0382H35.6844C35.6844 42.8923 35.9451 43.3526 36.1545 43.7225C36.3277 44.0282 36.4421 44.2302 36.4421 44.7137C36.4421 45.1973 36.3277 45.3993 36.1545 45.7049C35.9451 46.0748 35.6844 46.535 35.6844 47.3893C35.6844 48.1236 35.8771 48.5665 36.0642 48.9113H28.8677C28.7853 48.7042 28.6894 48.534 28.6022 48.3802C28.4291 48.0746 28.3148 47.8726 28.3148 47.3893C28.3148 46.9057 28.4292 46.7037 28.6023 46.398C28.8117 46.0282 29.0725 45.568 29.0725 44.7137C29.0725 43.8595 28.8118 43.3993 28.6023 43.0294C28.4292 42.7237 28.3148 42.5218 28.3148 42.0382H29.3026C29.5972 42.0382 29.7767 41.7142 29.6206 41.4644L27.9297 38.7589C27.7827 38.5239 27.4406 38.5239 27.2937 38.7589L25.6027 41.4644C25.4466 41.7142 25.6261 42.0382 25.9207 42.0382H26.9085C26.9085 42.8923 27.1692 43.3526 27.3787 43.7225C27.5518 44.0282 27.6662 44.2302 27.6662 44.7137C27.6662 45.1973 27.5518 45.3993 27.3787 45.7049C27.1692 46.0748 26.9085 46.535 26.9085 47.3893C26.9085 48.1236 27.1013 48.5665 27.2884 48.9113H20.0919C20.0095 48.7042 19.9137 48.534 19.8265 48.3802C19.6533 48.0746 19.539 47.8726 19.539 47.3893C19.539 46.9057 19.6534 46.7037 19.8266 46.398C20.036 46.0282 20.2966 45.568 20.2966 44.7137C20.2966 43.8595 20.036 43.3993 19.8266 43.0294C19.6534 42.7237 19.539 42.5218 19.539 42.0382H20.5269C20.8214 42.0382 21.001 41.7142 20.8449 41.4644L19.1539 38.7589C19.007 38.5239 18.6648 38.5239 18.5179 38.7589L16.8269 41.4644C16.6708 41.7142 16.8504 42.0382 17.1449 42.0382H18.1328C18.1328 42.8923 18.3934 43.3526 18.6028 43.7225C18.776 44.0282 18.8904 44.2302 18.8904 44.7137C18.8904 45.1973 18.776 45.3993 18.6028 45.7049C18.3934 46.0748 18.1328 46.535 18.1328 47.3893C18.1328 48.1236 18.3254 48.5665 18.5127 48.9113H9.40625V35.9231H14.359C14.744 35.9231 15.0797 35.6263 15.0912 35.2415C15.1032 34.8433 14.7839 34.5168 14.3884 34.5168H9.40625V32.7031H54.5938V34.5168H17.7183C17.3333 34.5168 16.9976 34.8135 16.986 35.1984C16.9741 35.5965 17.2933 35.9231 17.6889 35.9231H54.5938V48.9117H51.9212C51.5362 48.9117 51.2005 49.2084 51.1889 49.5932C51.177 49.9914 51.4962 50.3179 51.8918 50.3179H54.5938V55.2674C54.5938 55.6525 54.8904 55.9882 55.2752 55.9997C55.6734 56.0117 56 55.6925 56 55.2969V32C56 31.6117 55.6852 31.2969 55.2969 31.2969V31.2969ZM29.2116 9.40625L29.5917 12.0781H18.1192L18.4993 9.40625H29.2116ZM15.385 31.2969L17.9191 13.4844H29.7918L32.3262 31.2969H15.385Z" fill="#404040"/>
<path d="M40.5234 46.7188H42.0387C42.427 46.7188 42.7418 46.404 42.7418 46.0156C42.7418 45.6272 42.427 45.3125 42.0387 45.3125H40.5234C40.1351 45.3125 39.8203 45.6272 39.8203 46.0156C39.8203 46.404 40.135 46.7188 40.5234 46.7188Z" fill="#404040"/>
<path d="M41.5661 39.8057C41.9544 39.8057 42.2692 39.4909 42.2692 39.1025C42.2692 38.7141 41.9544 38.3994 41.5661 38.3994H40.0508C39.6625 38.3994 39.3477 38.7141 39.3477 39.1025C39.3477 39.4909 39.6625 39.8057 40.0508 39.8057H41.5661Z" fill="#404040"/>
<path d="M31.2422 43.04C30.8539 43.04 30.5391 43.3548 30.5391 43.7432C30.5391 44.1316 30.8539 44.4463 31.2422 44.4463H32.7575C33.1458 44.4463 33.4606 44.1316 33.4606 43.7432C33.4606 43.3548 33.1458 43.04 32.7575 43.04H31.2422Z" fill="#404040"/>
<path d="M51.9293 40.4287C51.9293 40.0403 51.6145 39.7256 51.2262 39.7256H49.7109C49.3226 39.7256 49.0078 40.0403 49.0078 40.4287C49.0078 40.8171 49.3226 41.1318 49.7109 41.1318H51.2262C51.6145 41.1318 51.9293 40.8171 51.9293 40.4287Z" fill="#404040"/>
<path d="M21.9609 45.3125C21.5726 45.3125 21.2578 45.6272 21.2578 46.0156C21.2578 46.404 21.5726 46.7188 21.9609 46.7188H23.4762C23.8645 46.7188 24.1793 46.404 24.1793 46.0156C24.1793 45.6272 23.8645 45.3125 23.4762 45.3125H21.9609Z" fill="#404040"/>
<path d="M24.652 39.1025C24.652 38.7141 24.3372 38.3994 23.9489 38.3994H22.4336C22.0453 38.3994 21.7305 38.7141 21.7305 39.1025C21.7305 39.4909 22.0453 39.8057 22.4336 39.8057H23.9489C24.3372 39.8057 24.652 39.4909 24.652 39.1025Z" fill="#404040"/>
<path d="M14.2887 39.7256H12.7734C12.3851 39.7256 12.0703 40.0403 12.0703 40.4287C12.0703 40.8171 12.3851 41.1318 12.7734 41.1318H14.2887C14.677 41.1318 14.9918 40.8171 14.9918 40.4287C14.9918 40.0403 14.677 39.7256 14.2887 39.7256Z" fill="#404040"/>
</g>
<defs>
<clipPath id="clip0_383_4136">
<rect width="48" height="48" fill="white" transform="translate(8 8)"/>
</clipPath>
</defs>
</svg>
