<svg width="48" height="48" viewBox="0 0 48 48" fill="none" xmlns="http://www.w3.org/2000/svg">
<g clip-path="url(#clip0_383_4137)">
<path d="M36.8793 10.7412V6.95312L32.3336 10.7412V6.95312L27.7878 10.7412V6.95312L23.2422 10.7412V23.9996H41.4251V6.95312L36.8793 10.7412Z" fill="#B4AAAA"/>
<path d="M39.1523 8.84716V23.9996H41.4252V6.95312L39.1523 8.84716Z" fill="#9B9595"/>
<path d="M0.703125 24H47.2969V27.2199H0.703125V24Z" fill="#8B818E"/>
<path d="M0.703125 27.2197H47.2969V41.6146H0.703125V27.2197Z" fill="#C38959"/>
<path d="M0.703125 41.6143H47.2969V47.2964H0.703125V41.6143Z" fill="#E4989D"/>
<path d="M44.457 24H47.2981V27.2199H44.457V24Z" fill="#665E66"/>
<path d="M44.457 27.2197H47.2981V41.6146H44.457V27.2197Z" fill="#B17A4A"/>
<path d="M44.457 41.6143H47.2981V47.2964H44.457V41.6143Z" fill="#DD636E"/>
<path d="M25.1359 24L21.8213 0.703125H9.88866L6.57422 24H25.1359Z" fill="#F6F9F9"/>
<path d="M21.8226 0.703125H19.2656L22.5803 24H25.1372L21.8226 0.703125Z" fill="#E7ECF6"/>
<path d="M19.6426 12.9198H15.8545V8.46875L12.0664 16.3291H15.8545V20.7801L19.6426 12.9198Z" fill="#FFE07D"/>
<path d="M20.238 12.5459C20.1093 12.341 19.8845 12.2167 19.6426 12.2167H16.5576V8.46888C16.5576 8.14085 16.3308 7.85651 16.011 7.78338C15.6913 7.71026 15.3635 7.86804 15.2211 8.16363L11.433 16.024C11.328 16.2419 11.3423 16.4985 11.471 16.7032C11.5997 16.9081 11.8245 17.0324 12.0664 17.0324H15.1513V20.7803C15.1513 21.1083 15.3781 21.3927 15.6979 21.4658C15.7502 21.4778 15.8027 21.4835 15.8546 21.4835C16.1199 21.4835 16.3688 21.3328 16.4878 21.0856L20.276 13.2252C20.381 13.0072 20.3666 12.7507 20.238 12.5459ZM16.5576 17.7017V16.3292C16.5576 15.9408 16.2428 15.626 15.8544 15.626H13.1858L15.1513 11.5474V12.9199C15.1513 13.3083 15.4661 13.623 15.8544 13.623H18.5232L16.5576 17.7017Z" fill="#404040"/>
<path d="M38.2042 14.2998H27.2188C26.8304 14.2998 26.5156 14.6145 26.5156 15.0029C26.5156 15.3913 26.8304 15.7061 27.2188 15.7061H38.2043C38.5926 15.7061 38.9074 15.3913 38.9074 15.0029C38.9074 14.6145 38.5926 14.2998 38.2042 14.2998Z" fill="#404040"/>
<path d="M38.2042 17.3301H27.2188C26.8304 17.3301 26.5156 17.6448 26.5156 18.0332C26.5156 18.4216 26.8304 18.7363 27.2188 18.7363H38.2043C38.5926 18.7363 38.9074 18.4216 38.9074 18.0332C38.9074 17.6448 38.5926 17.3301 38.2042 17.3301Z" fill="#404040"/>
<path d="M47.2969 23.2969H42.1284V15.3643C42.1284 14.9793 41.8318 14.6436 41.447 14.632C41.0488 14.62 40.7222 14.9393 40.7222 15.3349V23.2969H25.7466L24.0006 11.0251L27.085 8.45475V10.7204C27.085 10.9394 27.1761 11.1534 27.3474 11.2898C27.6164 11.5039 27.9866 11.4915 28.2383 11.2819L31.6308 8.45484V10.7209C31.6308 10.94 31.722 11.1539 31.8936 11.2902C32.1626 11.504 32.5325 11.4915 32.7841 11.2819L36.1766 8.45484V10.7212C36.1766 10.9403 36.2679 11.1543 36.4396 11.2904C36.7087 11.5039 37.0784 11.4914 37.3298 11.2819L40.7224 8.45484V12.0197C40.7224 12.4047 41.019 12.7404 41.4038 12.752C41.802 12.764 42.1286 12.4447 42.1286 12.0491V6.97369C42.1286 6.75488 42.0374 6.54103 41.8659 6.405C41.5969 6.19144 41.2269 6.20362 40.9753 6.41334L37.5828 9.24038V6.97369C37.5828 6.75488 37.4916 6.54103 37.3201 6.405C37.051 6.19144 36.6811 6.20362 36.4295 6.41334L33.0369 9.24038V6.97397C33.0369 6.75516 32.9458 6.54141 32.7745 6.40519C32.5056 6.19144 32.1353 6.20353 31.8837 6.41334L28.4912 9.24038V6.97388C28.4912 6.75506 28.4001 6.54122 28.2287 6.40509C27.9597 6.19144 27.5897 6.20353 27.338 6.41334L23.7677 9.38859L22.5178 0.604125C22.4685 0.257531 22.1718 0 21.8217 0H9.88912C9.53906 0 9.24234 0.257531 9.19303 0.604125L5.96447 23.2969H0.703125C0.314812 23.2969 0 23.6117 0 24V47.2674C0 47.6525 0.296625 47.9882 0.681469 47.9997C1.07972 48.0116 1.40625 47.6924 1.40625 47.2969V42.3179H10.8781C10.8439 42.6307 10.7427 42.8097 10.6034 43.0558C10.3963 43.4214 10.1392 43.8755 10.1333 44.7112C10.1308 45.0723 10.3861 45.3917 10.7443 45.4372C11.1737 45.4916 11.5395 45.1585 11.5395 44.7398C11.5395 44.2564 11.6539 44.0543 11.8269 43.7488C12.0146 43.4175 12.2427 43.0126 12.2884 42.3178H19.6539C19.6197 42.6306 19.5186 42.8096 19.3792 43.0557C19.1721 43.4213 18.9149 43.8754 18.9091 44.7111C18.9066 45.0722 19.1618 45.3916 19.5201 45.4371C19.9494 45.4915 20.3153 45.1584 20.3153 44.7397C20.3153 44.2563 20.4296 44.0543 20.6027 43.7487C20.7904 43.4174 21.0186 43.0125 21.0641 42.3177H28.4296C28.3954 42.6305 28.2942 42.8095 28.1548 43.0556C27.9477 43.4212 27.6906 43.8753 27.6847 44.711C27.6822 45.0721 27.9375 45.3915 28.2957 45.437C28.7251 45.4914 29.0909 45.1583 29.0909 44.7397C29.0909 44.2562 29.2053 44.0543 29.3783 43.7486C29.566 43.4173 29.7942 43.0124 29.8398 42.3176H37.2052C37.171 42.6304 37.0699 42.8094 36.9305 43.0555C36.7234 43.4212 36.4662 43.8752 36.4604 44.7109C36.4579 45.072 36.7132 45.3914 37.0714 45.4369C37.5008 45.4913 37.8666 45.1582 37.8666 44.7396C37.8666 44.2561 37.9809 44.0542 38.154 43.7485C38.3417 43.4172 38.5699 43.0123 38.6154 42.3175H40.5562C40.9412 42.3175 41.2769 42.0208 41.2884 41.636C41.3003 41.2378 40.9811 40.9113 40.5856 40.9113H38.4194C38.337 40.7042 38.2411 40.534 38.1539 40.3802C37.9808 40.0746 37.8665 39.8726 37.8665 39.3893C37.8665 38.9057 37.9808 38.7037 38.154 38.398C38.3634 38.0282 38.6242 37.568 38.6242 36.7137C38.6242 35.8595 38.3635 35.3993 38.154 35.0294C37.9808 34.7237 37.8665 34.5218 37.8665 34.0382H38.8543C39.1489 34.0382 39.3284 33.7142 39.1723 33.4644L37.4813 30.7589C37.3344 30.5239 36.9922 30.5239 36.8453 30.7589L35.1544 33.4644C34.9983 33.7142 35.1778 34.0382 35.4724 34.0382H36.4602C36.4602 34.8923 36.7209 35.3526 36.9304 35.7225C37.1035 36.0282 37.2179 36.2302 37.2179 36.7137C37.2179 37.1973 37.1035 37.3993 36.9304 37.7049C36.7209 38.0748 36.4602 38.535 36.4602 39.3893C36.4602 40.1236 36.653 40.5665 36.8401 40.9113H29.6436C29.5612 40.7042 29.4653 40.534 29.3781 40.3802C29.2049 40.0746 29.0906 39.8726 29.0906 39.3893C29.0906 38.9057 29.205 38.7037 29.3782 38.398C29.5876 38.0282 29.8483 37.568 29.8483 36.7137C29.8483 35.8595 29.5877 35.3993 29.3782 35.0294C29.205 34.7237 29.0906 34.5218 29.0906 34.0382H30.0785C30.373 34.0382 30.5526 33.7142 30.3965 33.4644L28.7055 30.7589C28.5586 30.5239 28.2164 30.5239 28.0695 30.7589L26.3785 33.4644C26.2224 33.7142 26.402 34.0382 26.6965 34.0382H27.6844C27.6844 34.8923 27.9451 35.3526 28.1545 35.7225C28.3277 36.0282 28.4421 36.2302 28.4421 36.7137C28.4421 37.1973 28.3277 37.3993 28.1545 37.7049C27.9451 38.0748 27.6844 38.535 27.6844 39.3893C27.6844 40.1236 27.8771 40.5665 28.0642 40.9113H20.8677C20.7853 40.7042 20.6894 40.534 20.6022 40.3802C20.4291 40.0746 20.3148 39.8726 20.3148 39.3893C20.3148 38.9057 20.4292 38.7037 20.6023 38.398C20.8118 38.0282 21.0725 37.568 21.0725 36.7137C21.0725 35.8595 20.8118 35.3993 20.6023 35.0294C20.4292 34.7237 20.3148 34.5218 20.3148 34.0382H21.3026C21.5972 34.0382 21.7767 33.7142 21.6206 33.4644L19.9297 30.7589C19.7827 30.5239 19.4406 30.5239 19.2937 30.7589L17.6027 33.4644C17.4466 33.7142 17.6261 34.0382 17.9207 34.0382H18.9085C18.9085 34.8923 19.1692 35.3526 19.3787 35.7225C19.5518 36.0282 19.6662 36.2302 19.6662 36.7137C19.6662 37.1973 19.5518 37.3993 19.3787 37.7049C19.1692 38.0748 18.9085 38.535 18.9085 39.3893C18.9085 40.1236 19.1013 40.5665 19.2884 40.9113H12.0919C12.0095 40.7042 11.9137 40.534 11.8265 40.3802C11.6533 40.0746 11.539 39.8726 11.539 39.3893C11.539 38.9057 11.6534 38.7037 11.8266 38.398C12.036 38.0282 12.2966 37.568 12.2966 36.7137C12.2966 35.8595 12.036 35.3993 11.8266 35.0294C11.6534 34.7237 11.539 34.5218 11.539 34.0382H12.5269C12.8214 34.0382 13.001 33.7142 12.8449 33.4644L11.1539 30.7589C11.007 30.5239 10.6648 30.5239 10.5179 30.7589L8.82694 33.4644C8.67084 33.7142 8.85038 34.0382 9.14494 34.0382H10.1328C10.1328 34.8923 10.3934 35.3526 10.6028 35.7225C10.776 36.0282 10.8904 36.2302 10.8904 36.7137C10.8904 37.1973 10.776 37.3993 10.6028 37.7049C10.3934 38.0748 10.1328 38.535 10.1328 39.3893C10.1328 40.1236 10.3254 40.5665 10.5127 40.9113H1.40625V27.9231H6.35897C6.744 27.9231 7.07972 27.6263 7.09125 27.2415C7.10316 26.8433 6.78394 26.5168 6.38841 26.5168H1.40625V24.7031H46.5938V26.5168H9.71831C9.33328 26.5168 8.99756 26.8135 8.98603 27.1984C8.97412 27.5965 9.29334 27.9231 9.68888 27.9231H46.5938V40.9117H43.9212C43.5362 40.9117 43.2005 41.2084 43.1889 41.5932C43.177 41.9914 43.4963 42.3179 43.8918 42.3179H46.5938V47.2674C46.5938 47.6525 46.8904 47.9882 47.2752 47.9997C47.6734 48.0117 48 47.6925 48 47.2969V24C48 23.6117 47.6852 23.2969 47.2969 23.2969ZM21.2116 1.40625L21.5917 4.07812H10.1192L10.4993 1.40625H21.2116ZM7.38497 23.2969L9.91912 5.48438H21.7918L24.3262 23.2969H7.38497Z" fill="#404040"/>
<path d="M32.5234 38.7188H34.0387C34.427 38.7188 34.7418 38.404 34.7418 38.0156C34.7418 37.6272 34.427 37.3125 34.0387 37.3125H32.5234C32.1351 37.3125 31.8203 37.6272 31.8203 38.0156C31.8203 38.404 32.135 38.7188 32.5234 38.7188Z" fill="#404040"/>
<path d="M33.5661 31.8057C33.9544 31.8057 34.2692 31.4909 34.2692 31.1025C34.2692 30.7141 33.9544 30.3994 33.5661 30.3994H32.0508C31.6625 30.3994 31.3477 30.7141 31.3477 31.1025C31.3477 31.4909 31.6625 31.8057 32.0508 31.8057H33.5661Z" fill="#404040"/>
<path d="M23.2422 35.04C22.8539 35.04 22.5391 35.3548 22.5391 35.7432C22.5391 36.1316 22.8539 36.4463 23.2422 36.4463H24.7575C25.1458 36.4463 25.4606 36.1316 25.4606 35.7432C25.4606 35.3548 25.1458 35.04 24.7575 35.04H23.2422Z" fill="#404040"/>
<path d="M43.9293 32.4287C43.9293 32.0403 43.6145 31.7256 43.2262 31.7256H41.7109C41.3226 31.7256 41.0078 32.0403 41.0078 32.4287C41.0078 32.8171 41.3226 33.1318 41.7109 33.1318H43.2262C43.6145 33.1318 43.9293 32.8171 43.9293 32.4287Z" fill="#404040"/>
<path d="M13.9609 37.3125C13.5726 37.3125 13.2578 37.6272 13.2578 38.0156C13.2578 38.404 13.5726 38.7188 13.9609 38.7188H15.4762C15.8645 38.7188 16.1793 38.404 16.1793 38.0156C16.1793 37.6272 15.8645 37.3125 15.4762 37.3125H13.9609Z" fill="#404040"/>
<path d="M16.652 31.1025C16.652 30.7141 16.3372 30.3994 15.9489 30.3994H14.4336C14.0453 30.3994 13.7305 30.7141 13.7305 31.1025C13.7305 31.4909 14.0453 31.8057 14.4336 31.8057H15.9489C16.3372 31.8057 16.652 31.4909 16.652 31.1025Z" fill="#404040"/>
<path d="M6.28872 31.7256H4.77344C4.38513 31.7256 4.07031 32.0403 4.07031 32.4287C4.07031 32.8171 4.38513 33.1318 4.77344 33.1318H6.28872C6.67703 33.1318 6.99184 32.8171 6.99184 32.4287C6.99184 32.0403 6.67703 31.7256 6.28872 31.7256Z" fill="#404040"/>
</g>
<defs>
<clipPath id="clip0_383_4137">
<rect width="48" height="48" fill="white"/>
</clipPath>
</defs>
</svg>
