<svg width="48" height="48" viewBox="0 0 48 48" fill="none" xmlns="http://www.w3.org/2000/svg">
<path d="M33.2459 18.3495L26.0056 8.74383L25.9681 8.73633H9.07812V43.1791H33.2478V18.3954L33.2459 18.3495Z" fill="#99B8FF"/>
<path d="M9.07812 8.73633H11.8906V43.1791H9.07812V8.73633Z" fill="#C7D8FF"/>
<path d="M7.94031 5.49609C7.72757 5.49609 7.51691 5.538 7.32037 5.61941C7.12382 5.70082 6.94523 5.82015 6.7948 5.97058C6.64437 6.12101 6.52504 6.2996 6.44363 6.49615C6.36221 6.69269 6.32031 6.90335 6.32031 7.11609C6.32031 7.32884 6.36221 7.53949 6.44363 7.73604C6.52504 7.93259 6.64437 8.11118 6.7948 8.26161C6.94523 8.41204 7.12382 8.53137 7.32037 8.61278C7.51691 8.69419 7.72757 8.73609 7.94031 8.73609H25.9694L26.0069 8.74359L26.3425 5.49609H7.94031Z" fill="#5D7ABE"/>
<path d="M34.3891 43.1777H7.94031C7.51066 43.1777 7.09861 43.3484 6.7948 43.6522C6.49099 43.956 6.32031 44.3681 6.32031 44.7977C6.32031 45.2274 6.49099 45.6394 6.7948 45.9432C7.09861 46.2471 7.51066 46.4177 7.94031 46.4177H34.3891C34.8187 46.4177 35.2308 46.2471 35.5346 45.9432C35.8384 45.6394 36.0091 45.2274 36.0091 44.7977C36.0091 44.3681 35.8384 43.956 35.5346 43.6522C35.2308 43.3484 34.8187 43.1777 34.3891 43.1777Z" fill="#5D7ABE"/>
<path d="M34.3886 24.3379H7.93984C7.51032 24.3379 7.09838 24.5085 6.79466 24.8122C6.49094 25.116 6.32031 25.5279 6.32031 25.9574C6.32031 26.3869 6.49094 26.7989 6.79466 27.1026C7.09838 27.4063 7.51032 27.577 7.93984 27.577H34.3886C34.8181 27.577 35.2301 27.4063 35.5338 27.1026C35.8375 26.7989 36.0081 26.3869 36.0081 25.9574C36.0081 25.5279 35.8375 25.116 35.5338 24.8122C35.2301 24.5085 34.8181 24.3379 34.3886 24.3379Z" fill="#5D7ABE"/>
<path d="M32.8223 1.58203C35.1347 1.58243 37.3552 2.48706 39.0095 4.10267C40.6637 5.71829 41.6206 7.91677 41.6757 10.2284C41.7308 12.5401 40.8797 14.7817 39.3043 16.4742C37.7288 18.1668 35.5539 19.1762 33.2442 19.2867C33.1045 19.2933 32.9639 19.297 32.8223 19.297C30.4732 19.297 28.2203 18.3638 26.5591 16.7027C24.898 15.0416 23.9648 12.7887 23.9648 10.4395C23.9648 8.09038 24.898 5.83744 26.5591 4.17633C28.2203 2.51523 30.4732 1.58203 32.8223 1.58203Z" fill="#FB6771"/>
<path d="M36.263 10.3277C36.6176 10.9331 36.8062 11.6214 36.8095 12.323C36.8128 13.0247 36.6308 13.7147 36.282 14.3235C35.9331 14.9322 35.4296 15.438 34.8226 15.7898C34.2155 16.1416 33.5263 16.3268 32.8247 16.3268C32.1231 16.3268 31.4339 16.1416 30.8268 15.7898C30.2197 15.438 29.7163 14.9322 29.3674 14.3235C29.0185 13.7147 28.8366 13.0247 28.8399 12.323C28.8432 11.6214 29.0318 10.9331 29.3864 10.3277L32.8242 4.45898L36.263 10.3277Z" fill="#FADF4A"/>
<path d="M31.6526 12.3405C31.6524 11.6329 31.8411 10.9381 32.1991 10.3277L34.2309 6.85898L32.8246 4.45898L29.3868 10.3277C28.9702 11.0386 28.7841 11.8611 28.8543 12.682C28.9245 13.503 29.2475 14.282 29.7788 14.9118C30.3101 15.5415 31.0236 15.9911 31.821 16.1986C32.6184 16.406 33.4605 16.3612 34.2314 16.0702C33.4734 15.7843 32.8207 15.2742 32.3601 14.6078C31.8995 13.9415 31.6529 13.1506 31.6532 12.3405H31.6526Z" fill="#EDCF54"/>
<path d="M26.7811 10.4396C26.7805 8.33424 27.5299 6.29756 28.895 4.69475C30.26 3.09195 32.1514 2.02787 34.23 1.69334C32.5536 1.42518 30.8354 1.64395 29.2796 2.32366C27.7238 3.00337 26.3959 4.11544 25.4536 5.52772C24.5654 6.8619 24.0557 8.41207 23.9789 10.0131C23.9021 11.614 24.2611 13.2059 25.0176 14.6189C25.7742 16.032 26.8998 17.2133 28.2748 18.0371C29.6497 18.8609 31.2224 19.2962 32.8252 19.2968C32.9667 19.2968 33.1074 19.293 33.247 19.2865C33.5762 19.2708 33.9043 19.2369 34.2297 19.1849C32.1516 18.8497 30.2608 17.7856 28.8959 16.1831C27.531 14.5806 26.7813 12.5445 26.7811 10.4396Z" fill="#E75163"/>
<path d="M7.94031 8.73609H10.7528C10.5401 8.73609 10.3294 8.69419 10.1329 8.61278C9.93632 8.53137 9.75773 8.41204 9.6073 8.26161C9.45687 8.11118 9.33754 7.93259 9.25613 7.73604C9.17472 7.53949 9.13281 7.32884 9.13281 7.11609C9.13281 6.90335 9.17472 6.69269 9.25613 6.49615C9.33754 6.2996 9.45687 6.12101 9.6073 5.97058C9.75773 5.82015 9.93632 5.70082 10.1329 5.61941C10.3294 5.538 10.5401 5.49609 10.7528 5.49609H7.94031C7.72757 5.49609 7.51691 5.538 7.32037 5.61941C7.12382 5.70082 6.94523 5.82015 6.7948 5.97058C6.64437 6.12101 6.52504 6.2996 6.44363 6.49615C6.36221 6.69269 6.32031 6.90335 6.32031 7.11609C6.32031 7.32884 6.36221 7.53949 6.44363 7.73604C6.52504 7.93259 6.64437 8.11118 6.7948 8.26161C6.94523 8.41204 7.12382 8.53137 7.32037 8.61278C7.51691 8.69419 7.72757 8.73609 7.94031 8.73609Z" fill="#7A99E0"/>
<path d="M9.13281 44.7977C9.13276 44.585 9.17463 44.3743 9.25603 44.1777C9.33742 43.9812 9.45675 43.8026 9.60719 43.6521C9.75763 43.5017 9.93624 43.3823 10.1328 43.3009C10.3294 43.2196 10.5401 43.1777 10.7528 43.1777H7.94031C7.51066 43.1777 7.09861 43.3484 6.7948 43.6522C6.49099 43.956 6.32031 44.3681 6.32031 44.7977C6.32031 45.2274 6.49099 45.6394 6.7948 45.9432C7.09861 46.2471 7.51066 46.4177 7.94031 46.4177H10.7528C10.5401 46.4178 10.3294 46.3759 10.1328 46.2945C9.93628 46.2131 9.75768 46.0937 9.60724 45.9433C9.45681 45.7929 9.33748 45.6143 9.25608 45.4177C9.17467 45.2212 9.13279 45.0105 9.13281 44.7977Z" fill="#7A99E0"/>
<path d="M7.93984 27.577H10.7523C10.3228 27.577 9.91088 27.4063 9.60716 27.1026C9.30344 26.7989 9.13281 26.3869 9.13281 25.9574C9.13281 25.5279 9.30344 25.116 9.60716 24.8122C9.91088 24.5085 10.3228 24.3379 10.7523 24.3379H7.93984C7.51032 24.3379 7.09838 24.5085 6.79466 24.8122C6.49094 25.116 6.32031 25.5279 6.32031 25.9574C6.32031 26.3869 6.49094 26.7989 6.79466 27.1026C7.09838 27.4063 7.51032 27.577 7.93984 27.577Z" fill="#7A99E0"/>
<path d="M13.0742 31.5759C13.2234 31.5759 13.3665 31.5166 13.472 31.4111C13.5775 31.3056 13.6367 31.1625 13.6367 31.0134V30.4668C13.6367 30.3176 13.5775 30.1745 13.472 30.069C13.3665 29.9636 13.2234 29.9043 13.0742 29.9043C12.925 29.9043 12.782 29.9636 12.6765 30.069C12.571 30.1745 12.5117 30.3176 12.5117 30.4668V31.0134C12.5117 31.1625 12.571 31.3056 12.6765 31.4111C12.782 31.5166 12.925 31.5759 13.0742 31.5759Z" fill="#284268"/>
<path d="M13.0742 41.6473C13.2234 41.6473 13.3665 41.5881 13.472 41.4826C13.5775 41.3771 13.6367 41.234 13.6367 41.0848V32.7852C13.6367 32.636 13.5775 32.4929 13.472 32.3874C13.3665 32.2819 13.2234 32.2227 13.0742 32.2227C12.925 32.2227 12.782 32.2819 12.6765 32.3874C12.571 32.4929 12.5117 32.636 12.5117 32.7852V41.0848C12.5117 41.234 12.571 41.3771 12.6765 41.4826C12.782 41.5881 12.925 41.6473 13.0742 41.6473Z" fill="#284268"/>
<path d="M33.3117 4.17465C33.2621 4.08997 33.1912 4.01975 33.1061 3.97095C33.021 3.92216 32.9245 3.89648 32.8264 3.89648C32.7283 3.89648 32.6318 3.92216 32.5467 3.97095C32.4616 4.01975 32.3907 4.08997 32.3411 4.17465L28.9032 10.0434C28.3453 10.9974 28.1539 12.122 28.3648 13.2069C28.5757 14.2918 29.1744 15.2628 30.0491 15.9384C30.9238 16.6139 32.0145 16.9479 33.1175 16.8778C34.2205 16.8077 35.2602 16.3384 36.0423 15.5575C36.753 14.8458 37.2079 13.9188 37.336 12.9213C37.4641 11.9237 37.2582 10.9118 36.7504 10.0437L33.3117 4.17465ZM35.2468 14.7619C34.6587 15.3513 33.8758 15.7061 33.0449 15.7596C32.2139 15.8132 31.392 15.562 30.733 15.053C30.074 14.544 29.6232 13.8122 29.465 12.9947C29.3069 12.1772 29.4523 11.3301 29.8739 10.6121L32.8262 5.5718L35.7793 10.6119C36.1615 11.2653 36.3165 12.0269 36.2201 12.7777C36.1237 13.5285 35.7814 14.2262 35.2466 14.7619H35.2468Z" fill="#284268"/>
<path d="M35.1138 11.7319C35.0414 11.7172 34.9668 11.717 34.8943 11.7311C34.8218 11.7452 34.7528 11.7735 34.6912 11.8143C34.6297 11.8552 34.5767 11.9077 34.5354 11.969C34.4942 12.0302 34.4654 12.099 34.4507 12.1714C34.386 12.4913 34.2282 12.7848 33.9971 13.0152C33.8205 13.1931 33.6052 13.3279 33.368 13.4089C33.2269 13.4574 33.1108 13.56 33.0454 13.694C32.9799 13.8281 32.9703 13.9826 33.0188 14.1237C33.0673 14.2648 33.1698 14.3809 33.3039 14.4464C33.438 14.5118 33.5925 14.5214 33.7336 14.4729C34.1914 14.3147 34.6 14.0398 34.9191 13.6754C35.2382 13.3111 35.4568 12.8698 35.5533 12.3951C35.568 12.3227 35.5683 12.2481 35.5542 12.1756C35.54 12.1031 35.5117 12.0341 35.4709 11.9725C35.4301 11.9109 35.3776 11.858 35.3163 11.8167C35.255 11.7754 35.1862 11.7466 35.1138 11.7319Z" fill="#284268"/>
<path d="M32.8253 1.01953C31.3322 1.01854 29.8603 1.373 28.5314 2.05361C27.2024 2.73423 26.0546 3.72144 25.1828 4.9336H7.94031C7.36148 4.9336 6.80635 5.16354 6.39705 5.57284C5.98775 5.98213 5.75781 6.53726 5.75781 7.1161C5.75781 7.69493 5.98775 8.25006 6.39705 8.65936C6.80635 9.06865 7.36148 9.2986 7.94031 9.2986H8.51688V23.7755H7.94031C7.65376 23.7755 7.37002 23.8319 7.10528 23.9416C6.84055 24.0512 6.6 24.212 6.39738 24.4146C6.19476 24.6172 6.03404 24.8577 5.92438 25.1225C5.81472 25.3872 5.75828 25.671 5.75828 25.9575C5.75828 26.2441 5.81472 26.5278 5.92438 26.7925C6.03404 27.0573 6.19476 27.2978 6.39738 27.5004C6.6 27.7031 6.84055 27.8638 7.10528 27.9734C7.37002 28.0831 7.65376 28.1395 7.94031 28.1395H8.51688V42.6164H7.94031C7.36148 42.6164 6.80635 42.8464 6.39705 43.2556C5.98775 43.6649 5.75781 44.2201 5.75781 44.7989C5.75781 45.3777 5.98775 45.9329 6.39705 46.3422C6.80635 46.7515 7.36148 46.9814 7.94031 46.9814H34.3891C34.9679 46.9814 35.523 46.7515 35.9323 46.3422C36.3416 45.9329 36.5716 45.3777 36.5716 44.7989C36.5716 44.2201 36.3416 43.6649 35.9323 43.2556C35.523 42.8464 34.9679 42.6164 34.3891 42.6164H33.8116V28.1395H34.3891C34.9678 28.1395 35.5228 27.9096 35.932 27.5004C36.3412 27.0912 36.5711 26.5362 36.5711 25.9575C36.5711 25.3788 36.3412 24.8238 35.932 24.4146C35.5228 24.0054 34.9678 23.7755 34.3891 23.7755H33.8116V19.8076C36.2112 19.555 38.4224 18.3913 39.9892 16.5563C41.556 14.7214 42.359 12.3552 42.2325 9.94564C42.106 7.53609 41.0597 5.26694 39.3094 3.60613C37.5591 1.94532 35.2382 1.01948 32.8253 1.01953ZM7.94031 8.1736C7.65985 8.1736 7.39087 8.06218 7.19255 7.86386C6.99423 7.66554 6.88281 7.39656 6.88281 7.1161C6.88281 6.83563 6.99423 6.56665 7.19255 6.36833C7.39087 6.17001 7.65985 6.0586 7.94031 6.0586H24.4847C24.1316 6.72815 23.8617 7.43844 23.6811 8.1736H7.94031ZM34.3891 43.7414C34.6695 43.7414 34.9385 43.8528 35.1368 44.0511C35.3351 44.2495 35.4466 44.5184 35.4466 44.7989C35.4466 45.0794 35.3351 45.3484 35.1368 45.5467C34.9385 45.745 34.6695 45.8564 34.3891 45.8564H7.94031C7.73109 45.8564 7.52658 45.7943 7.35265 45.678C7.17872 45.5617 7.04318 45.3964 6.96319 45.2031C6.88319 45.0098 6.86233 44.7971 6.90325 44.5919C6.94416 44.3867 7.04501 44.1983 7.19303 44.0504C7.29087 43.9519 7.40731 43.8738 7.5356 43.8207C7.66389 43.7676 7.80146 43.7405 7.94031 43.741H10.3453C10.4945 43.741 10.6375 43.6818 10.743 43.5763C10.8485 43.4708 10.9078 43.3277 10.9078 43.1785C10.9078 43.0294 10.8485 42.8863 10.743 42.7808C10.6375 42.6753 10.4945 42.616 10.3453 42.616H9.64216V28.1395H32.6866V42.6164H12.6266C12.4774 42.6164 12.3343 42.6757 12.2288 42.7812C12.1234 42.8867 12.0641 43.0297 12.0641 43.1789C12.0641 43.3281 12.1234 43.4712 12.2288 43.5767C12.3343 43.6821 12.4774 43.7414 12.6266 43.7414H34.3891ZM34.3891 24.9005C34.6694 24.9005 34.9383 25.0118 35.1365 25.2101C35.3347 25.4083 35.4461 25.6772 35.4461 25.9575C35.4461 26.2378 35.3347 26.5067 35.1365 26.7049C34.9383 26.9032 34.6694 27.0145 34.3891 27.0145H7.94031C7.65995 27.0142 7.39115 26.9027 7.1929 26.7044C6.99465 26.5062 6.88314 26.2374 6.88281 25.957C6.88287 25.8182 6.91028 25.6808 6.96345 25.5526C7.01663 25.4243 7.09454 25.3078 7.19274 25.2097C7.29094 25.1116 7.4075 25.0338 7.53577 24.9808C7.66404 24.9277 7.8015 24.9004 7.94031 24.9005H26.5953C26.7445 24.9005 26.8876 24.8412 26.9931 24.7357C27.0986 24.6302 27.1578 24.4872 27.1578 24.338C27.1578 24.1888 27.0986 24.0457 26.9931 23.9402C26.8876 23.8347 26.7445 23.7755 26.5953 23.7755H9.64188V9.2986H23.4749C23.3157 10.6103 23.4341 11.9409 23.8225 13.2038C24.2108 14.4668 24.8604 15.6341 25.729 16.6298C26.5977 17.6255 27.666 18.4274 28.8646 18.9835C30.0632 19.5396 31.3654 19.8375 32.6866 19.8578V23.7755H29.2203C29.0712 23.7755 28.9281 23.8347 28.8226 23.9402C28.7171 24.0457 28.6578 24.1888 28.6578 24.338C28.6578 24.4872 28.7171 24.6302 28.8226 24.7357C28.9281 24.8412 29.0712 24.9005 29.2203 24.9005H34.3891ZM33.2208 18.7249C33.0818 18.7313 32.9524 18.7343 32.8253 18.7343C31.6015 18.7336 30.393 18.4623 29.2864 17.9398C28.1798 17.4172 27.2025 16.6564 26.4244 15.7118C25.6464 14.7672 25.0869 13.6622 24.786 12.476C24.4852 11.2898 24.4504 10.0517 24.6843 8.85047C24.8914 7.77455 25.3122 6.75109 25.9217 5.84063C26.7073 4.66151 27.7817 3.70324 29.0426 3.05717C30.3035 2.4111 31.7089 2.09875 33.1248 2.14992C34.5407 2.20108 35.9198 2.61405 37.1308 3.34945C38.3418 4.08485 39.3443 5.11817 40.0426 6.35091C40.741 7.58364 41.112 8.97471 41.1202 10.3915C41.1284 11.8083 40.7736 13.2035 40.0896 14.4443C39.4056 15.685 38.4152 16.7299 37.2128 17.4793C36.0104 18.2287 34.6361 18.6577 33.2209 18.7253L33.2208 18.7249Z" fill="#404040"/>
</svg>
