<svg width="48" height="48" viewBox="0 0 48 48" fill="none" xmlns="http://www.w3.org/2000/svg">
<g clip-path="url(#clip0_315_3156)">
<path d="M3.87109 16.2578H19.355V19.3546H3.87109V16.2578Z" fill="#FCD770"/>
<path d="M30.1927 6.19216V7.74055C30.1927 8.16636 29.8443 8.51474 29.4185 8.51474H28.6443H22.4507H21.6765C21.2507 8.51474 20.9023 8.16636 20.9023 7.74055V6.19216C20.9023 5.76636 21.2507 5.41797 21.6765 5.41797H29.4185C29.8443 5.41797 30.1927 5.76636 30.1927 6.19216Z" fill="#AAB2BD"/>
<path d="M22.4492 8.51562H28.6428V23.9995H22.4492V8.51562Z" fill="#CCD1D9"/>
<path d="M19.355 12.387V16.258H3.87109V12.387C3.87109 11.1019 7.33948 10.0645 11.613 10.0645C15.8866 10.0645 19.355 11.1019 19.355 12.387Z" fill="#CCD1D9"/>
<path d="M19.355 19.3535V23.9987H14.7098V30.1922H9.54593L8.94206 29.2864C8.67884 28.8838 8.22206 28.6438 7.74206 28.6438C7.26206 28.6438 6.80529 28.8838 6.54206 29.2864L3.87109 33.289V19.3535H19.355Z" fill="#CCD1D9"/>
<path d="M37.9336 0.773438H44.1271V30.1928H41.0304V20.9025H39.482V16.2573H37.9336V0.773438Z" fill="#CCD1D9"/>
<path d="M39.485 16.2578V20.903H34.8398V16.2578H37.9366H39.485Z" fill="#D3A06C"/>
<path d="M34.8374 20.9023H39.4826H41.031V30.1927H33.2891V20.9023H34.8374Z" fill="#CF9E76"/>
<path d="M14.707 24H30.1909V30.1935H14.707V24Z" fill="#CF9E76"/>
<path d="M9.54688 30.1934L13.5417 36.1779C14.3004 37.3237 14.7107 38.6708 14.7107 40.0411V40.2579C14.7107 40.5211 14.6953 40.7766 14.6643 41.0321H45.6785V30.1934H9.54688Z" fill="#E6E9ED"/>
<path d="M47.2261 41.0312V47.2248H7.74219C9.66219 47.2248 11.4119 46.4429 12.6661 45.1809C13.7577 44.0971 14.4854 42.6416 14.6635 41.0312H17.8067H31.7422H34.839H42.5809H45.6777H47.2261Z" fill="#AAB2BD"/>
<path d="M24 27.0957H27.0968V30.1925H24V27.0957Z" fill="#99B8FF"/>
<path d="M17.8047 27.0957H20.9015V30.1925H17.8047V27.0957Z" fill="#99B8FF"/>
<path d="M34.8398 33.2891H42.5818V41.031H34.8398V33.2891Z" fill="#99B8FF"/>
<path d="M17.8047 33.2891H31.7402V41.031H17.8047V33.2891Z" fill="#99B8FF"/>
<path d="M13.5399 36.1774C14.2986 37.3232 14.7089 38.6703 14.7089 40.0407V40.2574C14.7089 40.5207 14.6934 40.7761 14.6625 41.0316C14.4844 42.6419 13.7567 44.0974 12.6651 45.1813C11.4109 46.4432 9.66118 47.2252 7.74118 47.2252C3.89344 47.2252 0.773438 44.1052 0.773438 40.2574V40.0407C0.773438 38.6703 1.18376 37.3232 1.94247 36.1774L3.87021 33.2897L6.54118 29.2871C6.8044 28.8845 7.26118 28.6445 7.74118 28.6445C8.22118 28.6445 8.67795 28.8845 8.94118 29.2871L9.54505 30.1929L13.5399 36.1774Z" fill="#99B8FF"/>
<path d="M46.4516 40.2581V29.4194H44.9032V0H37.1613V15.4839H34.0645V20.129H32.5161V29.4194H30.9677V23.2258H29.4194V9.29032C30.2733 9.29032 30.9677 8.59587 30.9677 7.74194V6.19355C30.9677 5.33961 30.2733 4.64516 29.4194 4.64516H21.6774C20.8235 4.64516 20.129 5.33961 20.129 6.19355V7.74194C20.129 8.59587 20.8235 9.29032 21.6774 9.29032V23.2258H20.129V20.129V15.4839V12.3871C20.129 10.2596 15.7146 9.29032 11.6129 9.29032C7.51123 9.29032 3.09677 10.2596 3.09677 12.3871V15.4839V20.129V33.0557L1.30065 35.7499C0.449806 37.0266 0 38.5115 0 40.0452V40.2581C0 44.527 3.47303 48 7.74194 48H48V40.2581H46.4516ZM43.3548 40.2581V32.5161H34.0645V40.2581H32.5161V32.5161H17.0323V40.2581H15.4839V40.0452C15.4839 38.5123 15.0341 37.0274 14.1832 35.7507L10.9951 30.9677H44.9032V40.2581H43.3548ZM41.8065 40.2581H35.6129V34.0645H41.8065V40.2581ZM18.5806 40.2581V34.0645H21.6774V40.2581H18.5806ZM23.2258 34.0645H26.3226V40.2581H23.2258V34.0645ZM27.871 34.0645H30.9677V40.2581H27.871V34.0645ZM20.129 29.4194H18.5806V27.871H20.129V29.4194ZM26.3226 29.4194H24.7742V27.871H26.3226V29.4194ZM38.7097 1.54839H43.3548V29.4194H41.8065V20.129H40.2581V15.4839H38.7097V1.54839ZM35.6129 17.0323H38.7097V20.129H35.6129V17.0323ZM34.0645 21.6774H40.2581V29.4194H34.0645V21.6774ZM27.871 29.4194V26.3226H23.2258V29.4194H21.6774V26.3226H17.0323V29.4194H15.4839V24.7742H29.4194V29.4194H27.871ZM21.6774 6.19355H29.4194L29.4201 7.74194H21.6774V6.19355ZM23.2258 9.29032H27.871V23.2258H23.2258V9.29032ZM18.5806 18.5806H4.64516V17.0323H18.5806V18.5806ZM4.64439 12.3987C4.76206 11.969 7.0831 10.8387 11.6129 10.8387C16.1427 10.8387 18.4637 11.969 18.5806 12.3871V15.4839H4.64439V12.3987ZM4.64439 20.129H18.5806V23.2258H13.9355V29.4194H9.96232L9.58916 28.8596C9.17652 28.241 8.48594 27.871 7.74194 27.871C6.99794 27.871 6.30735 28.241 5.89394 28.8596L4.64516 30.7339L4.64439 20.129ZM1.54839 40.2581V40.0452C1.54839 38.8181 1.90839 37.6304 2.5889 36.6093L7.18297 29.719C7.43303 29.3443 8.05161 29.3443 8.30168 29.719L12.8957 36.6093C13.5755 37.6297 13.9355 38.8181 13.9355 40.0452V40.2581C13.9355 43.673 11.1569 46.4516 7.74194 46.4516C4.32697 46.4516 1.54839 43.673 1.54839 40.2581V40.2581ZM46.4516 46.4516H12.367C13.8596 45.3345 14.9419 43.6978 15.3275 41.8065H46.4516V46.4516Z" fill="#404040"/>
<path d="M24.7734 10.8379H26.3218V12.3863H24.7734V10.8379Z" fill="#404040"/>
<path d="M24.7734 13.9355H26.3218V15.4839H24.7734V13.9355Z" fill="#404040"/>
<path d="M24.7734 17.0332H26.3218V18.5816H24.7734V17.0332Z" fill="#404040"/>
<path d="M24.7734 20.1289H26.3218V21.6773H24.7734V20.1289Z" fill="#404040"/>
<path d="M36.3867 26.3223H37.9351V27.8707H36.3867V26.3223Z" fill="#404040"/>
<path d="M36.3867 23.2266H37.9351V24.7749H36.3867V23.2266Z" fill="#404040"/>
<path d="M40.2578 6.19336H41.8062V7.74175H40.2578V6.19336Z" fill="#404040"/>
<path d="M40.2578 12.3867H41.8062V13.9351H40.2578V12.3867Z" fill="#404040"/>
<path d="M40.2578 9.29102H41.8062V10.8394H40.2578V9.29102Z" fill="#404040"/>
<path d="M40.2578 3.09766H41.8062V4.64604H40.2578V3.09766Z" fill="#404040"/>
<path d="M4.64604 40.2578H3.09766C3.09766 42.8196 5.18101 44.903 7.74282 44.903V43.3546C6.03495 43.3546 4.64604 41.9657 4.64604 40.2578Z" fill="#404040"/>
</g>
<defs>
<clipPath id="clip0_315_3156">
<rect width="48" height="48" fill="white"/>
</clipPath>
</defs>
</svg>
