<?xml version="1.0" encoding="UTF-8" standalone="no"?>
<!-- Created with Inkscape (http://www.inkscape.org/) -->

<svg
   version="1.1"
   id="svg492087"
   width="800"
   height="800"
   viewBox="0 0 800 800"
   sodipodi:docname="tropical-island-publicdomainvectors.org.svg"
   inkscape:version="1.2 (dc2aedaf03, 2022-05-15)"
   xmlns:inkscape="http://www.inkscape.org/namespaces/inkscape"
   xmlns:sodipodi="http://sodipodi.sourceforge.net/DTD/sodipodi-0.dtd"
   xmlns="http://www.w3.org/2000/svg"
   xmlns:svg="http://www.w3.org/2000/svg">
  <defs
     id="defs492091">
    <clipPath
       clipPathUnits="userSpaceOnUse"
       id="clipPath492115">
      <path
         d="M 0,600 H 600 V 0 H 0 Z"
         id="path492113" />
    </clipPath>
  </defs>
  <sodipodi:namedview
     id="namedview492089"
     pagecolor="#ffffff"
     bordercolor="#000000"
     borderopacity="0.25"
     inkscape:showpageshadow="2"
     inkscape:pageopacity="0.0"
     inkscape:pagecheckerboard="0"
     inkscape:deskcolor="#d1d1d1"
     showgrid="false"
     inkscape:zoom="1.04625"
     inkscape:cx="400"
     inkscape:cy="400.4779"
     inkscape:window-width="1920"
     inkscape:window-height="1017"
     inkscape:window-x="-8"
     inkscape:window-y="-8"
     inkscape:window-maximized="1"
     inkscape:current-layer="g492095">
    <inkscape:page
       x="0"
       y="0"
       id="page492093"
       width="800"
       height="800" />
  </sodipodi:namedview>
  <g
     id="g492095"
     inkscape:groupmode="layer"
     inkscape:label="Page 1"
     transform="matrix(1.3333333,0,0,-1.3333333,0,800)">
    <path
       d="M 1.136,0 H 600.001 V 598.864 H 1.136 Z"
       style="fill:#e7f6ee;fill-opacity:1;fill-rule:nonzero;stroke:none"
       id="path492097" />
    <path
       d="M 1.136,0 H 600.001 V 299.432 H 1.136 Z"
       style="fill:#abdad4;fill-opacity:1;fill-rule:nonzero;stroke:none"
       id="path492099" />
    <g
       id="g492101"
       transform="translate(1.1367,205.6419)">
      <path
         d="M 0,0 598.864,15.566 V 34.592 L 0,64.862 Z"
         style="fill:#9ac421;fill-opacity:1;fill-rule:nonzero;stroke:none"
         id="path492103" />
    </g>
    <g
       id="g492105"
       transform="translate(1.1367,283.0437)">
      <path
         d="M 0,0 V -5.188 L 598.864,-16.431 V 5.188 Z"
         style="fill:#9acac5;fill-opacity:1;fill-rule:nonzero;stroke:none"
         id="path492107" />
    </g>
    <g
       id="g492109">
      <g
         id="g492111"
         clip-path="url(#clipPath492115)">
        <g
           id="g492117"
           transform="translate(153.6201,272.6729)">
          <path
             d="m 0,0 c 1.969,0 3.756,-0.778 5.071,-2.044 1.782,1.414 4.036,2.261 6.487,2.261 0.371,0 0.737,-0.02 1.097,-0.058 -0.334,0.922 -0.516,1.919 -0.516,2.956 0,4.796 3.887,8.684 8.683,8.684 4.261,0 7.805,-3.07 8.542,-7.119 5.644,-0.657 10.025,-5.453 10.025,-11.273 0,-1.879 -0.456,-3.65 -1.264,-5.211 l -55.759,2.818 c 1.338,3.124 4.44,5.311 8.052,5.311 1.041,0 2.041,-0.181 2.969,-0.516 C -5.443,-1.714 -2.922,0 0,0 m -42.23,7.136 c 4.703,0 8.539,-3.706 8.748,-8.358 2.441,-1.224 4.117,-3.751 4.117,-6.669 0,-0.169 -0.007,-0.335 -0.017,-0.501 l -33.496,1.694 c 0.888,3.958 4.423,6.915 8.649,6.915 1.176,0 2.297,-0.23 3.324,-0.645 0.583,4.271 4.244,7.564 8.675,7.564 m -80.325,-10.818 c 1.154,3.66 4.514,6.343 8.52,6.487 1.169,4.963 5.624,8.656 10.943,8.656 5.466,0 10.019,-3.9 11.032,-9.067 0.532,0.131 1.089,0.202 1.662,0.202 1.651,0 3.165,-0.582 4.349,-1.557 1.436,2.605 4.206,4.366 7.388,4.366 4.657,0 8.432,-3.775 8.432,-8.431 0,-1.159 -0.234,-2.262 -0.657,-3.267 z M 84.529,-9.718 c 2.129,-0.76 3.798,-2.491 4.476,-4.656 l -46.925,2.37 c 1.006,2.354 3.341,4.003 6.063,4.005 1.288,5.402 6.146,9.421 11.943,9.421 3.475,0 6.614,-1.444 8.847,-3.767 1.599,1.073 3.522,1.697 5.591,1.697 5.219,0 9.51,-3.979 10.005,-9.07"
             style="fill:#8bb526;fill-opacity:1;fill-rule:evenodd;stroke:none"
             id="path492119" />
        </g>
        <g
           id="g492121"
           transform="translate(1.1367,194.1846)">
          <path
             d="M 0,0 598.863,22.485 V -10.378 L 0,-20.756 Z"
             style="fill:#adda1a;fill-opacity:1;fill-rule:evenodd;stroke:none"
             id="path492123" />
        </g>
        <g
           id="g492125"
           transform="translate(600,157.4297)">
          <path
             d="M 0,0 -598.863,6.917 V 19.891 L 0,26.377 Z"
             style="fill:#fbc93d;fill-opacity:1;fill-rule:evenodd;stroke:none"
             id="path492127" />
        </g>
        <g
           id="g492129"
           transform="translate(600,134.9424)">
          <path
             d="m 0,0 -598.863,22.487 v 6.917 L 0,29.404 Z"
             style="fill:#f8e097;fill-opacity:1;fill-rule:evenodd;stroke:none"
             id="path492131" />
        </g>
        <g
           id="g492133"
           transform="translate(1.1367,137.1074)">
          <path
             d="m 0,0 598.863,-16.433 v -7.784 L 0,-38.054 Z"
             style="fill:#c9eae6;fill-opacity:1;fill-rule:evenodd;stroke:none"
             id="path492135" />
        </g>
        <g
           id="g492137"
           transform="translate(600,53.7627)">
          <path
             d="m 0,0 -598.863,16.433 v 7.784 L 0,38.053 Z"
             style="fill:#c9eae6;fill-opacity:1;fill-rule:evenodd;stroke:none"
             id="path492139" />
        </g>
        <g
           id="g492141"
           transform="translate(1.1367,31.5957)">
          <path
             d="M 0,0 598.863,-20.754 V -31.596 L 0,-31.596 Z"
             style="fill:#9acac5;fill-opacity:1;fill-rule:evenodd;stroke:none"
             id="path492143" />
        </g>
        <g
           id="g492145"
           transform="translate(600,200.2393)">
          <path
             d="M 0,0 -376.74,2.286 0,16.431 Z"
             style="fill:#9ac421;fill-opacity:1;fill-rule:evenodd;stroke:none"
             id="path492147" />
        </g>
        <g
           id="g492149"
           transform="translate(570.7832,486.3525)">
          <path
             d="m 0,0 0.003,0.205 c 0,9.91 -8.034,17.945 -17.944,17.945 -2.145,0 -4.204,-0.377 -6.112,-1.068 -2.471,4.988 -7.618,8.419 -13.563,8.419 -8.01,0 -14.564,-6.22 -15.099,-14.092 -2.59,2.008 -5.842,3.204 -9.372,3.204 -4.017,0 -7.668,-1.546 -10.399,-4.075 -4.409,4.918 -10.808,8.013 -17.933,8.013 -9.679,0 -18.023,-5.714 -21.846,-13.953 -2.686,5.996 -8.705,10.175 -15.698,10.175 -3.524,0 -6.802,-1.061 -9.526,-2.881 -3.555,3.844 -8.641,6.252 -14.289,6.252 -6.994,0 -13.123,-3.691 -16.554,-9.23 -2.316,3.269 -6.129,5.403 -10.441,5.403 -7.06,0 -12.785,-5.724 -12.785,-12.786 0,-0.518 0.032,-1.028 0.092,-1.531 z"
             style="fill:#ffffff;fill-opacity:1;fill-rule:evenodd;stroke:none"
             id="path492151" />
        </g>
        <g
           id="g492153"
           transform="translate(213.1782,484.1221)">
          <path
             d="m 0,0 c -3.347,0 -6.391,-1.286 -8.67,-3.39 -1.948,5.444 -6.252,9.768 -11.683,11.74 1.009,2.223 1.572,4.691 1.572,7.292 0,9.75 -7.904,17.654 -17.654,17.654 -9.75,0 -17.654,-7.904 -17.654,-17.654 0,-2.629 0.575,-5.124 1.607,-7.366 -5.286,-0.511 -9.87,-3.415 -12.659,-7.615 -2.537,9.231 -10.431,16.243 -20.131,17.483 0.49,1.132 0.764,2.381 0.764,3.693 0,5.135 -4.163,9.297 -9.298,9.297 -5.134,0 -9.296,-4.162 -9.296,-9.297 0,-2.612 1.077,-4.972 2.812,-6.661 -4.603,-2.633 -8.251,-6.741 -10.303,-11.68 -1.867,0.811 -3.927,1.261 -6.092,1.261 -8.134,0 -14.786,-6.344 -15.282,-14.353 -2.548,1.95 -5.731,3.11 -9.188,3.11 -0.808,0 -1.602,-0.064 -2.377,-0.187 -2.093,7.587 -9.045,13.159 -17.298,13.159 -9.842,0 -17.833,-7.924 -17.942,-17.74 H 12.694 C 11.937,-4.915 6.542,0 0,0"
             style="fill:#ffffff;fill-opacity:1;fill-rule:evenodd;stroke:none"
             id="path492155" />
        </g>
        <g
           id="g492157"
           transform="translate(1.1367,415.1582)">
          <path
             d="M 0,0 434.894,-23.351 0,-33.728 Z"
             style="fill:#ffffff;fill-opacity:1;fill-rule:evenodd;stroke:none"
             id="path492159" />
        </g>
        <g
           id="g492161"
           transform="translate(15.7192,443.6982)">
          <path
             d="m 0,0 584.281,-13.838 v 30.27 z"
             style="fill:#ffffff;fill-opacity:1;fill-rule:evenodd;stroke:none"
             id="path492163" />
        </g>
        <g
           id="g492165"
           transform="translate(1.1367,317.4351)">
          <path
             d="M 0,0 598.863,25.079 V -18.004 L 0,-18.004 Z"
             style="fill:#f3fbf7;fill-opacity:1;fill-rule:evenodd;stroke:none"
             id="path492167" />
        </g>
        <g
           id="g492169"
           transform="translate(42.833,353.1572)">
          <path
             d="M 0,0 0.092,0.336 -0.153,0.072 Z m 9.511,-1.182 c 15.991,9.8 44.802,9.253 48.747,-4.883 l -7.088,0.083 -2.225,5.912 -0.25,-5.881 -7.4,0.087 -1.02,2.154 -0.071,-2.14 -11.333,0.133 -1.012,6.075 -0.357,-6.059 -3.891,0.047 c 5.372,-4.357 8.666,-11.304 7.256,-18.452 l -6.067,3.993 1.076,1.959 -1.793,-1.488 -6.137,4.04 4.334,4.578 -5.09,-4.08 -6.256,4.119 1.562,1.596 -2.165,-1.2 -4.085,2.69 2.343,2.423 L 7.35,-5.461 6.034,-6.282 5.88,-6.655 5.831,-6.779 C 5.678,-7.156 5.526,-7.536 5.377,-7.914 L 5.321,-8.06 C 5.177,-8.426 5.036,-8.792 4.895,-9.158 L 4.823,-9.349 C 4.686,-9.709 4.552,-10.068 4.42,-10.43 l -0.065,-0.176 c -0.14,-0.383 -0.278,-0.767 -0.415,-1.15 L 3.923,-11.807 C 3.78,-12.211 3.639,-12.615 3.501,-13.018 l -0.024,-0.07 c -0.135,-0.397 -0.269,-0.794 -0.4,-1.19 l -0.031,-0.095 c -0.13,-0.393 -0.257,-0.785 -0.382,-1.178 l -0.032,-0.103 c -0.118,-0.37 -0.234,-0.742 -0.348,-1.113 L 2.214,-17 c -0.112,-0.365 -0.222,-0.731 -0.33,-1.099 l -0.029,-0.098 c -0.112,-0.38 -0.221,-0.761 -0.329,-1.14 L 1.47,-19.538 c -0.102,-0.36 -0.202,-0.72 -0.3,-1.082 l -0.049,-0.183 c -0.099,-0.366 -0.197,-0.733 -0.292,-1.099 l -0.043,-0.166 c -0.099,-0.379 -0.195,-0.758 -0.289,-1.135 l -0.03,-0.118 C 0.37,-23.715 0.274,-24.109 0.18,-24.503 l -0.015,-0.059 c -0.095,-0.4 -0.188,-0.8 -0.279,-1.198 l -0.029,-0.129 c -0.188,-0.826 -0.366,-1.652 -0.538,-2.48 l -0.001,-0.006 c -0.088,-0.422 -0.173,-0.845 -0.256,-1.269 l -0.007,-0.037 c -0.08,-0.406 -0.159,-0.813 -0.235,-1.221 l -0.022,-0.121 c -0.072,-0.392 -0.144,-0.782 -0.213,-1.173 l -0.016,-0.092 c -0.072,-0.405 -0.142,-0.813 -0.21,-1.221 l -0.003,-0.012 c -0.284,-1.703 -0.537,-3.41 -0.76,-5.119 l -0.014,-0.109 c -0.052,-0.397 -0.102,-0.796 -0.15,-1.194 l -0.009,-0.075 c -0.05,-0.407 -0.097,-0.814 -0.143,-1.222 l -0.007,-0.056 c -0.288,-2.565 -0.512,-5.134 -0.676,-7.708 l -0.007,-0.099 c -0.108,-1.706 -0.192,-3.413 -0.251,-5.123 l -10e-4,-0.015 c -0.015,-0.428 -0.028,-0.857 -0.04,-1.286 l -10e-4,-0.014 c -0.011,-0.423 -0.022,-0.845 -0.03,-1.267 l -0.003,-0.135 c -0.008,-0.387 -0.015,-0.773 -0.021,-1.161 l -0.002,-0.188 C -3.77,-59.1 -3.776,-59.91 -3.778,-60.72 v -0.156 l 0.002,-1.166 v -0.033 c 0.005,-0.839 0.013,-1.681 0.026,-2.523 l 0.006,-0.354 c 0.014,-0.768 0.032,-1.534 0.052,-2.303 l 0.005,-0.193 0.034,-1.098 0.011,-0.319 0.036,-0.998 0.009,-0.226 c 0.031,-0.801 0.066,-1.6 0.105,-2.4 v -0.02 l 0.061,-1.203 0.006,-0.105 0.067,-1.215 0.005,-0.098 0.073,-1.223 0.006,-0.087 0.079,-1.235 0.006,-0.075 0.084,-1.245 0.005,-0.068 0.092,-1.255 0.004,-0.058 0.097,-1.265 0.004,-0.048 0.103,-1.274 0.003,-0.038 0.108,-1.285 0.002,-0.029 0.028,-0.312 -14.246,0.72 c -0.235,27.427 4.09,53.79 18.136,77.885 l -3.41,-0.533 -0.9,2.151 -0.198,-2.324 -9.412,-1.475 -0.455,6.314 -0.703,-6.494 -9.592,-1.504 -0.115,2.238 -0.809,-2.384 -6.264,-0.98 -0.361,6.14 -1.733,-6.469 -5.999,-0.941 c 2.393,12.297 18.596,17.321 32.026,14.49 l -0.518,0.288 2.604,3.873 -3.359,-3.451 -6.251,3.483 0.949,1.352 -1.552,-1.015 -4.082,2.275 2.58,3.728 -3.945,-2.968 -3.91,2.179 c 9.148,7.936 26.4,-2.177 29.449,-14.113 1.405,0.515 2.826,0.836 4.24,0.98"
             style="fill:#8bb526;fill-opacity:1;fill-rule:evenodd;stroke:none"
             id="path492171" />
        </g>
        <g
           id="g492173"
           transform="translate(281.4502,380.1919)">
          <path
             d="M 0,0 C 27.031,27.645 98.434,30.285 107.24,-1.272 L 93.205,-1.107 88.802,10.597 88.305,-1.047 73.654,-0.874 71.635,3.391 71.492,-0.847 49.054,-0.582 47.049,11.444 46.344,-0.549 24.328,-0.289 23.738,4.026 21.759,-0.259 Z"
             style="fill:#9ac421;fill-opacity:1;fill-rule:evenodd;stroke:none"
             id="path492175" />
        </g>
        <g
           id="g492177"
           transform="translate(239.9116,221.2656)">
          <path
             d="m 0,0 c -0.926,59.115 8.545,115.806 41.539,167.004 1.694,-2.26 3.391,-4.519 5.086,-6.78 C 23.701,106.479 23.441,50.923 28.822,-5.085 19.214,-3.391 9.607,-1.694 0,0"
             style="fill:#945d29;fill-opacity:1;fill-rule:evenodd;stroke:none"
             id="path492179" />
        </g>
        <g
           id="g492181"
           transform="translate(286.4639,381.3154)">
          <path
             d="m 0,0 c -22.85,-53.69 -23.104,-109.188 -17.73,-165.135 l -8.789,1.551 c -4.372,62.557 1.902,111.761 23.259,162.439 z"
             style="fill:#814b1b;fill-opacity:1;fill-rule:evenodd;stroke:none"
             id="path492183" />
        </g>
        <g
           id="g492185"
           transform="translate(284.626,381.6206)">
          <path
             d="m 0,0 c -1.993,25.67 -39.771,49.788 -59.156,32.971 l 7.741,-4.315 7.811,5.878 -5.108,-7.384 8.083,-4.505 3.074,2.011 -1.882,-2.676 12.377,-6.898 6.649,6.834 -5.155,-7.667 12.146,-6.769 2.316,2.493 -0.899,-3.283 z"
             style="fill:#87b027;fill-opacity:1;fill-rule:evenodd;stroke:none"
             id="path492187" />
        </g>
        <g
           id="g492189"
           transform="translate(287.4438,380.8354)">
          <path
             d="m 0,0 c -23.592,25.761 -84.115,19.948 -90.768,-14.227 l 11.878,1.862 3.433,12.811 0.714,-12.16 12.403,1.943 1.6,4.719 0.228,-4.431 18.993,2.976 1.391,12.861 0.902,-12.501 18.636,2.919 0.391,4.6 1.782,-4.259 z"
             style="fill:#adda1a;fill-opacity:1;fill-rule:evenodd;stroke:none"
             id="path492191" />
        </g>
        <g
           id="g492193"
           transform="translate(334.4551,343.1973)">
          <path
             d="m 0,0 c 5.986,30.341 -30.824,58.844 -59.198,38.968 l 7.746,-5.098 11.141,6.945 -8.437,-8.726 8.088,-5.325 4.286,2.379 -3.092,-3.165 12.387,-8.152 10.081,8.077 -8.585,-9.062 12.154,-8 3.547,2.946 -2.129,-3.879 z"
             style="fill:#c6e446;fill-opacity:1;fill-rule:evenodd;stroke:none"
             id="path492195" />
        </g>
        <g
           id="g492197"
           transform="translate(187.1553,353.6611)">
          <path
             d="m 0,0 c -23.347,20.45 -85.016,13.674 -92.622,-14.698 l 12.122,1.924 3.804,10.666 0.427,-9.995 12.655,2.008 1.744,3.941 0.122,-3.644 19.381,3.075 1.731,10.642 0.609,-10.27 19.016,3.018 0.51,3.801 1.709,-3.449 z"
             style="fill:#9ac421;fill-opacity:1;fill-rule:evenodd;stroke:none"
             id="path492199" />
        </g>
        <g
           id="g492201"
           transform="translate(223.0332,216.3984)">
          <path
             d="m 0,0 c 0.798,51.059 -7.38,100.02 -35.877,144.242 -1.465,-1.954 -2.929,-3.906 -4.393,-5.859 C -20.473,91.966 -20.247,43.981 -24.894,-4.393 -16.597,-2.928 -8.298,-1.464 0,0"
             style="fill:#814b1b;fill-opacity:1;fill-rule:evenodd;stroke:none"
             id="path492203" />
        </g>
        <g
           id="g492205"
           transform="translate(182.8252,354.6328)">
          <path
             d="m 0,0 c 19.735,-46.372 19.956,-94.305 15.314,-142.628 l 7.591,1.341 c 3.774,54.03 -1.642,96.526 -20.09,140.299 z"
             style="fill:#945d29;fill-opacity:1;fill-rule:evenodd;stroke:none"
             id="path492207" />
        </g>
        <g
           id="g492209"
           transform="translate(184.4131,354.896)">
          <path
             d="m 0,0 c 1.974,25.415 39.376,49.293 58.567,32.644 l -7.664,-4.274 -7.732,5.819 5.056,-7.31 -8.001,-4.46 -3.043,1.993 1.862,-2.651 -12.255,-6.829 -6.583,6.766 5.104,-7.591 -12.024,-6.702 -2.293,2.468 0.89,-3.25 z"
             style="fill:#87b027;fill-opacity:1;fill-rule:evenodd;stroke:none"
             id="path492211" />
        </g>
        <g
           id="g492213"
           transform="translate(181.9785,354.2173)">
          <path
             d="m 0,0 c 20.376,22.25 72.65,17.228 78.397,-12.287 l -10.26,1.608 -2.963,11.063 -0.619,-10.502 -10.71,1.679 -1.385,4.076 -0.195,-3.828 -16.405,2.57 -1.2,11.109 -0.78,-10.798 -16.095,2.523 -0.338,3.972 -1.54,-3.678 z"
             style="fill:#adda1a;fill-opacity:1;fill-rule:evenodd;stroke:none"
             id="path492215" />
        </g>
        <g
           id="g492217"
           transform="translate(127.9873,321.7114)">
          <path
             d="m 0,0 c -6.524,26.204 33.593,50.822 64.519,33.656 l -8.444,-4.406 -12.142,6.001 9.195,-7.538 -8.816,-4.597 -4.67,2.052 3.37,-2.731 -13.5,-7.043 -10.985,6.977 9.355,-7.828 -13.246,-6.908 -3.866,2.543 2.32,-3.35 z"
             style="fill:#c6e446;fill-opacity:1;fill-rule:evenodd;stroke:none"
             id="path492219" />
        </g>
        <g
           id="g492221"
           transform="translate(600,230.7207)">
          <path
             d="m 0,0 -71.281,-0.644 c 0.042,0.5 0.064,1.006 0.064,1.515 0,9.91 -8.034,17.944 -17.947,17.944 -8.251,0 -15.202,-5.571 -17.297,-13.158 -0.773,0.122 -1.567,0.186 -2.376,0.186 -3.457,0 -6.641,-1.158 -9.188,-3.11 -0.496,8.01 -7.148,14.353 -15.282,14.353 -2.165,0 -4.225,-0.451 -6.091,-1.262 -2.053,4.941 -5.702,9.048 -10.304,11.681 1.734,1.689 2.812,4.05 2.812,6.662 0,5.134 -4.164,9.297 -9.296,9.297 -5.134,0 -9.298,-4.163 -9.298,-9.297 0,-1.313 0.273,-2.561 0.762,-3.693 -9.699,-1.241 -17.592,-8.253 -20.129,-17.483 -2.789,4.198 -7.375,7.104 -12.659,7.614 1.03,2.244 1.607,4.738 1.607,7.367 0,9.75 -7.905,17.654 -17.655,17.654 -9.749,0 -17.654,-7.904 -17.654,-17.654 0,-2.601 0.564,-5.07 1.572,-7.292 -5.43,-1.973 -9.735,-6.297 -11.683,-11.741 -2.279,2.105 -5.324,3.39 -8.669,3.39 -7.063,0 -12.785,-5.724 -12.785,-12.785 0,-0.65 0.048,-1.289 0.143,-1.913 L -598.863,-5.402 V -42.59 L 0,-14.051 Z"
             style="fill:#769a2a;fill-opacity:1;fill-rule:evenodd;stroke:none"
             id="path492223" />
        </g>
        <g
           id="g492225"
           transform="translate(60.8711,330.436)">
          <path
             d="M 0,0 0.064,0.235 -0.108,0.05 Z M 6.665,-0.829 C 17.872,6.039 38.066,5.656 40.83,-4.251 l -4.968,0.059 -1.559,4.141 -0.176,-4.12 -5.186,0.061 -0.714,1.508 -0.05,-1.499 -7.943,0.095 -0.71,4.256 -0.249,-4.245 -2.727,0.033 c 3.764,-3.055 6.073,-7.924 5.085,-12.934 l -4.252,2.8 0.754,1.372 -1.256,-1.043 -4.302,2.832 3.038,3.208 -3.568,-2.858 L 7.662,-7.7 8.757,-6.58 7.24,-7.421 4.377,-5.538 6.02,-3.837 5.15,-3.828 4.228,-4.403 4.121,-4.665 4.086,-4.751 C 3.979,-5.017 3.873,-5.282 3.768,-5.547 l -0.039,-0.1 C 3.628,-5.905 3.529,-6.163 3.431,-6.419 L 3.38,-6.551 C 3.285,-6.805 3.19,-7.058 3.097,-7.31 L 3.052,-7.434 C 2.954,-7.703 2.856,-7.97 2.762,-8.24 L 2.749,-8.274 C 2.649,-8.559 2.55,-8.841 2.453,-9.125 L 2.436,-9.172 C 2.341,-9.451 2.248,-9.73 2.156,-10.007 l -0.022,-0.066 c -0.091,-0.276 -0.18,-0.552 -0.268,-0.828 l -0.022,-0.07 C 1.761,-11.231 1.681,-11.492 1.6,-11.752 L 1.551,-11.914 C 1.473,-12.17 1.395,-12.427 1.32,-12.684 L 1.3,-12.753 c -0.078,-0.268 -0.155,-0.534 -0.231,-0.8 l -0.04,-0.14 C 0.959,-13.947 0.888,-14.2 0.82,-14.452 L 0.785,-14.58 c -0.07,-0.256 -0.138,-0.514 -0.205,-0.772 l -0.03,-0.115 c -0.068,-0.264 -0.136,-0.529 -0.202,-0.794 l -0.021,-0.084 c -0.068,-0.276 -0.136,-0.552 -0.202,-0.828 l -0.01,-0.042 c -0.066,-0.281 -0.132,-0.56 -0.196,-0.839 l -0.02,-0.09 c -0.131,-0.58 -0.257,-1.159 -0.377,-1.739 l -0.001,-0.004 C -0.54,-20.183 -0.6,-20.48 -0.658,-20.776 l -0.005,-0.026 c -0.057,-0.285 -0.111,-0.572 -0.164,-0.856 l -0.016,-0.084 c -0.051,-0.275 -0.101,-0.549 -0.15,-0.823 l -0.011,-0.064 c -0.05,-0.284 -0.099,-0.57 -0.147,-0.856 l -10e-4,-0.008 c -0.2,-1.194 -0.377,-2.39 -0.533,-3.588 l -0.01,-0.076 c -0.036,-0.28 -0.072,-0.559 -0.106,-0.838 l -0.005,-0.052 c -0.035,-0.286 -0.069,-0.57 -0.101,-0.857 l -0.004,-0.039 c -0.202,-1.797 -0.36,-3.599 -0.475,-5.401 l -0.004,-0.071 c -0.076,-1.195 -0.135,-2.391 -0.176,-3.589 l -0.001,-0.01 c -0.01,-0.301 -0.02,-0.603 -0.028,-0.903 l -10e-4,-0.009 c -0.008,-0.297 -0.015,-0.593 -0.021,-0.89 l -0.002,-0.094 c -0.005,-0.27 -0.01,-0.541 -0.015,-0.812 l -10e-4,-0.133 c -0.007,-0.565 -0.013,-1.134 -0.013,-1.701 v -0.109 -0.818 l 0.002,-0.022 c 10e-4,-0.59 0.008,-1.18 0.017,-1.77 l 0.005,-0.247 c 0.009,-0.538 0.022,-1.076 0.037,-1.615 l 0.003,-0.135 0.023,-0.77 0.009,-0.222 0.025,-0.701 0.006,-0.157 c 0.021,-0.561 0.046,-1.122 0.073,-1.683 l 10e-4,-0.013 0.042,-0.845 0.004,-0.073 0.046,-0.851 0.005,-0.068 0.051,-0.857 0.004,-0.062 0.055,-0.864 0.004,-0.055 0.06,-0.872 0.003,-0.048 0.064,-0.877 0.003,-0.043 0.068,-0.885 0.003,-0.033 0.072,-0.895 0.002,-0.026 0.076,-0.9 0.001,-0.021 0.02,-0.218 -9.984,0.504 c -0.165,19.222 2.866,37.7 12.71,54.587 l -2.389,-0.375 -0.632,1.508 -0.138,-1.629 -6.597,-1.033 -0.318,4.426 -0.494,-4.553 -6.722,-1.054 -0.081,1.57 -0.567,-1.673 -4.389,-0.687 -0.253,4.305 -1.215,-4.535 -4.205,-0.659 c 1.677,8.617 13.033,12.139 22.446,10.156 l -0.363,0.201 1.825,2.715 -2.354,-2.42 -4.381,2.441 0.665,0.949 -1.088,-0.712 -2.861,1.595 1.809,2.614 -2.765,-2.081 -2.741,1.526 c 6.412,5.563 18.503,-1.524 20.639,-9.891 0.986,0.362 1.981,0.587 2.972,0.687"
             style="fill:#8bb526;fill-opacity:1;fill-rule:evenodd;stroke:none"
             id="path492227" />
        </g>
      </g>
    </g>
  </g>
</svg>
