<svg width="360" height="240" viewBox="0 0 360 240" fill="none" xmlns="http://www.w3.org/2000/svg">
<g clip-path="url(#clip0_310_2898)">
<path d="M260.92 158.953L214.309 134.911C213.606 134.547 213.076 133.92 212.835 133.166C212.594 132.412 212.662 131.593 213.024 130.889L215.907 125.294C216.271 124.591 216.898 124.061 217.651 123.82C218.405 123.579 219.224 123.647 219.927 124.009L266.539 148.051C267.241 148.415 267.771 149.042 268.012 149.796C268.253 150.55 268.185 151.369 267.823 152.073L264.94 157.668C264.761 158.017 264.515 158.327 264.216 158.58C263.916 158.833 263.57 159.024 263.196 159.142C262.9 159.237 262.592 159.285 262.282 159.286C261.808 159.285 261.341 159.171 260.92 158.953Z" fill="white"/>
<path d="M246.71 136.463C247.078 136.319 247.471 136.25 247.866 136.261C248.261 136.271 248.65 136.36 249.01 136.523L264.285 144.972C265.957 145.896 267.21 147.427 267.785 149.249C268.361 151.071 268.214 153.044 267.377 154.761L267.186 154.668L267.377 154.762C266.577 156.403 265.203 157.693 263.516 158.388C261.828 159.083 259.945 159.135 258.222 158.533L241.656 152.74C241.297 152.582 240.973 152.354 240.702 152.07C240.432 151.786 240.219 151.452 240.078 151.086C239.936 150.72 239.868 150.33 239.878 149.938C239.887 149.546 239.974 149.159 240.132 148.8L245.058 138.039C245.144 137.845 245.25 137.66 245.375 137.487C245.712 137.024 246.176 136.668 246.71 136.463Z" fill="#2E457A"/>
<path d="M281.855 133.881C294.455 133.881 304.67 123.661 304.67 111.055C304.67 98.4481 294.455 88.2285 281.855 88.2285C269.254 88.2285 259.039 98.4481 259.039 111.055C259.039 123.661 269.254 133.881 281.855 133.881Z" fill="white"/>
<path d="M279.057 253.014V200.548C279.058 199.756 279.372 198.998 279.932 198.438C280.491 197.878 281.25 197.563 282.041 197.562H288.333C289.124 197.563 289.882 197.878 290.442 198.438C291.001 198.998 291.316 199.756 291.317 200.548V253.014C291.316 253.805 291.001 254.564 290.442 255.124C289.882 255.683 289.124 255.998 288.333 255.999H282.041C281.25 255.998 280.491 255.683 279.932 255.124C279.372 254.564 279.058 253.805 279.057 253.014Z" fill="white"/>
<path d="M265.414 253.014V200.548C265.415 199.756 265.73 198.998 266.289 198.438C266.849 197.878 267.607 197.563 268.398 197.562H274.69C275.481 197.563 276.24 197.878 276.799 198.438C277.359 198.998 277.673 199.756 277.674 200.548V253.014C277.673 253.805 277.359 254.564 276.799 255.124C276.24 255.683 275.481 255.998 274.69 255.999H268.398C267.607 255.998 266.849 255.683 266.289 255.124C265.73 254.564 265.415 253.805 265.414 253.014Z" fill="white"/>
<path d="M282.335 119.515L282.359 118.662C280.773 118.618 279.374 118.519 278.324 117.75C278.026 117.52 277.781 117.229 277.606 116.895C277.431 116.562 277.329 116.195 277.309 115.819C277.29 115.589 277.325 115.359 277.41 115.144C277.495 114.93 277.629 114.739 277.8 114.585C278.498 113.995 279.62 114.186 280.438 114.561L281.143 114.885L279.791 104.994L278.946 105.11L280.097 113.523C278.985 113.196 277.955 113.337 277.25 113.933C276.979 114.17 276.766 114.466 276.629 114.798C276.491 115.131 276.432 115.49 276.457 115.849C276.481 116.354 276.616 116.848 276.852 117.295C277.088 117.743 277.418 118.133 277.821 118.439C279.171 119.427 280.925 119.476 282.335 119.515Z" fill="#2E457A"/>
<path d="M274.768 105.836H270.176V106.689H274.768V105.836Z" fill="#2E457A"/>
<path d="M289.262 105.836H284.67V106.689H289.262V105.836Z" fill="#2E457A"/>
<path d="M303.688 209.23L295.797 157.362C295.679 156.579 295.876 155.782 296.345 155.144C296.814 154.507 297.516 154.081 298.298 153.961L304.519 153.014C305.301 152.896 306.098 153.093 306.736 153.562C307.373 154.031 307.798 154.734 307.918 155.516L315.809 207.385C315.927 208.167 315.73 208.965 315.261 209.602C314.793 210.24 314.09 210.665 313.308 210.785L307.088 211.732C306.7 211.792 306.305 211.774 305.924 211.68C305.544 211.587 305.185 211.419 304.869 211.187C304.554 210.954 304.287 210.662 304.084 210.326C303.882 209.99 303.747 209.618 303.688 209.23V209.23Z" fill="white"/>
<path d="M297.591 175.939C297.258 175.725 296.972 175.448 296.748 175.122C296.525 174.796 296.368 174.429 296.288 174.042L294.148 156.711C293.913 154.815 294.416 152.901 295.551 151.365C296.687 149.829 298.368 148.788 300.249 148.457L300.286 148.667L300.249 148.457C302.047 148.14 303.898 148.494 305.451 149.452C307.005 150.41 308.153 151.905 308.679 153.653L313.726 170.468C313.809 170.851 313.815 171.247 313.744 171.633C313.674 172.019 313.528 172.388 313.315 172.717C313.102 173.046 312.827 173.331 312.504 173.554C312.181 173.776 311.818 173.933 311.435 174.016L299.837 176.35C299.629 176.395 299.417 176.418 299.204 176.418C298.631 176.418 298.071 176.251 297.591 175.939Z" fill="#2E457A"/>
<path d="M298.203 213.43H237.231C236.613 213.43 236.005 213.271 235.465 212.97C234.925 212.668 234.471 212.233 234.146 211.707C233.822 211.18 233.638 210.579 233.611 209.961C233.584 209.343 233.716 208.728 233.994 208.176L263.472 149.527C265.521 145.451 268.883 142.187 273.016 140.261C277.149 138.335 281.81 137.86 286.246 138.913C290.682 139.966 294.634 142.485 297.461 146.063C300.288 149.642 301.826 154.07 301.826 158.631V209.804C301.825 210.766 301.443 211.687 300.764 212.367C300.085 213.046 299.163 213.429 298.203 213.43Z" fill="#2E457A"/>
<path d="M282.664 92.2224C277.993 93.2657 274.054 96.3112 269.357 97.2582C267.217 97.6897 264.861 97.6721 262.895 96.6182C261.44 95.8274 260.327 94.5277 259.768 92.9676C259.217 91.3719 259.074 89.6631 259.355 87.9981C259.636 86.333 260.33 84.7653 261.375 83.439C264.011 80.2105 268.214 78.7229 272.246 78.3036C280.316 77.4645 288.606 80.125 295.174 84.7596C301.956 89.5449 307.159 96.7304 308.905 104.908C309.838 109.28 309.746 113.93 308.153 118.139C306.621 122.167 303.605 125.456 299.725 127.328C298.799 127.775 297.833 128.135 296.841 128.403C296.682 128.452 296.55 128.562 296.47 128.707C296.391 128.853 296.371 129.024 296.415 129.184C296.459 129.344 296.564 129.481 296.707 129.565C296.849 129.649 297.019 129.675 297.181 129.637C301.543 128.445 305.307 125.672 307.739 121.858C310.238 117.859 311.076 112.964 310.691 108.312C309.947 99.3133 305 91.0422 298.086 85.38C291.443 79.9403 282.85 76.6305 274.209 76.8935C269.876 77.0254 265.378 78.1258 262.009 80.9825C260.557 82.2111 259.433 83.7813 258.738 85.5522C258.042 87.323 257.798 89.2389 258.026 91.1277C258.22 92.8947 258.921 94.5678 260.045 95.9446C261.42 97.4981 263.324 98.4823 265.386 98.7041C270.495 99.3695 274.925 96.4722 279.44 94.6099C280.592 94.124 281.785 93.738 283.003 93.4562C283.806 93.2769 283.467 92.043 282.664 92.2224Z" fill="#2E457A"/>
<path d="M295.497 83.1796C293.663 76.3098 298.45 69.1598 304.954 67.0144C308.687 65.8517 312.69 65.8964 316.396 67.1421C320.009 68.3651 323.253 70.484 325.825 73.3011C331.527 79.3695 334.053 87.5599 335.235 95.6352C336.455 103.973 335.766 113.105 340.031 120.682C341.799 123.823 344.423 126.573 347.814 127.926C350.977 129.188 354.767 129.194 357.797 127.554C358.527 127.154 359.201 126.662 359.803 126.088C360.403 125.522 359.498 124.618 358.899 125.183C356.361 127.579 352.579 128.031 349.317 127.091C345.759 126.065 343.021 123.33 341.217 120.18C339.13 116.537 338.261 112.374 337.787 108.242C337.27 103.733 337.07 99.1988 336.38 94.7075C335.134 86.6068 332.441 78.4754 326.73 72.3963C324.117 69.5573 320.86 67.3892 317.234 66.0753C313.5 64.7378 309.454 64.5335 305.605 65.4878C302.106 66.3945 299.022 68.4696 296.863 71.3693C294.765 74.1215 293.698 77.5228 293.848 80.9809C293.903 81.8388 294.042 82.6892 294.264 83.5197C294.313 83.6781 294.422 83.811 294.568 83.8905C294.714 83.9699 294.885 83.9896 295.045 83.9455C295.204 83.9014 295.341 83.7969 295.425 83.654C295.51 83.5111 295.535 83.341 295.497 83.1796L295.497 83.1796Z" fill="#2E457A"/>
<path d="M44.4468 141.35H7.24724C5.32582 141.348 3.48371 140.584 2.12506 139.224C0.766403 137.865 0.00216303 136.022 0 134.1V-14.7495C0.00216303 -16.6718 0.766403 -18.5147 2.12506 -19.874C3.48371 -21.2332 5.32582 -21.9978 7.24724 -22H108.146L126.614 -5.50365V24.4888H125.761V-5.12171L107.821 -21.147H7.24724C5.55187 -21.1451 3.92648 -20.4704 2.72767 -19.2711C1.52886 -18.0717 0.854534 -16.4456 0.852616 -14.7495V134.1C0.854534 135.796 1.52886 137.422 2.72767 138.621C3.92648 139.821 5.55187 140.495 7.24724 140.497H44.4468V141.35Z" fill="#99B8FF"/>
<path d="M111.923 16.5977H14.7249C13.8204 16.5977 12.9529 16.9571 12.3134 17.597C11.6738 18.2369 11.3145 19.1048 11.3145 20.0097C11.3145 20.9146 11.6738 21.7825 12.3134 22.4223C12.9529 23.0622 13.8204 23.4217 14.7249 23.4217H111.923C112.828 23.4217 113.695 23.0622 114.335 22.4223C114.974 21.7825 115.334 20.9146 115.334 20.0097C115.334 19.1048 114.974 18.2369 114.335 17.597C113.695 16.9571 112.828 16.5977 111.923 16.5977Z" fill="#99B8FF"/>
<path d="M62.8977 2.09766H14.7249C13.8204 2.09766 12.9529 2.45713 12.3134 3.09701C11.6738 3.73689 11.3145 4.60475 11.3145 5.50967C11.3145 6.4146 11.6738 7.28245 12.3134 7.92233C12.9529 8.56221 13.8204 8.92169 14.7249 8.92169H62.8977C63.8022 8.92169 64.6697 8.56221 65.3093 7.92233C65.9489 7.28245 66.3082 6.4146 66.3082 5.50967C66.3082 4.60475 65.9489 3.73689 65.3093 3.09701C64.6697 2.45713 63.8022 2.09766 62.8977 2.09766Z" fill="#99B8FF"/>
<path d="M14.7249 45.1738C13.8204 45.1738 12.9529 45.5333 12.3134 46.1732C11.6738 46.8131 11.3145 47.6809 11.3145 48.5858C11.3145 49.4908 11.6738 50.3586 12.3134 50.9985C12.9529 51.6384 13.8204 51.9979 14.7249 51.9979H45.1889V45.1738H14.7249Z" fill="#99B8FF"/>
<path d="M14.7249 30.6738C14.277 30.6738 13.8336 30.7621 13.4198 30.9336C13.006 31.105 12.63 31.3563 12.3134 31.6732C11.9967 31.99 11.7455 32.3662 11.5741 32.7801C11.4027 33.1941 11.3145 33.6378 11.3145 34.0858C11.3145 34.5339 11.4027 34.9776 11.5741 35.3916C11.7455 35.8055 11.9967 36.1817 12.3134 36.4985C12.63 36.8153 13.006 37.0667 13.4198 37.2381C13.8336 37.4096 14.277 37.4979 14.7249 37.4979H45.1889V30.6738H14.7249Z" fill="#99B8FF"/>
<path d="M45.4013 117.467H18.1005C16.2356 117.465 14.4477 116.723 13.129 115.404C11.8103 114.084 11.0685 112.296 11.0664 110.43V74.6037C11.0685 72.7379 11.8103 70.9492 13.129 69.6299C14.4477 68.3106 16.2356 67.5685 18.1005 67.5664H45.4013V117.467Z" fill="#99B8FF"/>
<path d="M89.4214 187.2H52.2218C50.3004 187.198 48.4583 186.433 47.0997 185.074C45.741 183.715 44.9768 181.872 44.9746 179.949V31.1001C44.9768 29.1778 45.741 27.3349 47.0997 25.9756C48.4583 24.6164 50.3004 23.8518 52.2218 23.8496H153.121L171.588 40.346V68.6323H170.735V40.7279L152.795 24.7026H52.2218C50.5265 24.7045 48.9011 25.3792 47.7023 26.5785C46.5035 27.7779 45.8291 29.404 45.8272 31.1001V179.949C45.8291 181.646 46.5035 183.272 47.7023 184.471C48.9011 185.67 50.5265 186.345 52.2218 186.347H89.4214V187.2Z" fill="#99B8FF"/>
<path d="M171.162 40.9097H159.652C157.73 40.9075 155.888 40.1429 154.529 38.7837C153.171 37.4244 152.406 35.5815 152.404 33.6592V24.2761C152.404 24.163 152.449 24.0545 152.529 23.9745C152.609 23.8945 152.718 23.8496 152.831 23.8496C152.944 23.8496 153.052 23.8945 153.132 23.9745C153.212 24.0545 153.257 24.163 153.257 24.2761V33.6592C153.259 35.3553 153.933 36.9814 155.132 38.1808C156.331 39.3801 157.956 40.0548 159.652 40.0567H171.162C171.275 40.0567 171.383 40.1016 171.463 40.1816C171.543 40.2616 171.588 40.3701 171.588 40.4832C171.588 40.5963 171.543 40.7048 171.463 40.7848C171.383 40.8648 171.275 40.9097 171.162 40.9097Z" fill="#99B8FF"/>
<path d="M156.898 62.4473H59.6995C58.795 62.4473 57.9275 62.8068 57.288 63.4466C56.6484 64.0865 56.2891 64.9544 56.2891 65.8593C56.2891 66.7642 56.6484 67.6321 57.288 68.2719C57.9275 68.9118 58.795 69.2713 59.6995 69.2713H156.898C157.802 69.2713 158.67 68.9118 159.309 68.2719C159.949 67.6321 160.308 66.7642 160.308 65.8593C160.308 64.9544 159.949 64.0865 159.309 63.4466C158.67 62.8068 157.802 62.4473 156.898 62.4473Z" fill="#E6E6E6"/>
<path d="M107.872 47.9473H59.6995C58.795 47.9473 57.9275 48.3068 57.288 48.9466C56.6484 49.5865 56.2891 50.4544 56.2891 51.3593C56.2891 52.2642 56.6484 53.1321 57.288 53.7719C57.9275 54.4118 58.795 54.7713 59.6995 54.7713H107.872C108.777 54.7713 109.644 54.4118 110.284 53.7719C110.924 53.1321 111.283 52.2642 111.283 51.3593C111.283 50.4544 110.924 49.5865 110.284 48.9466C109.644 48.3068 108.777 47.9473 107.872 47.9473Z" fill="#E6E6E6"/>
<path d="M156.898 62.4473H59.6995C58.795 62.4473 57.9275 62.8068 57.288 63.4466C56.6484 64.0865 56.2891 64.9544 56.2891 65.8593C56.2891 66.7642 56.6484 67.6321 57.288 68.2719C57.9275 68.9118 58.795 69.2713 59.6995 69.2713H156.898C157.802 69.2713 158.67 68.9118 159.309 68.2719C159.949 67.6321 160.308 66.7642 160.308 65.8593C160.308 64.9544 159.949 64.0865 159.309 63.4466C158.67 62.8068 157.802 62.4473 156.898 62.4473Z" fill="#99B8FF"/>
<path d="M107.872 47.9473H59.6995C58.795 47.9473 57.9275 48.3068 57.288 48.9466C56.6484 49.5865 56.2891 50.4544 56.2891 51.3593C56.2891 52.2642 56.6484 53.1321 57.288 53.7719C57.9275 54.4118 58.795 54.7713 59.6995 54.7713H107.872C108.777 54.7713 109.644 54.4118 110.284 53.7719C110.924 53.1321 111.283 52.2642 111.283 51.3593C111.283 50.4544 110.924 49.5865 110.284 48.9466C109.644 48.3068 108.777 47.9473 107.872 47.9473Z" fill="#99B8FF"/>
<path d="M59.6995 91.0234C58.795 91.0234 57.9275 91.3829 57.288 92.0228C56.6484 92.6627 56.2891 93.5305 56.2891 94.4355C56.2891 95.3404 56.6484 96.2082 57.288 96.8481C57.9275 97.488 58.795 97.8475 59.6995 97.8475H90.1635V91.0234H59.6995Z" fill="#E6E6E6"/>
<path d="M59.6995 76.5215C58.795 76.5215 57.9275 76.881 57.288 77.5209C56.6484 78.1607 56.2891 79.0286 56.2891 79.9335C56.2891 80.8384 56.6484 81.7063 57.288 82.3462C57.9275 82.986 58.795 83.3455 59.6995 83.3455H90.1635V76.5215H59.6995Z" fill="#E6E6E6"/>
<path d="M59.6995 91.0234C58.795 91.0234 57.9275 91.3829 57.288 92.0228C56.6484 92.6627 56.2891 93.5305 56.2891 94.4355C56.2891 95.3404 56.6484 96.2082 57.288 96.8481C57.9275 97.488 58.795 97.8475 59.6995 97.8475H90.1635V91.0234H59.6995Z" fill="#99B8FF"/>
<path d="M59.6995 76.5215C58.795 76.5215 57.9275 76.881 57.288 77.5209C56.6484 78.1607 56.2891 79.0286 56.2891 79.9335C56.2891 80.8384 56.6484 81.7063 57.288 82.3462C57.9275 82.986 58.795 83.3455 59.6995 83.3455H90.1635V76.5215H59.6995Z" fill="#99B8FF"/>
<path d="M90.3778 163.315H63.0771C61.2121 163.313 59.4242 162.571 58.1055 161.251C56.7868 159.932 56.0451 158.143 56.043 156.278V120.451C56.0451 118.586 56.7868 116.797 58.1055 115.478C59.4242 114.158 61.2121 113.416 63.0771 113.414H90.3778V163.315Z" fill="#99B8FF"/>
<path d="M92.7827 70.1248C91.7232 70.7719 90.8476 71.6804 90.2399 72.7634C89.6322 73.8463 89.3129 75.0672 89.3125 76.3091V77.3754H90.1651V76.3091C90.1669 74.8987 90.6336 73.5282 91.493 72.4101C92.3523 71.292 93.5564 70.4888 94.9184 70.1248H92.7827ZM197.458 69.0586H96.5598C94.6384 69.0608 92.7963 69.8255 91.4377 71.1847C90.079 72.544 89.3148 74.3869 89.3125 76.3091V225.158C89.3152 227.081 90.0797 228.923 91.4382 230.282C92.7967 231.641 94.6385 232.406 96.5598 232.409H208.679C210.6 232.406 212.442 231.641 213.8 230.282C215.159 228.923 215.923 227.081 215.926 225.158V85.5557L197.458 69.0586ZM215.073 225.158C215.071 226.855 214.397 228.481 213.198 229.68C211.999 230.879 210.374 231.554 208.679 231.556H96.5597C94.8644 231.554 93.2391 230.879 92.0403 229.68C90.8416 228.481 90.1672 226.855 90.1651 225.158V76.3091C90.1668 74.8987 90.6336 73.5282 91.4929 72.4101C92.3523 71.292 93.5564 70.4888 94.9184 70.1248C95.4538 69.9821 96.0057 69.9104 96.5597 69.9116H197.134L215.073 85.9353V225.158ZM92.7827 70.1248C91.7232 70.7719 90.8476 71.6804 90.2399 72.7634C89.6322 73.8463 89.3129 75.0672 89.3125 76.3091V77.3754H90.1651V76.3091C90.1668 74.8987 90.6336 73.5282 91.4929 72.4101C92.3523 71.292 93.5564 70.4888 94.9184 70.1248H92.7827Z" fill="#99B8FF"/>
<path d="M215.498 86.1187H203.987C202.066 86.1165 200.224 85.3519 198.865 83.9927C197.507 82.6334 196.742 80.7904 196.74 78.8681V69.4851C196.74 69.372 196.785 69.2635 196.865 69.1835C196.945 69.1035 197.053 69.0586 197.167 69.0586C197.28 69.0586 197.388 69.1035 197.468 69.1835C197.548 69.2635 197.593 69.372 197.593 69.4851V78.8681C197.595 80.5643 198.269 82.1904 199.468 83.3898C200.667 84.5891 202.292 85.2638 203.987 85.2657H215.498C215.611 85.2657 215.719 85.3106 215.799 85.3906C215.879 85.4706 215.924 85.5791 215.924 85.6922C215.924 85.8053 215.879 85.9138 215.799 85.9938C215.719 86.0738 215.611 86.1187 215.498 86.1187Z" fill="#99B8FF"/>
<path d="M201.236 114.48H104.037C103.133 114.48 102.265 114.121 101.626 113.481C100.986 112.841 100.627 111.973 100.627 111.068C100.627 110.163 100.986 109.295 101.626 108.656C102.265 108.016 103.133 107.656 104.037 107.656H201.236C202.14 107.656 203.008 108.016 203.647 108.656C204.287 109.295 204.646 110.163 204.646 111.068C204.646 111.973 204.287 112.841 203.647 113.481C203.008 114.121 202.14 114.48 201.236 114.48Z" fill="#99B8FF"/>
<path d="M152.21 99.9803H104.037C103.133 99.9803 102.265 99.6208 101.626 98.9809C100.986 98.3411 100.627 97.4732 100.627 96.5683C100.627 95.6633 100.986 94.7955 101.626 94.1556C102.265 93.5157 103.133 93.1562 104.037 93.1562H152.21C153.115 93.1562 153.982 93.5157 154.622 94.1556C155.261 94.7955 155.621 95.6633 155.621 96.5683C155.621 97.4732 155.261 98.3411 154.622 98.9809C153.982 99.6208 153.115 99.9803 152.21 99.9803Z" fill="#99B8FF"/>
<path d="M201.236 143.056H104.037C103.133 143.056 102.265 142.697 101.626 142.057C100.986 141.417 100.627 140.549 100.627 139.644C100.627 138.74 100.986 137.872 101.626 137.232C102.265 136.592 103.133 136.232 104.037 136.232H201.236C202.14 136.232 203.008 136.592 203.647 137.232C204.287 137.872 204.646 138.74 204.646 139.644C204.646 140.549 204.287 141.417 203.647 142.057C203.008 142.697 202.14 143.056 201.236 143.056Z" fill="#99B8FF"/>
<path d="M152.21 128.555H104.037C103.133 128.555 102.265 128.195 101.626 127.555C100.986 126.915 100.627 126.047 100.627 125.142C100.627 124.238 100.986 123.37 101.626 122.73C102.265 122.09 103.133 121.73 104.037 121.73H152.21C153.115 121.73 153.982 122.09 154.622 122.73C155.261 123.37 155.621 124.238 155.621 125.142C155.621 126.047 155.261 126.915 154.622 127.555C153.982 128.195 153.115 128.555 152.21 128.555Z" fill="#99B8FF"/>
<path d="M197.79 208.524H107.413C105.548 208.522 103.76 207.78 102.441 206.46C101.123 205.141 100.381 203.352 100.379 201.487V165.66C100.381 163.795 101.123 162.006 102.441 160.687C103.76 159.367 105.548 158.625 107.413 158.623H197.79C199.655 158.625 201.443 159.367 202.762 160.687C204.08 162.006 204.822 163.795 204.824 165.66V201.487C204.822 203.352 204.081 205.141 202.762 206.46C201.443 207.78 199.655 208.522 197.79 208.524Z" fill="#99B8FF"/>
</g>
<defs>
<clipPath id="clip0_310_2898">
<rect width="360" height="278" fill="white" transform="translate(0 -22)"/>
</clipPath>
</defs>
</svg>
