<svg width="54" height="38" viewBox="0 0 54 38" fill="none" xmlns="http://www.w3.org/2000/svg">
<path d="M12.6562 0.197266C5.67759 0.197266 0 5.87486 0 12.8535C0 19.2248 4.73228 24.5116 10.8664 25.3836C10.3738 28.9531 9.01252 32.3516 6.88574 35.2932C6.47051 35.8673 6.4878 36.6476 6.92793 37.2028C7.36794 37.7581 8.12362 37.953 8.77753 37.6798C13.6142 35.6593 17.7319 32.2914 20.6855 27.9401C23.7124 23.4804 25.3124 18.2635 25.3124 12.8534C25.3125 5.87475 19.6349 0.197266 12.6562 0.197266ZM12.2682 32.1351C13.2939 29.6965 13.9324 27.1034 14.152 24.444C14.5085 23.4095 13.7314 22.2764 12.515 22.3448C7.346 22.2687 3.16406 18.0402 3.16406 12.8535C3.16406 7.61952 7.42226 3.36133 12.6562 3.36133C17.8902 3.36133 22.1484 7.61952 22.1484 12.8535C22.1484 20.6273 18.3974 27.7417 12.2682 32.1351ZM41.3438 0.197266C34.3651 0.197266 28.6875 5.87486 28.6875 12.8535C28.6875 19.2248 33.4198 24.5116 39.5539 25.3836C39.0613 28.9531 37.7 32.3516 35.5732 35.2932C35.158 35.8673 35.1753 36.6476 35.6154 37.2028C36.0554 37.7581 36.8111 37.953 37.465 37.6798C42.3017 35.6593 46.4194 32.2914 49.373 27.9401C52.3999 23.4804 53.9999 18.2635 53.9999 12.8534C54 5.87475 48.3224 0.197266 41.3438 0.197266ZM40.9557 32.1351C41.9814 29.6965 42.6199 27.1034 42.8395 24.444C43.1965 23.4082 42.4179 22.2765 41.2025 22.3448C36.0335 22.2688 31.8516 18.0404 31.8516 12.8536C31.8516 7.61963 36.1098 3.36143 41.3438 3.36143C46.5777 3.36143 50.8359 7.61963 50.8359 12.8536C50.8359 20.6273 47.0849 27.7417 40.9557 32.1351Z" fill="#2E457A"/>
</svg>
