<svg width="54" height="54" viewBox="0 0 54 54" fill="none" xmlns="http://www.w3.org/2000/svg">
<path d="M5.49998 12.9993C8.66665 10.666 16.1 7.49933 20.5 13.4993C26 20.9993 25 34.4993 9.49998 43.4993C11.7412 34.5342 12.4127 32.139 12.4918 31.997C6.3244 30.3272 -3.69593 24.1944 5.49998 12.9993Z" fill="#C7D8FF"/>
<path d="M34.7148 12.9505C37.8815 10.6172 45.3148 7.4505 49.7148 13.4505C55.2148 20.9505 54.2148 34.4504 38.7148 43.4504C40.9561 34.4854 41.6276 32.0901 41.7066 31.9482C35.5392 30.2784 25.5189 24.1456 34.7148 12.9505Z" fill="#C7D8FF"/>
<path d="M12.6562 8.19727C5.67759 8.19727 0 13.8749 0 20.8535C0 27.2248 4.73228 32.5116 10.8664 33.3836C10.3738 36.9531 9.01252 40.3516 6.88574 43.2932C6.47051 43.8673 6.4878 44.6476 6.92793 45.2028C7.36794 45.7581 8.12362 45.953 8.77753 45.6798C13.6142 43.6593 17.7319 40.2914 20.6855 35.9401C23.7124 31.4804 25.3124 26.2635 25.3124 20.8534C25.3125 13.8748 19.6349 8.19727 12.6562 8.19727V8.19727ZM12.2682 40.1351C13.2939 37.6965 13.9324 35.1034 14.152 32.444C14.5085 31.4095 13.7314 30.2764 12.515 30.3448C7.346 30.2687 3.16406 26.0402 3.16406 20.8535C3.16406 15.6195 7.42226 11.3613 12.6562 11.3613C17.8902 11.3613 22.1484 15.6195 22.1484 20.8535C22.1484 28.6273 18.3974 35.7417 12.2682 40.1351ZM41.3438 8.19727C34.3651 8.19727 28.6875 13.8749 28.6875 20.8535C28.6875 27.2248 33.4198 32.5116 39.5539 33.3836C39.0613 36.9531 37.7 40.3516 35.5732 43.2932C35.158 43.8673 35.1753 44.6476 35.6154 45.2028C36.0554 45.7581 36.8111 45.953 37.465 45.6798C42.3017 43.6593 46.4194 40.2914 49.373 35.9401C52.3999 31.4804 53.9999 26.2635 53.9999 20.8534C54 13.8748 48.3224 8.19727 41.3438 8.19727V8.19727ZM40.9557 40.1351C41.9814 37.6965 42.6199 35.1034 42.8395 32.444C43.1965 31.4082 42.418 30.2765 41.2025 30.3448C36.0335 30.2688 31.8516 26.0404 31.8516 20.8536C31.8516 15.6196 36.1098 11.3614 41.3438 11.3614C46.5777 11.3614 50.8359 15.6196 50.8359 20.8536C50.8359 28.6273 47.0849 35.7417 40.9557 40.1351Z" fill="#2E457A"/>
</svg>
