<svg width="296" height="103" viewBox="0 0 296 103" fill="none" xmlns="http://www.w3.org/2000/svg">
<rect width="296" height="102" transform="translate(0 0.300781)" fill="white"/>
<rect opacity="0.25" x="115" y="34.3008" width="68" height="68" rx="12" fill="#FFDCBE"/>
<rect opacity="0.25" x="81" y="0.300781" width="68" height="68" rx="12" fill="#FFDCBE"/>
<path d="M161.099 43.3008C160.566 43.3008 160.133 43.1501 159.799 42.8488C159.466 42.5501 159.233 42.1674 159.099 41.7008L158.599 39.1008C157.999 38.9008 157.45 38.6501 156.951 38.3488C156.45 38.0501 155.999 37.7008 155.599 37.3008L152.899 38.2008C152.499 38.3341 152.083 38.3168 151.651 38.1488C151.217 37.9834 150.866 37.7008 150.599 37.3008L149.399 35.3008C149.133 34.9008 149.05 34.4674 149.151 34.0008C149.25 33.5341 149.466 33.1341 149.799 32.8008L151.999 30.9008C151.866 30.5674 151.799 30.3008 151.799 30.1008V28.5008C151.799 28.3008 151.866 28.0341 151.999 27.7008L149.799 25.8008C149.466 25.4674 149.25 25.0674 149.151 24.6008C149.05 24.1341 149.133 23.7008 149.399 23.3008L150.599 21.3008C150.866 20.9008 151.217 20.6168 151.651 20.4488C152.083 20.2834 152.499 20.2674 152.899 20.4008L155.599 21.3008C155.999 20.9008 156.45 20.5501 156.951 20.2488C157.45 19.9501 157.999 19.7008 158.599 19.5008L159.099 16.9008C159.233 16.4341 159.466 16.0501 159.799 15.7488C160.133 15.4501 160.566 15.3008 161.099 15.3008H163.299C163.833 15.3008 164.266 15.4501 164.599 15.7488C164.933 16.0501 165.166 16.4341 165.299 16.9008L165.799 19.5008C166.399 19.7008 166.95 19.9501 167.451 20.2488C167.95 20.5501 168.399 20.9008 168.799 21.3008L171.499 20.4008C171.899 20.2674 172.317 20.2834 172.751 20.4488C173.183 20.6168 173.533 20.9008 173.799 21.3008L174.999 23.3008C175.266 23.7008 175.349 24.1341 175.247 24.6008C175.149 25.0674 174.933 25.4674 174.599 25.8008L172.399 27.7008C172.533 28.0341 172.599 28.3008 172.599 28.5008V30.1008C172.599 30.3008 172.533 30.5674 172.399 30.9008L174.599 32.8008C174.933 33.1341 175.149 33.5341 175.247 34.0008C175.349 34.4674 175.266 34.9008 174.999 35.3008L173.799 37.3008C173.533 37.7008 173.183 37.9834 172.751 38.1488C172.317 38.3168 171.899 38.3341 171.499 38.2008L168.799 37.3008C168.399 37.7008 167.95 38.0501 167.451 38.3488C166.95 38.6501 166.399 38.9008 165.799 39.1008L165.299 41.7008C165.166 42.1674 164.933 42.5501 164.599 42.8488C164.266 43.1501 163.833 43.3008 163.299 43.3008H161.099ZM162.199 34.3008C163.599 34.3008 164.783 33.8168 165.751 32.8488C166.717 31.8834 167.199 30.7008 167.199 29.3008C167.199 27.9008 166.717 26.7168 165.751 25.7488C164.783 24.7834 163.599 24.3008 162.199 24.3008C160.799 24.3008 159.617 24.7834 158.651 25.7488C157.683 26.7168 157.199 27.9008 157.199 29.3008C157.199 30.7008 157.683 31.8834 158.651 32.8488C159.617 33.8168 160.799 34.3008 162.199 34.3008ZM150.999 63.3008C150.866 63.3008 150.533 63.0341 149.999 62.5008L149.599 60.3008C149.199 60.1674 148.817 60.0168 148.451 59.8488C148.083 59.6834 147.733 59.4341 147.399 59.1008L145.399 59.8008C145.266 59.8674 144.866 59.7341 144.199 59.4008L142.999 57.2008L143.199 56.0008L144.799 54.5008V52.1008L143.199 50.6008C143.066 50.4674 142.999 50.0674 142.999 49.4008L144.199 47.2008C144.199 47.1341 144.599 47.0008 145.399 46.8008L147.399 47.5008C147.666 47.2341 147.999 47.0008 148.399 46.8008C148.799 46.6008 149.199 46.4341 149.599 46.3008L149.999 44.1008C149.999 43.9674 150.333 43.7008 150.999 43.3008H153.399C153.533 43.3008 153.866 43.5674 154.399 44.1008L154.799 46.3008C155.199 46.4341 155.599 46.6008 155.999 46.8008C156.399 47.0008 156.733 47.2341 156.999 47.5008L158.999 46.8008C159.133 46.7341 159.533 46.8674 160.199 47.2008L161.399 49.4008L161.199 50.6008L159.599 52.1008V54.5008L161.199 56.0008C161.333 56.1341 161.399 56.5341 161.399 57.2008L160.199 59.4008C160.199 59.4674 159.799 59.6008 158.999 59.8008L156.999 59.1008C156.666 59.4341 156.317 59.6834 155.951 59.8488C155.583 60.0168 155.199 60.1674 154.799 60.3008L154.399 62.5008C154.399 62.6341 154.066 62.9008 153.399 63.3008H150.999ZM152.199 56.3008C152.999 56.3008 153.699 56.0008 154.299 55.4008C154.899 54.8008 155.199 54.1008 155.199 53.3008C155.199 52.5008 154.899 51.8008 154.299 51.2008C153.699 50.6008 152.999 50.3008 152.199 50.3008C151.399 50.3008 150.699 50.6008 150.099 51.2008C149.499 51.8008 149.199 52.5008 149.199 53.3008C149.199 54.1008 149.499 54.8008 150.099 55.4008C150.699 56.0008 151.399 56.3008 152.199 56.3008ZM120.199 55.3008C115.799 55.3008 112.033 53.7341 108.899 50.6008C105.766 47.4674 104.199 43.7008 104.199 39.3008H103.199C102.599 39.3008 102.117 39.1181 101.751 38.7528C101.383 38.3848 101.199 37.9008 101.199 37.3008C101.199 36.7008 101.383 36.2168 101.751 35.8488C102.117 35.4834 102.599 35.3008 103.199 35.3008H104.199C104.199 32.3008 104.933 29.6008 106.399 27.2008C107.866 24.8008 109.799 22.9008 112.199 21.5008V25.3008C112.199 25.9008 112.383 26.3834 112.751 26.7488C113.117 27.1168 113.599 27.3008 114.199 27.3008C114.799 27.3008 115.283 27.1168 115.651 26.7488C116.017 26.3834 116.199 25.9008 116.199 25.3008V19.9008C116.799 19.7008 117.433 19.5501 118.099 19.4488C118.766 19.3501 119.466 19.3008 120.199 19.3008C120.933 19.3008 121.633 19.3501 122.299 19.4488C122.966 19.5501 123.599 19.7008 124.199 19.9008V25.3008C124.199 25.9008 124.383 26.3834 124.751 26.7488C125.117 27.1168 125.599 27.3008 126.199 27.3008C126.799 27.3008 127.283 27.1168 127.651 26.7488C128.017 26.3834 128.199 25.9008 128.199 25.3008V21.5008C130.599 22.9008 132.533 24.8008 133.999 27.2008C135.466 29.6008 136.199 32.3008 136.199 35.3008H137.199C137.799 35.3008 138.283 35.4834 138.651 35.8488C139.017 36.2168 139.199 36.7008 139.199 37.3008C139.199 37.9008 139.017 38.3848 138.651 38.7528C138.283 39.1181 137.799 39.3008 137.199 39.3008H136.199C136.199 43.7008 134.633 47.4674 131.499 50.6008C128.366 53.7341 124.599 55.3008 120.199 55.3008ZM120.199 47.3008C122.399 47.3008 124.283 46.5168 125.851 44.9488C127.417 43.3834 128.199 41.5008 128.199 39.3008H112.199C112.199 41.5008 112.983 43.3834 114.551 44.9488C116.117 46.5168 117.999 47.3008 120.199 47.3008ZM88.1992 87.3008V76.1008C88.1992 73.9008 88.7659 71.8341 89.8992 69.9008C91.0326 67.9674 92.5992 66.5008 94.5992 65.5008C97.9992 63.7674 101.833 62.3008 106.099 61.1008C110.366 59.9008 115.066 59.3008 120.199 59.3008C125.333 59.3008 130.033 59.9008 134.299 61.1008C138.566 62.3008 142.399 63.7674 145.799 65.5008C147.799 66.5008 149.366 67.9674 150.499 69.9008C151.633 71.8341 152.199 73.9008 152.199 76.1008V87.3008H88.1992Z" fill="#FF9942"/>
</svg>
