<svg width="296" height="103" viewBox="0 0 296 103" fill="none" xmlns="http://www.w3.org/2000/svg">
<rect width="296" height="102" transform="translate(0 0.300781)" fill="white"/>
<rect opacity="0.25" x="115" y="34.3008" width="68" height="68" rx="12" fill="#E8FFCF"/>
<rect opacity="0.25" x="81" y="0.300781" width="68" height="68" rx="12" fill="#E8FFCF"/>
<g clip-path="url(#clip0_383_4707)">
<path fill-rule="evenodd" clip-rule="evenodd" d="M132 4.43359L131.309 5.63359L124.615 17.2131H129.6V58.4739L93.8659 79.1043L91.3728 74.7862L84 87.5725H85.3834L98.76 87.5802L96.2659 83.2621L132 62.6317L167.734 83.2621L165.24 87.5802L180 87.5725L179.309 86.3725L172.627 74.7862L170.134 79.1053L134.4 58.4749V17.2122H139.385L132 4.43359Z" fill="#7EB93A"/>
<path fill-rule="evenodd" clip-rule="evenodd" d="M131.096 30.6135L103.02 49.0253C102.373 49.4929 102.199 50.0247 102.188 50.5085V78.0221C102.188 78.6269 102.502 79.1895 103.02 79.5053L131.096 97.9162C131.773 98.2858 132.461 98.2234 132.918 97.9066L160.981 79.5053C161.235 79.3502 161.445 79.1323 161.591 78.8725C161.737 78.6128 161.813 78.32 161.813 78.0221V50.5085C161.807 49.7751 161.496 49.3882 160.954 49.0071L132.905 30.6135C132.236 30.2324 131.712 30.4138 131.096 30.6135ZM132 34.1271L156.495 50.3569L131.985 66.8746L107.261 50.5076L132 34.1271ZM105.658 53.5988L130.265 69.8957V93.3437L105.66 77.0468L105.658 53.5988ZM158.343 53.5988V77.0458L133.736 93.3428V69.8938L158.343 53.5988Z" fill="#7EB93A"/>
</g>
<defs>
<clipPath id="clip0_383_4707">
<rect width="96" height="96" fill="white" transform="translate(84 3.30078)"/>
</clipPath>
</defs>
</svg>
