<svg width="296" height="103" viewBox="0 0 296 103" fill="none" xmlns="http://www.w3.org/2000/svg">
<rect width="296" height="102" transform="translate(0 0.300781)" fill="white"/>
<rect opacity="0.25" x="115" y="34.3008" width="68" height="68" rx="12" fill="#FFDCBE"/>
<rect opacity="0.25" x="81" y="0.300781" width="68" height="68" rx="12" fill="#FFDCBE"/>
<path d="M162 9.30078H174V21.3008H162V9.30078ZM162 27.3008H174V39.3008H162V27.3008ZM144 9.30078H156V21.3008H144V9.30078ZM144 27.3008H156V39.3008H144V27.3008Z" fill="#FF9942"/>
<path d="M168 51.3008V69.3008H96V21.3008H132V15.3008H96C94.4087 15.3008 92.8826 15.9329 91.7574 17.0581C90.6321 18.1834 90 19.7095 90 21.3008V69.3008C90 70.8921 90.6321 72.4182 91.7574 73.5434C92.8826 74.6686 94.4087 75.3008 96 75.3008H120V87.3008H108V93.3008H156V87.3008H144V75.3008H168C169.591 75.3008 171.117 74.6686 172.243 73.5434C173.368 72.4182 174 70.8921 174 69.3008V51.3008H168ZM138 87.3008H126V75.3008H138V87.3008Z" fill="#FF9942"/>
</svg>
