<svg width="21" height="20" viewBox="0 0 21 20" fill="none" xmlns="http://www.w3.org/2000/svg">
<path d="M20.2498 10.0007C20.245 12.3828 19.3708 14.6812 17.7913 16.4643C16.2119 18.2475 14.0358 19.3927 11.6717 19.6851C11.619 19.6903 11.5657 19.6845 11.5153 19.6681C11.4649 19.6517 11.4184 19.625 11.3788 19.5898C11.3392 19.5546 11.3073 19.5116 11.2851 19.4634C11.2629 19.4153 11.2509 19.3631 11.2498 19.3101V12.2507H13.4998C13.6024 12.2509 13.7039 12.2301 13.7981 12.1895C13.8923 12.1489 13.9772 12.0894 14.0475 12.0147C14.1178 11.94 14.172 11.8517 14.2068 11.7552C14.2416 11.6588 14.2563 11.5562 14.2498 11.4538C14.2333 11.2599 14.1437 11.0795 13.9993 10.949C13.8549 10.8185 13.6663 10.7476 13.4717 10.7507H11.2498V8.50069C11.2498 8.10287 11.4079 7.72134 11.6892 7.44003C11.9705 7.15873 12.352 7.00069 12.7498 7.00069H14.2498C14.3524 7.00089 14.4539 6.98006 14.5481 6.93947C14.6423 6.89888 14.7272 6.83941 14.7975 6.76472C14.8678 6.69003 14.922 6.60172 14.9568 6.50525C14.9916 6.40877 15.0063 6.30618 14.9998 6.20382C14.9833 6.00988 14.8937 5.82946 14.7493 5.69897C14.6049 5.56847 14.4163 5.49761 14.2217 5.50069H12.7498C11.9542 5.50069 11.1911 5.81676 10.6285 6.37937C10.0659 6.94198 9.74985 7.70504 9.74985 8.50069V10.7507H7.49985C7.39729 10.7505 7.29577 10.7713 7.20158 10.8119C7.10739 10.8525 7.02253 10.912 6.95223 10.9867C6.88194 11.0614 6.82771 11.1497 6.7929 11.2461C6.75809 11.3426 6.74344 11.4452 6.74985 11.5476C6.76644 11.7415 6.85598 11.9219 7.0004 12.0524C7.14481 12.1829 7.33336 12.2538 7.52797 12.2507H9.74985V19.3101C9.75011 19.3626 9.73932 19.4147 9.71818 19.4628C9.69703 19.5109 9.666 19.5541 9.62711 19.5894C9.58821 19.6248 9.54231 19.6516 9.49239 19.6681C9.44248 19.6845 9.38965 19.6903 9.33735 19.6851C4.38735 19.0851 0.562349 14.7819 0.759224 9.63507C0.869739 7.0933 1.9694 4.69541 3.82347 2.95323C5.67755 1.21105 8.13917 0.262593 10.6829 0.310311C13.2266 0.358029 15.6509 1.39814 17.4384 3.20863C19.2258 5.01912 20.2347 7.45657 20.2498 10.0007Z" fill="white"/>
</svg>
