<svg width="21" height="19" viewBox="0 0 21 19" fill="none" xmlns="http://www.w3.org/2000/svg">
<path d="M20.5336 4.28446L17.7024 7.10634C17.1399 13.6595 11.6086 18.7501 4.99927 18.7501C3.6399 18.7501 2.5149 18.5345 1.66177 18.1126C0.977398 17.7657 0.696148 17.4001 0.621148 17.2876C0.559095 17.1933 0.519109 17.0863 0.50417 16.9744C0.489231 16.8626 0.499724 16.7488 0.534868 16.6416C0.570011 16.5344 0.628899 16.4364 0.707143 16.3551C0.785387 16.2738 0.880971 16.2112 0.986773 16.172C1.00552 16.1626 3.21802 15.3188 4.6524 13.697C3.76284 13.0636 2.98098 12.2912 2.33677 11.4095C1.0524 9.66571 -0.306977 6.63759 0.508648 2.11884C0.534288 1.9845 0.595732 1.85958 0.68649 1.75727C0.777247 1.65496 0.89395 1.57906 1.02427 1.53759C1.15501 1.49478 1.295 1.48875 1.42894 1.52017C1.56287 1.55159 1.68558 1.61923 1.78365 1.71571C1.81177 1.75321 4.93365 4.82821 8.74927 5.82196V5.25009C8.75296 4.65544 8.87373 4.06735 9.1047 3.51938C9.33566 2.97141 9.6723 2.4743 10.0954 2.05643C10.5185 1.63857 11.0197 1.30813 11.5705 1.08398C12.1213 0.859841 12.7109 0.746383 13.3055 0.750088C14.086 0.761219 14.8502 0.974321 15.5239 1.36863C16.1975 1.76294 16.7575 2.32502 17.1493 3.00009H19.9993C20.1473 2.99962 20.2922 3.043 20.4157 3.12475C20.5392 3.2065 20.6356 3.32296 20.693 3.45946C20.7471 3.598 20.7608 3.749 20.7326 3.895C20.7044 4.04099 20.6354 4.17602 20.5336 4.28446Z" fill="white"/>
</svg>
