<svg width="22" height="18" viewBox="0 0 22 18" fill="none" xmlns="http://www.w3.org/2000/svg">
<path d="M20.9656 3.54336C20.8795 3.19773 20.7108 2.87814 20.474 2.612C20.2373 2.34585 19.9395 2.14108 19.6063 2.01524C16.4 0.777736 11.2812 0.787111 11 0.787111C10.7188 0.787111 5.6 0.777736 2.39375 2.01524C2.06051 2.14108 1.76275 2.34585 1.52599 2.612C1.28923 2.87814 1.12054 3.19773 1.03438 3.54336C0.790625 4.47149 0.5 6.17774 0.5 8.99961C0.5 11.8215 0.790625 13.5277 1.03438 14.4559C1.12054 14.8015 1.28923 15.1211 1.52599 15.3872C1.76275 15.6534 2.06051 15.8581 2.39375 15.984C5.46875 17.1746 10.2875 17.2121 10.9344 17.2121H11.0656C11.7125 17.2121 16.5312 17.1746 19.6063 15.984C19.9395 15.8581 20.2373 15.6534 20.474 15.3872C20.7108 15.1211 20.8795 14.8015 20.9656 14.4559C21.2094 13.5277 21.5 11.8215 21.5 8.99961C21.5 6.17774 21.2094 4.47149 20.9656 3.54336ZM14.2062 9.30899L9.70625 12.309C9.64657 12.3529 9.57409 12.376 9.5 12.3746C9.4379 12.3723 9.37707 12.3563 9.32187 12.3277C9.26195 12.2966 9.21184 12.2494 9.17708 12.1915C9.14233 12.1336 9.1243 12.0672 9.125 11.9996V5.99961C9.1243 5.93207 9.14233 5.86566 9.17708 5.80774C9.21184 5.74982 9.26195 5.70266 9.32187 5.67149C9.38166 5.63959 9.44897 5.62449 9.51665 5.6278C9.58433 5.6311 9.64985 5.65268 9.70625 5.69024L14.2062 8.69024C14.2585 8.72317 14.3016 8.76882 14.3315 8.82292C14.3614 8.87703 14.377 8.93781 14.377 8.99961C14.377 9.06141 14.3614 9.1222 14.3315 9.1763C14.3016 9.2304 14.2585 9.27605 14.2062 9.30899Z" fill="white"/>
</svg>
