<svg width="33" height="26" viewBox="0 0 33 26" fill="none" xmlns="http://www.w3.org/2000/svg">
<path d="M30.156 24.5625H2.84375C1.80825 24.5625 0.96875 23.7231 0.96875 22.6875V3.3125C0.96875 2.277 1.80819 1.4375 2.84375 1.4375H30.156C31.1915 1.4375 32.031 2.27694 32.031 3.3125V22.6875C32.031 23.7231 31.1916 24.5625 30.156 24.5625Z" fill="#FAFAFA"/>
<path d="M4.71875 24.5624L30.4144 5.47266V24.5624H4.71875Z" fill="#F5F5F5"/>
<path d="M4.71875 24.5625H2.84375C1.80825 24.5625 0.96875 23.7231 0.96875 22.6875V3.3125C0.96875 2.277 1.80819 1.4375 2.84375 1.4375H4.71875V24.5625Z" fill="#F44336"/>
<path d="M2.84375 1.4375H4.71875V24.5625H2.84375V1.4375Z" fill="#E53935"/>
<path d="M28.2812 24.5625H30.1562C31.1918 24.5625 32.0312 23.7231 32.0312 22.6875V3.3125C32.0312 2.277 31.1918 1.4375 30.1562 1.4375H28.2812V24.5625Z" fill="#F44336"/>
<path d="M30.1562 1.4375H28.2812C29.3168 1.4375 30.1562 2.27694 30.1562 3.3125V22.6875C30.1562 23.7231 29.3168 24.5625 28.2812 24.5625H30.1562C31.1918 24.5625 32.0312 23.7231 32.0312 22.6875V3.3125C32.0312 2.27694 31.1918 1.4375 30.1562 1.4375Z" fill="#E53935"/>
<path d="M2.84375 1.4375H30.156V3.31419L16.4999 13.4807L2.84375 2.87019V1.4375Z" fill="#FAFAFA"/>
<path d="M31.66 2.19496C31.0418 1.36427 29.8671 1.19221 29.0364 1.81065L16.5 11.1436L3.96348 1.81058C3.13285 1.19221 1.95823 1.36427 1.33985 2.1949C0.721542 3.02552 0.893542 4.20015 1.72417 4.81858L15.3803 14.9851C15.7125 15.2325 16.1062 15.3562 16.4999 15.3562C16.8937 15.3562 17.2874 15.2325 17.6196 14.9851L31.2757 4.81858C32.1064 4.20021 32.2785 3.02558 31.66 2.19496Z" fill="#F44336"/>
<path d="M31.6601 2.19463C31.0859 1.42319 30.0319 1.22019 29.2191 1.6905C29.4339 1.81444 29.6276 1.98306 29.7851 2.19463C30.4034 3.02525 30.2314 4.19988 29.4008 4.81831L15.7447 14.9848C15.6859 15.0286 15.6247 15.067 15.5625 15.103C15.8523 15.2706 16.1759 15.3559 16.5 15.3559C16.8937 15.3559 17.2874 15.2322 17.6197 14.9848L31.2758 4.81825C32.1064 4.19988 32.2785 3.02525 31.6601 2.19463Z" fill="#E53935"/>
<path d="M32.0312 7.47356C32.2902 7.47356 32.5 7.26369 32.5 7.00481V3.3125C32.5 2.02013 31.4486 0.96875 30.1562 0.96875H2.84375C1.55138 0.96875 0.5 2.02013 0.5 3.3125V18.9342C0.5 19.1932 0.709875 19.403 0.96875 19.403C1.22763 19.403 1.4375 19.1932 1.4375 18.9342V5.18894C1.43981 5.19069 1.44188 5.1925 1.44419 5.19419L4.25 7.283V24.0938H2.84375C2.06831 24.0938 1.4375 23.4629 1.4375 22.6875V21.0497C1.4375 20.7908 1.22763 20.5809 0.96875 20.5809C0.709875 20.5809 0.5 20.7908 0.5 21.0497V22.6875C0.5 23.9799 1.55138 25.0312 2.84375 25.0312H30.1562C31.4486 25.0312 32.5 23.9799 32.5 22.6875V8.97275C32.5 8.71387 32.2902 8.504 32.0312 8.504C31.7723 8.504 31.5625 8.71387 31.5625 8.97275V22.6875C31.5625 23.4629 30.9316 24.0938 30.1562 24.0938H28.7501V7.283L31.5559 5.19419C31.5582 5.19244 31.5602 5.19069 31.5625 5.189V7.00481C31.5625 7.26369 31.7723 7.47356 32.0312 7.47356ZM27.8125 24.0938H5.1875V7.98094L15.1004 15.3607C15.5079 15.6641 15.9919 15.8245 16.5 15.8245C17.0081 15.8245 17.4921 15.6641 17.8996 15.3607L27.8125 7.98094V24.0938ZM31.5477 3.51806C31.4932 3.88975 31.2973 4.21794 30.9961 4.44225L17.3398 14.6088C17.0953 14.7908 16.8049 14.8871 16.5 14.8871C16.1952 14.8871 15.9047 14.7909 15.6602 14.6088L2.004 4.44225C1.38206 3.97925 1.25269 3.0965 1.71575 2.4745C1.94006 2.17319 2.26825 1.97725 2.63994 1.92281C3.01162 1.86837 3.38219 1.96194 3.6835 2.18625L6.43119 4.23181C6.63875 4.38631 6.9325 4.34337 7.08712 4.13569C7.24169 3.92806 7.19869 3.63438 6.991 3.47975L4.87738 1.90625H28.1226L16.5 10.5589L8.59937 4.67712C8.39175 4.52256 8.098 4.5655 7.94344 4.77325C7.78888 4.98088 7.83188 5.27456 8.03956 5.42919L16.2201 11.5193C16.3863 11.643 16.6139 11.643 16.7799 11.5193L29.3164 2.18619C29.6177 1.96187 29.9881 1.86819 30.3601 1.92275C30.7317 1.97719 31.0599 2.17313 31.2842 2.4745C31.5086 2.77581 31.6021 3.14638 31.5477 3.51806Z" fill="black"/>
</svg>
