<svg width="32" height="32" viewBox="0 0 32 32" fill="none" xmlns="http://www.w3.org/2000/svg">
<g clip-path="url(#clip0_386_5896)">
<path d="M4.52223 1.61553L2.75179 3.87066C-0.36771 7.84435 -0.0270226 13.522 3.54516 17.0943L14.9042 28.4533C18.4764 32.0255 24.1542 32.3662 28.1279 29.2467L30.383 27.4764C31.6045 26.5175 31.7132 24.7065 30.615 23.6083L25.6655 18.6588C24.6542 17.6475 23.0146 17.6475 22.0032 18.6588L20.393 20.2691C19.6326 21.0295 18.3999 21.0295 17.6395 20.2691L11.7255 14.3551C10.9652 13.5947 10.9652 12.362 11.7255 11.6017L13.3358 9.99141C14.3471 8.9801 14.3471 7.34047 13.3358 6.3291L8.39029 1.3836C7.2921 0.285409 5.48116 0.394034 4.52223 1.61553Z" fill="#7EB93A"/>
<path d="M25.666 18.6589C24.6547 17.6476 23.0151 17.6476 22.0037 18.6589L20.3934 20.2691C20.3746 20.2879 20.3553 20.3059 20.3359 20.3238L28.7617 28.7496L30.3834 27.4765C31.605 26.5176 31.7136 24.7066 30.6155 23.6084L25.666 18.6589Z" fill="#B9FD6A"/>
<path d="M8.39113 1.38349C7.29306 0.285429 5.48206 0.394054 4.52312 1.61555L3.25 3.2373L11.6718 11.6591C11.6896 11.6397 11.7076 11.6204 11.7264 11.6016L13.3367 9.9913C14.348 8.97999 14.348 7.34037 13.3367 6.32899L8.39113 1.38349Z" fill="#B9FD6A"/>
<path d="M31.0584 23.1663L26.1089 18.2167C24.8554 16.9633 22.816 16.9633 21.5626 18.2167L19.9524 19.827C19.4369 20.3425 18.5982 20.3425 18.0829 19.827L12.1689 13.913C11.6534 13.3975 11.6534 12.5589 12.1689 12.0435L13.7791 10.4333C14.3863 9.82609 14.7206 9.01884 14.7206 8.16015C14.7206 7.30146 14.3862 6.49421 13.7791 5.88702L8.83361 0.941525C8.18386 0.291775 7.28523 -0.0490375 6.36798 0.00571252C5.4508 0.0607125 4.5993 0.506837 4.03192 1.22959L2.26161 3.48471C-1.05002 7.70315 -0.687641 13.744 3.10461 17.5362L14.4637 28.8952C16.5207 30.9522 19.2384 32.0001 21.9687 31.9998C24.2722 31.9997 26.5849 31.2536 28.5151 29.7382L30.7703 27.9679C31.493 27.4005 31.9391 26.549 31.9942 25.6318C32.0492 24.7146 31.7082 23.816 31.0584 23.1663ZM30.7463 25.557C30.7127 26.1176 30.4401 26.6379 29.9984 26.9847L28.8039 27.9224L25.055 24.1735C24.811 23.9295 24.4152 23.9295 24.171 24.1735C23.927 24.4176 23.927 24.8134 24.171 25.0575L27.8135 28.7L27.7433 28.755C24.0219 31.6765 18.6931 31.3568 15.3477 28.0114L3.98855 16.6523C0.643234 13.307 0.323484 7.97796 3.24486 4.25665L5.01517 2.00153C5.36186 1.55984 5.8823 1.28721 6.4428 1.25359C7.00386 1.22015 7.55255 1.4284 7.94961 1.82546L12.8951 6.77096C13.6611 7.5369 13.6611 8.78334 12.8951 9.54921L11.6681 10.7762L7.19298 6.30109C6.94892 6.05702 6.55311 6.05702 6.30898 6.30109C6.06492 6.54515 6.06492 6.94096 6.30898 7.18509L10.8547 11.7308C10.3127 12.7089 10.4555 13.9678 11.2848 14.7969L17.1989 20.711C18.2016 21.7137 19.8333 21.7137 20.8362 20.711L22.4465 19.1007C23.2125 18.3346 24.4589 18.3346 25.2248 19.1007L30.1743 24.0502C30.5715 24.4473 30.7799 24.9965 30.7463 25.557Z" fill="black"/>
<path d="M22.9688 23.5958C22.8044 23.5958 22.6432 23.529 22.5269 23.4126C22.4106 23.2965 22.3438 23.1352 22.3438 22.9708C22.3438 22.8063 22.4106 22.6451 22.5269 22.5288C22.6431 22.4126 22.8044 22.3457 22.9688 22.3457C23.1338 22.3457 23.2944 22.4125 23.4107 22.5288C23.5271 22.6451 23.5939 22.8063 23.5939 22.9708C23.5939 23.1352 23.527 23.2964 23.4107 23.4126C23.2944 23.529 23.1332 23.5958 22.9688 23.5958Z" fill="black"/>
<path d="M7.83209 17.6661C7.66709 17.6661 7.50647 17.5999 7.38953 17.483C7.27328 17.3668 7.20703 17.2056 7.20703 17.0411C7.20703 16.8767 7.27328 16.7161 7.38953 16.5992C7.50578 16.483 7.66703 16.416 7.83209 16.416C7.99647 16.416 8.15772 16.4829 8.27403 16.5992C8.39028 16.7161 8.45716 16.8766 8.45716 17.0411C8.45716 17.2061 8.39028 17.3667 8.27403 17.483C8.15772 17.5999 7.99647 17.6661 7.83209 17.6661Z" fill="black"/>
<path d="M5.93647 15.772C5.77653 15.772 5.61653 15.711 5.49447 15.5889L5.05703 15.1515C3.27597 13.3704 2.58047 10.7536 3.24209 8.32249C3.33272 7.98943 3.67603 7.79262 4.00935 7.88349C4.34241 7.97412 4.53897 8.31768 4.44834 8.65074C3.90416 10.6504 4.47616 12.8026 5.94109 14.2675L6.37853 14.7049C6.62259 14.949 6.62259 15.3448 6.37853 15.5889C6.25641 15.711 6.09641 15.772 5.93647 15.772Z" fill="black"/>
<path d="M31.3747 13.488C31.0295 13.488 30.7497 13.2082 30.7497 12.8629C30.7497 6.45956 25.5402 1.25006 19.1368 1.25006C18.7916 1.25006 18.5117 0.97025 18.5117 0.625C18.5117 0.27975 18.7916 0 19.1368 0C26.2295 0 31.9998 5.77031 31.9998 12.863C31.9998 13.2082 31.72 13.488 31.3747 13.488Z" fill="black"/>
<path d="M27.0733 13.4874C26.7281 13.4874 26.4482 13.2076 26.4482 12.8623C26.4482 8.83078 23.1683 5.55091 19.1368 5.55091C18.7916 5.55091 18.5117 5.27109 18.5117 4.92584C18.5117 4.58066 18.7915 4.30078 19.1368 4.30078C23.8576 4.30078 27.6983 8.14147 27.6983 12.8623C27.6983 13.2076 27.4185 13.4874 27.0733 13.4874Z" fill="black"/>
<path d="M22.5382 13.4875C22.193 13.4875 21.9132 13.2077 21.9132 12.8624C21.9132 11.3315 20.6677 10.0861 19.1368 10.0861C18.7916 10.0861 18.5117 9.80625 18.5117 9.461C18.5117 9.11575 18.7915 8.83594 19.1368 8.83594C21.357 8.83594 23.1633 10.6422 23.1633 12.8624C23.1633 13.2077 22.8834 13.4875 22.5382 13.4875Z" fill="black"/>
</g>
<defs>
<clipPath id="clip0_386_5896">
<rect width="32" height="32" fill="white"/>
</clipPath>
</defs>
</svg>
