<svg width="33" height="32" viewBox="0 0 33 32" fill="none" xmlns="http://www.w3.org/2000/svg">
<g clip-path="url(#clip0_386_5891)">
<path d="M9.87092 30.0411L6.21452 31.2599C4.58313 31.8036 2.84595 31.1981 1.88028 29.8584C1.16188 28.8617 0.965472 27.569 1.35492 26.4005L2.5498 22.8161C-0.270034 17.0594 0.675265 9.8858 5.51562 5.03514C11.6223 -1.08453 21.5054 -1.03591 27.5536 5.0925C33.5075 11.1253 33.5929 20.9398 27.3898 27.0485C22.5352 31.8293 15.4996 32.7047 9.87092 30.0411Z" fill="#FBF1CF"/>
<path d="M9.87092 30.0411L6.21452 31.2599C4.58313 31.8036 2.84595 31.1981 1.88028 29.8584C1.16188 28.8617 0.965472 27.569 1.35492 26.4005L2.5498 22.8161C-0.270034 17.0594 0.675265 9.8858 5.51562 5.03514C11.6223 -1.08453 21.5054 -1.03591 27.5536 5.0925C33.5075 11.1253 33.5929 20.9398 27.3898 27.0485C22.5352 31.8293 15.4996 32.7047 9.87092 30.0411Z" fill="white"/>
<path d="M10.4382 1.70312C8.65099 2.46226 6.9753 3.57166 5.51563 5.03439C0.675218 9.88505 -0.270018 17.0588 2.54982 22.8153L1.35493 26.3998C0.965489 27.5683 1.1619 28.861 1.88029 29.8576C2.84596 31.1974 4.58315 31.8028 6.21453 31.2592L9.87093 30.0403C15.2242 32.5736 21.8499 31.9053 26.6618 27.7211C6.30358 24.4725 8.26661 5.71466 10.4382 1.70312Z" fill="white"/>
<path d="M16.5018 3.18359C9.42431 3.18353 3.67241 8.94825 3.68753 16.0257C3.6919 18.0833 4.18177 20.0268 5.04808 21.7484C5.32148 22.2917 5.37385 22.9196 5.1815 23.4967L3.92793 27.2574C3.63366 28.1402 4.47354 28.9801 5.35635 28.6858L9.18585 27.4093C9.75227 27.2205 10.3684 27.2671 10.9053 27.5282C12.5307 28.3187 14.3483 28.7757 16.2691 28.8098C23.342 28.9358 29.2217 23.2438 29.3148 16.1704C29.4089 9.0143 23.6363 3.18366 16.5018 3.18359Z" fill="#89D47F"/>
<path d="M11.3859 4.25195C6.85032 6.23448 3.67628 10.7682 3.68753 16.0276C3.6919 18.0852 4.18177 20.0287 5.04808 21.7503C5.32148 22.2937 5.37385 22.9216 5.1815 23.4986L3.92793 27.2593C3.63366 28.1421 4.47354 28.982 5.35635 28.6878L9.18585 27.4113C9.75227 27.2225 10.3684 27.2691 10.9053 27.5302C12.5307 28.3206 14.3483 28.7776 16.2691 28.8118C19.5798 28.8708 22.6289 27.6549 24.9456 25.6195C13.6212 23.1899 9.64303 9.64566 11.3859 4.25195Z" fill="#5EC783"/>
<path d="M12.1476 20.3538C13.2006 21.4067 14.341 22.2522 15.6075 22.9089C18.1944 24.2503 21.3357 23.8966 23.568 22.0236C24.3885 21.3352 24.4428 20.0917 23.6855 19.3343L22.3984 18.0473C21.8225 17.4713 20.9346 17.3466 20.2223 17.7416L18.4684 18.7142C17.9864 18.9816 17.3953 18.9689 16.9299 18.6735C16.3241 18.289 15.7603 17.83 15.2159 17.2855C14.6714 16.741 14.2124 16.1772 13.8279 15.5715C13.5325 15.1062 13.5199 14.5151 13.7872 14.033L14.7598 12.2791C15.1548 11.5668 15.0301 10.679 14.4542 10.103L13.1671 8.81595C12.4098 8.05862 11.1662 8.11293 10.4778 8.93343C8.60483 11.1657 8.25113 14.3071 9.5925 16.894C10.2492 18.1604 11.0947 19.3008 12.1476 20.3538Z" fill="white"/>
<path d="M25.6379 27.9537C21.1417 31.4094 15.1126 32.0038 10.07 29.6176C9.96089 29.5659 9.83591 29.5585 9.7213 29.5966L6.06496 30.8154C4.65723 31.2845 3.12795 30.7898 2.25914 29.5845C1.62855 28.7097 1.45626 27.5748 1.79821 26.5489L2.9931 22.9645C3.03197 22.8478 3.02341 22.7206 2.96935 22.6101C0.191885 16.9398 1.21474 10.0075 5.84606 5.36634C6.43303 4.77805 7.06963 4.2362 7.73822 3.75577C7.94837 3.60473 7.99637 3.31183 7.84533 3.10167C7.69422 2.89146 7.40139 2.84352 7.19117 2.99457C6.48134 3.50468 5.8055 4.07991 5.18253 4.70425C0.302181 9.59497 -0.797095 16.8698 2.04368 22.8486L0.908967 26.2525C0.472031 27.5635 0.692499 29.014 1.49876 30.1326C2.61222 31.6773 4.56812 32.3023 6.36136 31.7047L9.84072 30.5448C15.0299 32.925 21.3677 32.418 26.2091 28.6967C26.4144 28.539 26.4529 28.2447 26.2951 28.0395C26.1375 27.8344 25.8433 27.7959 25.6379 27.9537ZM27.8858 4.76343C22.7673 -0.423059 15.1137 -1.30206 9.15038 1.79105C8.9206 1.91022 8.83099 2.19312 8.95016 2.4229C9.06927 2.65268 9.35229 2.74229 9.58195 2.62318C15.1916 -0.286517 22.3972 0.536488 27.2186 5.42183C32.9344 11.2134 33.0798 20.5944 27.2379 26.5362C27.0564 26.7208 27.0589 27.0175 27.2435 27.199C27.428 27.3805 27.7248 27.3779 27.9062 27.1934C34.1114 20.8823 33.9574 10.9155 27.8858 4.76343ZM15.3898 23.325C18.1603 24.7614 21.4866 24.3801 23.8674 22.3827C24.8976 21.5182 24.9658 19.9537 24.015 19.003L22.7279 17.7159C22.0079 16.996 20.8835 16.838 19.993 17.3318L18.2392 18.3044C17.9041 18.4903 17.4978 18.4802 17.1791 18.2778C16.0438 17.5572 14.9437 16.4579 14.2216 15.3204C14.0194 15.0017 14.0092 14.5955 14.195 14.2603L15.1676 12.5064C15.6614 11.6161 15.5035 10.4915 14.7836 9.77157L13.4965 8.48451C12.5455 7.53359 10.981 7.60202 10.1168 8.63211C8.1126 11.0208 7.74272 14.3485 9.17444 17.1097C10.4986 19.6633 12.7446 21.9533 15.3898 23.325ZM10.8349 9.23465C11.3521 8.61818 12.2759 8.58968 12.8337 9.14735L14.1208 10.4344C14.5465 10.8602 14.64 11.5253 14.348 12.0519L13.3753 13.8057C13.0229 14.4412 13.044 15.2141 13.4303 15.8227C14.2251 17.0748 15.4224 18.273 16.6768 19.0693C17.2854 19.4556 18.0583 19.4767 18.6939 19.1242L20.4477 18.1516C20.9742 17.8596 21.6393 17.9529 22.0651 18.3788L23.3522 19.6658C23.9112 20.2248 23.8801 21.1483 23.2649 21.6646C21.1671 23.4248 18.2453 23.7498 15.8213 22.4929C13.4368 21.2565 11.2874 19.1482 10.0066 16.6782C8.74976 14.2541 9.07483 11.3323 10.8349 9.23465ZM3.48234 27.1102C3.06621 28.3587 4.25498 29.5475 5.50361 29.1314L9.33311 27.8549C9.78042 27.7058 10.2657 27.7398 10.6993 27.9507C15.4811 30.2761 21.5238 29.6097 25.7388 25.5233C31.0905 20.3347 31.1077 11.8897 25.9552 6.66878C20.7687 1.41348 12.316 1.39561 7.10243 6.62022C2.88537 10.8464 2.16503 17.0647 4.62842 21.96C4.8497 22.3998 4.88788 22.8933 4.73584 23.3494L3.48234 27.1102ZM5.4658 21.5387C3.17195 16.9798 3.85341 11.2034 7.76609 7.28231C12.6449 2.39309 20.498 2.47352 25.2881 7.32724C30.0689 12.1715 30.0702 20.0186 25.0864 24.8503C21.2154 28.6034 15.6164 29.2996 11.1094 27.1077C10.4538 26.7889 9.7178 26.7387 9.03678 26.9657L5.20727 28.2422C4.69191 28.4139 4.19874 27.9257 4.37177 27.4066L5.62534 23.6459C5.85668 22.9514 5.80006 22.203 5.4658 21.5387Z" fill="black"/>
</g>
<defs>
<clipPath id="clip0_386_5891">
<rect width="32" height="32" fill="white" transform="translate(0.5)"/>
</clipPath>
</defs>
</svg>
